<?xml version="1.0" encoding="UTF-8"?>
<!-- Generator: Adobe Illustrator 19.1.0, SVG Export Plug-In . SVG Version: 6.00 Build 0)  -->
<svg version="1.1" id="Layer_1" xmlns:sketch="http://www.bohemiancoding.com/sketch/ns" xmlns="http://www.w3.org/2000/svg" xmlns:xlink="http://www.w3.org/1999/xlink" x="0px" y="0px" viewBox="-308 219 175 175" style="enable-background:new -308 219 175 175;" xml:space="preserve">
<style type="text/css">
	.st0{fill:none;stroke:#FFFFFF;stroke-width:2;}
</style>
<title>iconstep_icon</title>
<desc>Created with Sketch.</desc>
<g id="Welcome" sketch:type="MSPage">
	<g id="Desktop-HD" transform="translate(-369.000000, -1111.000000)" sketch:type="MSArtboardGroup">
		<g id="section-_x5B_ProtoApp_x5D_" transform="translate(0.000000, 890.000000)" sketch:type="MSLayerGroup">
			<g id="graphic" transform="translate(195.000000, 83.000000)" sketch:type="MSShapeGroup">
				<g id="_x30_1" transform="translate(179.000000, 143.000000)">
					<g id="icon">
						<path id="Stroke-1" class="st0" d="M-242.5,349.8l34.4-3.6"/>
						<path id="Stroke-2" class="st0" d="M-242.5,358.5l34.4-3.6"/>
						<path id="Stroke-3" class="st0" d="M-242.5,367.3l34.4-3.6"/>
						<path id="Stroke-4" class="st0" d="M-229,374.6l9.2-1"/>
						<path id="Stroke-6" class="st0" d="M-198.3,260l22.2-23.6l4.5,13l28.6-24l-27.7,40.6l-4.5-13.9l-11.8,13.3"/>
						<path id="Stroke-7" class="st0" d="M-245,324.3l-22.3,23.7l-4.5-13l-28.6,24l27.7-40.6l4.5,13.9l10.4-11.6"/>
						<path id="Stroke-8" class="st0" d="M-242,292.3c0-3,2.5-5.5,5.5-5.5c3,0,5.5,2.5,5.5,5.5"/>
						<path id="Stroke-10" class="st0" d="M-231,292.3c0-3,2.5-5.5,5.5-5.5c3,0,5.5,2.5,5.5,5.5"/>
						<path id="Stroke-12" class="st0" d="M-220,292.3c0-3,2.5-5.5,5.5-5.5c3,0,5.5,2.5,5.5,5.5"/>
						<path id="Stroke-14" class="st0" d="M-241.8,297.2l8,51.4"/>
						<path id="Stroke-16" class="st0" d="M-209.6,297.2l-7.8,49.9"/>
						<path id="Stroke-18" class="st0" d="M-190.1,260.3c6.1,7.7,9.8,17.5,9.8,28.1c0,13.5-6.1,25.8-15.5,34.1        c-6.6,6.5-13.1,11.8-13.1,23.5v0.5"/>
						<path id="Stroke-20" class="st0" d="M-253.1,324.5c-0.4-0.4-0.8-0.7-1.2-1.1c-10.1-8.3-16.4-21-16.4-35        c0-24.9,20.2-45.1,45.2-45.1c12,0,22.9,4.7,30.9,12.2"/>
						<path id="Stroke-22" class="st0" d="M-242.5,350.1v-4.4c0-7.7-2.5-12.5-6.3-16.8"/>
					</g>
				</g>
			</g>
		</g>
	</g>
</g>
</svg>