<?xml version="1.0" encoding="utf-8"?>
<!-- Generator: Adobe Illustrator 17.1.0, SVG Export Plug-In . SVG Version: 6.00 Build 0)  -->
<!DOCTYPE svg PUBLIC "-//W3C//DTD SVG 1.1//EN" "http://www.w3.org/Graphics/SVG/1.1/DTD/svg11.dtd">
<svg version="1.1" id="Layer_1" xmlns="http://www.w3.org/2000/svg" xmlns:xlink="http://www.w3.org/1999/xlink" x="0px" y="0px"
	 viewBox="0 0 250 250" enable-background="new 0 0 250 250" xml:space="preserve">
<g>
	<line fill="none" stroke="#000000" stroke-width="3" stroke-miterlimit="10" x1="94" y1="199.1" x2="145.1" y2="193.7"/>
	<line fill="none" stroke="#000000" stroke-width="3" stroke-miterlimit="10" x1="94" y1="212.1" x2="145.1" y2="206.7"/>
	<line fill="none" stroke="#000000" stroke-width="3" stroke-miterlimit="10" x1="94" y1="225.2" x2="145.1" y2="219.8"/>
	<line fill="none" stroke="#000000" stroke-width="3" stroke-miterlimit="10" x1="114.1" y1="236.1" x2="127.7" y2="234.6"/>
	<polyline fill="none" stroke="#000000" stroke-width="3" stroke-miterlimit="10" points="159.7,65.5 192.7,30.4 199.3,49.7 
		241.8,13.9 200.7,74.3 194,53.7 176.4,73.5 	"/>
	<polyline fill="none" stroke="#000000" stroke-width="3" stroke-miterlimit="10" points="90.4,161.2 57.3,196.5 50.7,177.2 
		8.2,212.9 49.3,152.5 56,173.2 71.4,155.8 	"/>
	<path fill="none" stroke="#000000" stroke-width="3" stroke-miterlimit="10" d="M94.9,113.6c0-4.5,3.6-8.1,8.1-8.1s8.1,3.6,8.1,8.1
		"/>
	<path fill="none" stroke="#000000" stroke-width="3" stroke-miterlimit="10" d="M111.2,113.6c0-4.5,3.6-8.1,8.1-8.1
		s8.1,3.6,8.1,8.1"/>
	<path fill="none" stroke="#000000" stroke-width="3" stroke-miterlimit="10" d="M127.4,113.6c0-4.5,3.6-8.1,8.1-8.1
		c4.5,0,8.1,3.6,8.1,8.1"/>
	<line fill="none" stroke="#000000" stroke-width="3" stroke-miterlimit="10" x1="95.1" y1="120.9" x2="107.1" y2="197.5"/>
	<line fill="none" stroke="#000000" stroke-width="3" stroke-miterlimit="10" x1="142.9" y1="120.9" x2="131.3" y2="195.2"/>
	<path fill="none" stroke="#000000" stroke-width="3" stroke-miterlimit="10" d="M171.7,66.3c9.1,11.5,14.7,25.8,14.7,41.6
		c0,20.1-9.3,38.3-23.3,50.6c-9.8,9.7-19.6,17.5-19.6,34.8v1.6"/>
	<path fill="none" stroke="#000000" stroke-width="3" stroke-miterlimit="10" d="M78.4,161.5c-0.6-0.6-1.1-1.1-1.7-1.7
		c-15-12.3-24.4-31.2-24.4-52.2c0-37.1,30-67.1,67.1-67.1c17.8,0,33.9,6.9,45.9,18.2"/>
	<path fill="none" stroke="#000000" stroke-width="3" stroke-miterlimit="10" d="M94.5,200v-6.9c0-11.5-3.8-18.4-9.4-24.9"/>
</g>
</svg>
