<?xml version="1.0" encoding="UTF-8" standalone="no"?>
<svg width="26px" height="26px" viewBox="0 0 26 26" version="1.1" xmlns="http://www.w3.org/2000/svg" xmlns:xlink="http://www.w3.org/1999/xlink" xmlns:sketch="http://www.bohemiancoding.com/sketch/ns">
    <!-- Generator: Sketch 3.4.4 (17249) - http://www.bohemiancoding.com/sketch -->
    <title>instagram</title>
    <desc>Created with Sketch.</desc>
    <defs></defs>
    <g id="Welcome" stroke="none" stroke-width="1" fill="none" fill-rule="evenodd" sketch:type="MSPage">
        <g id="Desktop-HD" sketch:type="MSArtboardGroup" transform="translate(-363.000000, -4502.000000)" fill="#FFFFFF">
            <g id="footer" sketch:type="MSLayerGroup" transform="translate(0.000000, 4340.000000)">
                <g id="social-nav" transform="translate(245.000000, 162.000000)" sketch:type="MSShapeGroup">
                    <path d="M121.337228,0 L140.663039,0 C142.498367,0 144,1.3588106 144,3.33696121 L144,22.6633057 C144,24.6414564 142.498367,26.000267 140.663039,26.000267 L121.337228,26.000267 C119.501366,26.000267 118,24.6414564 118,22.6633057 L118,3.33696121 C118,1.3588106 119.501366,0 121.337228,0 L121.337228,0 L121.337228,0 Z M136.940058,2.88874058 C136.296158,2.88874058 135.769986,3.41517958 135.769986,4.05934657 L135.769986,6.8610592 C135.769986,7.50495924 136.296158,8.03166519 136.940058,8.03166519 L139.878719,8.03166519 C140.522619,8.03166519 141.049325,7.50495924 141.049325,6.8610592 L141.049325,4.05934657 C141.049325,3.41517958 140.522619,2.88874058 139.878719,2.88874058 L136.940058,2.88874058 L136.940058,2.88874058 L136.940058,2.88874058 Z M141.061605,10.9954207 L138.773251,10.9954207 C138.989753,11.7023225 139.106947,12.4511366 139.106947,13.2258455 C139.106947,17.5505473 135.488079,21.0562252 131.024827,21.0562252 C126.561842,21.0562252 122.943508,17.5505473 122.943508,13.2258455 C122.943508,12.4506027 123.060435,11.7020556 123.277204,10.9954207 L120.889274,10.9954207 L120.889274,21.9782944 C120.889274,22.5466456 121.354313,23.0119515 121.922932,23.0119515 L140.028482,23.0119515 C140.5971,23.0119515 141.062139,22.5469125 141.062139,21.9782944 L141.062139,10.9954207 L141.061605,10.9954207 L141.061605,10.9954207 Z M131.02456,7.88403803 C128.140892,7.88403803 125.802883,10.1491673 125.802883,12.9436721 C125.802883,15.7381769 128.140892,18.0033062 131.02456,18.0033062 C133.908495,18.0033062 136.246771,15.7381769 136.246771,12.9436721 C136.246771,10.1491673 133.908762,7.88403803 131.02456,7.88403803 L131.02456,7.88403803 Z" id="instagram"></path>
                </g>
            </g>
        </g>
    </g>
</svg>