<?xml version="1.0" encoding="UTF-8" standalone="no"?>
<svg width="26px" height="26px" viewBox="0 0 26 26" version="1.1" xmlns="http://www.w3.org/2000/svg" xmlns:xlink="http://www.w3.org/1999/xlink" xmlns:sketch="http://www.bohemiancoding.com/sketch/ns">
    <!-- Generator: Sketch 3.4.4 (17249) - http://www.bohemiancoding.com/sketch -->
    <title>github</title>
    <desc>Created with Sketch.</desc>
    <defs></defs>
    <g id="Welcome" stroke="none" stroke-width="1" fill="none" fill-rule="evenodd" sketch:type="MSPage">
        <g id="Desktop-HD" sketch:type="MSArtboardGroup" transform="translate(-245.000000, -4502.000000)" fill="#FFFFFF">
            <g id="footer" sketch:type="MSLayerGroup" transform="translate(0.000000, 4340.000000)">
                <g id="social-nav" transform="translate(245.000000, 162.000000)" sketch:type="MSShapeGroup">
                    <path d="M17.45444,25.2145277 C17.3278205,25.2601696 17.2004648,25.3153816 17.0701645,25.3382026 C16.571048,25.4272779 16.2515546,25.1696219 16.24861,24.6594631 C16.2419845,23.7120252 16.2419845,22.7660596 16.2574439,21.8186218 C16.2736394,20.729105 16.24861,19.6535753 15.4189577,18.754724 C15.9121849,18.6663848 16.3509362,18.6045473 16.7801175,18.5059019 C19.6231673,17.852928 21.0999042,16.0596423 21.2883611,13.0833476 C21.3847981,11.5683303 21.1146274,10.1784603 20.1075605,8.985145 C20.0346807,8.90122276 20.0309999,8.71055733 20.0655994,8.58835477 C20.3335616,7.60190041 20.2555287,6.63826701 19.9433969,5.67389745 C19.8661001,5.43317314 19.7380082,5.35882098 19.5002286,5.37428034 C18.6654232,5.42065842 17.9005529,5.71365009 17.2262304,6.16417999 C16.5762012,6.60072285 15.9710777,6.69568749 15.1988459,6.5190091 C13.4983163,6.13546975 11.7867444,6.24736607 10.0898957,6.64047549 C9.89775791,6.68611741 9.63936576,6.62501613 9.46342353,6.52195374 C8.66689844,6.05522832 7.87037335,5.60175377 6.95164571,5.42065842 C6.24125134,5.28226035 6.1794139,5.31759603 5.99095695,6.00443328 C5.75391344,6.8701574 5.73035632,7.73661769 5.97255295,8.60749493 C6.00715247,8.73411445 5.97108063,8.9372946 5.88642223,9.03078692 C4.00406119,11.1310513 4.68574532,15.0996897 5.95414895,16.6198601 C6.94060331,17.8006606 8.25096806,18.3321681 9.70562016,18.6082281 C9.95959535,18.6553424 10.2120982,18.6914142 10.4660734,18.7355838 C10.2481701,19.302427 10.0523515,19.8376153 9.83076735,20.3639697 C9.78733391,20.4655597 9.649672,20.5509543 9.53703952,20.5936516 C8.1103615,21.1472439 6.88391899,20.7401474 6.06751758,19.445242 C5.63097472,18.754724 5.07075698,18.2386758 4.23595158,18.0892354 C4.20944982,18.0840822 4.1822119,18.0700952 4.15791862,18.073776 C3.93338983,18.1326688 3.71106952,18.1945062 3.48727689,18.2548713 C3.61316024,18.4300774 3.7022356,18.6656486 3.87081623,18.7709195 C4.57826596,19.2185047 5.03836594,19.8567554 5.34240001,20.6098471 C5.82016783,21.7906477 6.7477294,22.3170021 7.95282327,22.4200645 C8.54101508,22.4679149 9.13509618,22.4274261 9.77923615,22.4274261 C9.77923615,23.1606414 9.80573791,23.9976553 9.76819375,24.8309884 C9.7490536,25.2800459 9.29778753,25.459669 8.75744612,25.275629 C7.32414265,24.7853464 5.99537391,24.0823137 4.84770051,23.094387 C0.703856039,19.5247473 -0.893611097,15.0120867 0.483744208,9.73013889 C1.85668255,4.46512278 5.43515617,1.23558899 10.7855668,0.22189671 C18.1891277,-1.17827955 25.2025237,4.21335607 25.9372113,11.7288132 C26.5173054,17.6534286 23.0301156,23.1974494 17.45444,25.2145277 L17.45444,25.2145277 Z M10.4749073,18.7076097 C10.4704904,18.717916 10.4675457,18.7252776 10.4631288,18.7355838 C10.4763796,18.7377923 10.4896305,18.7400008 10.5036176,18.7422092 C10.5139238,18.7429454 10.5227577,18.7613494 10.4749073,18.7076097 L10.4749073,18.7076097 Z M7.12537946,21.0493346 C7.24095658,21.1207421 7.35138057,21.2112898 7.47652777,21.2503063 C7.52216968,21.2650295 7.60682808,21.1612309 7.75626856,21.0508069 C7.54867144,20.9720378 7.42646889,20.9028388 7.29764089,20.8851709 C7.24758202,20.8792816 7.18279994,20.9919141 7.12537946,21.0493346 L7.12537946,21.0493346 Z M8.1802967,21.2304299 C8.19722838,21.3077267 8.35108581,21.4041637 8.44163349,21.4026914 C8.52923652,21.4012191 8.61463108,21.2849058 8.70223412,21.2186514 C8.62272884,21.1457715 8.54322356,21.0751002 8.29881845,20.8549884 C8.24581494,21.0081096 8.1582119,21.1317845 8.1802967,21.2304299 L8.1802967,21.2304299 Z M9.47446593,20.9190343 C9.36551425,20.9447999 9.27349425,21.0456538 9.17411266,21.1148528 C9.2322693,21.1884688 9.29042593,21.2569317 9.38391825,21.3725088 C9.51274624,21.2547232 9.60034928,21.1730095 9.68868848,21.0935042 C9.61507248,21.0294583 9.52894176,20.9057834 9.47446593,20.9190343 L9.47446593,20.9190343 Z M6.26628078,20.4824914 C6.32664589,20.5965962 6.42013821,20.6952416 6.54675772,20.8564607 C6.63141612,20.7180626 6.72343612,20.6120556 6.7072406,20.5907069 C6.62699916,20.4854361 6.51804749,20.3993053 6.41056813,20.3205362 C6.40320653,20.3146469 6.25376606,20.457462 6.26628078,20.4824914 L6.26628078,20.4824914 Z" id="github"></path>
                </g>
            </g>
        </g>
    </g>
</svg>