<?xml version="1.0" encoding="UTF-8" standalone="no"?>
<svg width="140px" height="35px" viewBox="0 0 140 35" version="1.1" xmlns="http://www.w3.org/2000/svg" xmlns:xlink="http://www.w3.org/1999/xlink" xmlns:sketch="http://www.bohemiancoding.com/sketch/ns">
    <!-- Generator: Sketch 3.5.2 (25235) - http://www.bohemiancoding.com/sketch -->
    <title>Page 1</title>
    <desc>Created with Sketch.</desc>
    <defs>
        <path id="path-1" d="M0,0.024600639 L139.658722,0.024600639 L139.658722,34.8881789 L0,34.8881789 L0,0.024600639 Z"></path>
        <path id="path-3" d="M0,0.024600639 L139.658722,0.024600639 L139.658722,34.8881789 L0,34.8881789 L0,0.024600639 Z"></path>
    </defs>
    <g id="Form" stroke="none" stroke-width="1" fill="none" fill-rule="evenodd" sketch:type="MSPage">
        <g id="form_commercial_proposal_v01c" sketch:type="MSArtboardGroup" transform="translate(-14.000000, -386.000000)">
            <g id="Page-1" sketch:type="MSLayerGroup" transform="translate(14.000000, 386.000000)">
                <path d="M45.0382684,19.4485048 C45.3227412,19.8752141 45.6787796,20.2312524 46.176607,20.444607 C46.6748818,20.6579617 47.1015911,20.7290799 47.5998658,20.7290799 C47.8843387,20.7290799 48.1688115,20.6579617 48.4532843,20.5868435 C48.7382045,20.5157252 49.0226773,20.3734888 49.2360319,20.2312524 C49.4493866,20.089016 49.6631885,19.8752141 49.8054249,19.5907412 C49.9476613,19.3062684 50.0187796,19.0217955 50.0187796,18.7368754 C50.0187796,18.2390479 49.8765431,17.8830096 49.5920703,17.669655 C49.3071502,17.4563003 48.9515591,17.2429457 48.5248498,17.0295911 C48.0976933,16.8869073 47.5998658,16.6735527 47.1015911,16.5313163 C46.6037636,16.3890799 46.1054888,16.1757252 45.6787796,15.8908051 C45.251623,15.6063323 44.8960319,15.2507412 44.6115591,14.8235847 C44.326639,14.3968754 44.1844026,13.7563642 44.1844026,12.9736166 C44.1844026,12.6180256 44.2555208,12.2624345 44.3977572,11.835278 C44.5404409,11.4085687 44.8249137,11.0525304 45.1093866,10.7680575 C45.4649776,10.4124665 45.8921342,10.1279936 46.3899617,9.91419169 C46.8882364,9.70083706 47.5287476,9.55860064 48.2399297,9.55860064 C48.8804409,9.55860064 49.5209521,9.62971885 50.161016,9.84307348 C50.7304089,10.0564281 51.2993546,10.4124665 51.7265112,10.9814121 L50.3743706,12.1913163 C50.161016,11.9063962 49.8765431,11.6219233 49.5209521,11.4085687 C49.1649137,11.1952141 48.7382045,11.1240958 48.2399297,11.1240958 C47.8132204,11.1240958 47.3860639,11.1952141 47.1015911,11.3374505 C46.8171182,11.4796869 46.5326454,11.6219233 46.3899617,11.7641597 C46.176607,11.9775144 46.1054888,12.1201981 46.0343706,12.4046709 C45.9632524,12.6891438 45.8921342,12.8313802 45.8921342,12.9736166 C45.8921342,13.4718914 46.0343706,13.8986006 46.3188435,14.1835208 C46.6037636,14.4679936 46.9593546,14.6813482 47.3860639,14.8235847 C47.8132204,14.9658211 48.3110479,15.179623 48.8093227,15.2507412 C49.3071502,15.3929776 49.8054249,15.6063323 50.2321342,15.8196869 C50.6592907,16.0334888 51.0148818,16.3890799 51.2993546,16.8157891 C51.5842748,17.2429457 51.7265112,17.8118914 51.7265112,18.5235208 C51.7265112,19.0929137 51.5842748,19.6618594 51.3704728,20.089016 C51.1571182,20.5868435 50.8726454,20.9424345 50.4454888,21.2984728 C50.0898978,21.5829457 49.5920703,21.8674185 49.0937955,22.0101022 C48.5959681,22.1523387 48.0265751,22.2945751 47.4571821,22.2945751 C46.6748818,22.2945751 45.9632524,22.1523387 45.251623,21.8674185 C44.5399936,21.5829457 43.9710479,21.1562364 43.6154569,20.5868435 L45.0382684,19.4485048 Z" id="Fill-1" fill="#FFFFFF" sketch:type="MSShapeGroup"></path>
                <path d="M58.1299681,15.1794888 L55.9244089,15.1794888 L55.9244089,18.8794249 L55.9244089,19.5194888 C55.9244089,19.7332907 55.9955272,19.9466454 56.0666454,20.0888818 C56.1377636,20.2311182 56.28,20.3733546 56.4222364,20.5155911 C56.5644728,20.6582748 56.7782748,20.6582748 57.0627476,20.6582748 C57.2761022,20.6582748 57.4183387,20.6582748 57.6316933,20.5867093 C57.8454952,20.5867093 57.9877316,20.5155911 58.1299681,20.3733546 L58.1299681,21.7966134 C57.9166134,21.8677316 57.7032588,21.9388498 57.4183387,22.0099681 C57.1338658,22.0810863 56.9205112,22.0810863 56.7782748,22.0810863 C56.2088818,22.0810863 55.7110543,22.0099681 55.4261342,21.8677316 C55.0705431,21.7254952 54.8571885,21.5116933 54.7149521,21.2272204 C54.5722684,20.9427476 54.5011502,20.6582748 54.4300319,20.3733546 C54.4300319,20.0177636 54.3589137,19.7332907 54.3589137,19.3772524 L54.3589137,15.1794888 L52.5800639,15.1794888 L52.5800639,13.8989137 L54.3589137,13.8989137 L54.3589137,11.6217891 L55.9244089,11.6217891 L55.9244089,13.8989137 L58.1299681,13.8989137 L58.1299681,15.1794888 Z" id="Fill-3" fill="#FFFFFF" sketch:type="MSShapeGroup"></path>
                <path d="M64.4623514,18.0966773 C64.1067604,18.0966773 63.750722,18.0966773 63.3240128,18.1677955 C62.9679744,18.2389137 62.6123834,18.3100319 62.2567923,18.3811502 C61.9718722,18.5233866 61.6873994,18.6660703 61.4740447,18.8794249 C61.2606901,19.0927796 61.1895719,19.3772524 61.1895719,19.6621725 C61.1895719,20.16 61.3318083,20.4444728 61.6873994,20.6582748 C62.0434377,20.8716294 62.3990288,20.9427476 62.9679744,20.9427476 C63.395131,20.9427476 63.750722,20.8716294 64.0356422,20.729393 C64.320115,20.5871565 64.6045879,20.3733546 64.7468243,20.16 C64.9606262,19.9466454 65.0317444,19.6621725 65.1739808,19.3772524 C65.245099,19.0927796 65.3162173,18.8083067 65.3162173,18.5233866 L65.3162173,18.0255591 L64.4623514,18.0255591 L64.4623514,18.0966773 Z M60.1223514,14.895016 C60.5490607,14.4678594 61.0473355,14.1833866 61.6162812,13.9700319 C62.1856741,13.7566773 62.7546198,13.6855591 63.3240128,13.6855591 C63.8929585,13.6855591 64.3912332,13.7566773 64.8179425,13.8989137 C65.245099,14.0411502 65.6006901,14.2545048 65.8851629,14.4678594 C66.1700831,14.7527796 66.3834377,15.0372524 66.5256741,15.3217252 C66.6679105,15.6777636 66.7390288,15.9622364 66.7390288,16.3178275 L66.7390288,20.4444728 L66.7390288,21.2272204 C66.7390288,21.4405751 66.7390288,21.7254952 66.810147,21.9388498 L65.4584537,21.9388498 C65.4584537,21.5116933 65.3873355,21.084984 65.3873355,20.729393 C65.0317444,21.2272204 64.6757061,21.654377 64.1778786,21.8677316 C63.6796038,22.0810863 63.1817764,22.2233227 62.5412652,22.2233227 C62.1856741,22.2233227 61.8296358,22.1522045 61.4740447,22.0810863 C61.1184537,22.0099681 60.8335335,21.7966134 60.5490607,21.654377 C60.2645879,21.4405751 60.1223514,21.2272204 59.9085495,20.8716294 C59.7663131,20.5871565 59.6951949,20.2311182 59.6951949,19.8044089 C59.6951949,19.3061342 59.8374313,18.8083067 60.0512332,18.5233866 C60.2645879,18.2389137 60.6201789,17.8833227 60.97577,17.6699681 C61.4029265,17.4561661 61.8296358,17.3139297 62.3990288,17.1716933 C62.9679744,17.1005751 63.5373674,17.0294569 64.1067604,17.0294569 L65.245099,17.0294569 L65.245099,16.6738658 C65.245099,16.4600639 65.1739808,16.2467093 65.1028626,16.0333546 C65.0317444,15.82 64.8890607,15.6777636 64.7468243,15.4639617 C64.6045879,15.3217252 64.3912332,15.1794888 64.1778786,15.0372524 C63.9640767,14.9661342 63.6796038,14.895016 63.3240128,14.895016 C63.0395399,14.895016 62.7546198,14.895016 62.5412652,14.9661342 C62.3279105,15.0372524 62.1145559,15.1083706 61.900754,15.1794888 C61.6873994,15.250607 61.5451629,15.3928435 61.4029265,15.4639617 C61.2606901,15.6061981 61.1184537,15.6777636 60.97577,15.82 L60.1223514,14.895016 Z" id="Fill-5" fill="#FFFFFF" sketch:type="MSShapeGroup"></path>
                <path d="M68.9448115,13.8987796 L70.5103067,13.8987796 L70.5103067,15.1793546 C70.5814249,14.966 70.7236613,14.7526454 70.937016,14.6104089 C71.0792524,14.4681725 71.292607,14.2543706 71.5064089,14.1832524 C71.7197636,14.041016 71.9331182,13.9698978 72.2175911,13.8987796 C72.5025112,13.8276613 72.7158658,13.7565431 73.0003387,13.7565431 C73.2848115,13.7565431 73.4986134,13.7565431 73.7119681,13.8276613 L73.6408498,15.4642748 C73.4986134,15.4642748 73.3559297,15.3931565 73.2848115,15.3931565 L72.9292204,15.3931565 C72.1464728,15.3931565 71.5775272,15.6065112 71.2214888,16.0332204 C70.8658978,16.460377 70.6525431,17.1004409 70.6525431,18.0254249 L70.6525431,22.0809521 L69.0870479,22.0809521 L69.0870479,13.8987796 L68.9448115,13.8987796 Z" id="Fill-7" fill="#FFFFFF" sketch:type="MSShapeGroup"></path>
                <path d="M79.6174185,15.1794888 L77.4118594,15.1794888 L77.4118594,18.8794249 L77.4118594,19.5194888 C77.4118594,19.7332907 77.4829776,19.9466454 77.5540958,20.0888818 C77.6252141,20.2311182 77.7674505,20.3733546 77.9096869,20.5155911 C78.0519233,20.6582748 78.2657252,20.6582748 78.5501981,20.6582748 C78.7635527,20.6582748 78.9057891,20.6582748 79.1191438,20.5867093 C79.3329457,20.5867093 79.4751821,20.5155911 79.6174185,20.3733546 L79.6174185,21.7966134 C79.4040639,21.8677316 79.1907093,21.9388498 78.9057891,22.0099681 C78.6213163,22.0810863 78.4079617,22.0810863 78.2657252,22.0810863 C77.6963323,22.0810863 77.1985048,22.0099681 76.9135847,21.8677316 C76.5579936,21.7254952 76.344639,21.5116933 76.2024026,21.2272204 C76.0597188,20.9427476 75.9886006,20.6582748 75.9174824,20.3733546 C75.9174824,20.0177636 75.8463642,19.7332907 75.8463642,19.3772524 L75.8463642,15.1794888 L74.0675144,15.1794888 L74.0675144,13.8989137 L75.8463642,13.8989137 L75.8463642,11.6217891 L77.4118594,11.6217891 L77.4118594,13.8989137 L79.6174185,13.8989137 L79.6174185,15.1794888 Z" id="Fill-9" fill="#FFFFFF" sketch:type="MSShapeGroup"></path>
                <path d="M88.7246645,21.9388051 L87.1591693,21.9388051 L87.1591693,20.65823 C86.9458147,21.0849393 86.6613419,21.4405304 86.1630671,21.7254505 C85.6652396,22.0099233 85.1669649,22.1521597 84.526901,22.1521597 C84.0997444,22.1521597 83.7441534,22.0810415 83.3885623,21.9388051 C83.032524,21.7965687 82.7480511,21.6543323 82.4635783,21.3694121 C82.1786581,21.0849393 81.9653035,20.8004665 81.8230671,20.3733099 C81.6808307,19.9466006 81.6097125,19.5198914 81.6097125,18.9504984 L81.6097125,13.898869 L83.1747604,13.898869 L83.1747604,18.6660256 C83.1747604,19.0216166 83.2458786,19.3772077 83.3169968,19.6621278 C83.3885623,19.9466006 83.5307987,20.1599553 83.7441534,20.3021917 C83.8863898,20.4444281 84.0997444,20.5871118 84.3135463,20.65823 C84.526901,20.7293482 84.7402556,20.8004665 85.0247284,20.8004665 C85.3096486,20.8004665 85.6652396,20.7293482 85.8785942,20.65823 C86.1630671,20.5871118 86.376869,20.3733099 86.5902236,20.1599553 C86.8035783,19.9466006 86.9458147,19.6621278 87.0880511,19.3060895 C87.2302875,18.9504984 87.2302875,18.5949073 87.2302875,18.0966326 L87.2302875,13.898869 L88.7957827,13.898869 L88.7957827,21.9388051 L88.7246645,21.9388051 Z" id="Fill-11" fill="#FFFFFF" sketch:type="MSShapeGroup"></path>
                <path d="M95.2705367,15.1083259 C94.8438275,15.1083259 94.4877891,15.1794441 94.1321981,15.3216805 C93.7761597,15.4639169 93.4916869,15.6777188 93.2783323,15.8910735 C93.0649776,16.1044281 92.851623,16.4600192 92.7800575,16.7449393 C92.6378211,17.1005304 92.5667029,17.4561214 92.5667029,17.883278 C92.5667029,18.3099872 92.6378211,18.6660256 92.7800575,19.0216166 C92.9227412,19.3772077 93.0649776,19.6621278 93.2783323,19.8754824 C93.4916869,20.0888371 93.7761597,20.3021917 94.1321981,20.4444281 C94.4877891,20.5871118 94.8438275,20.65823 95.2705367,20.65823 C95.697246,20.65823 96.0532843,20.5871118 96.4088754,20.4444281 C96.7649137,20.3021917 97.0493866,20.0888371 97.2627412,19.8754824 C97.4760958,19.6621278 97.6894505,19.3060895 97.761016,19.0216166 C97.9032524,18.6660256 97.9743706,18.3099872 97.9743706,17.883278 C97.9743706,17.4561214 97.9032524,17.1005304 97.761016,16.7449393 C97.6183323,16.388901 97.4760958,16.1044281 97.2627412,15.8910735 C97.0493866,15.6777188 96.7649137,15.4639169 96.4088754,15.3216805 C96.0532843,15.1794441 95.697246,15.1083259 95.2705367,15.1083259 L95.2705367,15.1083259 Z M91.0727732,13.898869 L92.6378211,13.898869 L92.6378211,15.0372077 C92.9227412,14.6104984 93.3494505,14.2544601 93.8477252,14.0411054 C94.3455527,13.8277508 94.9149457,13.6855144 95.4127732,13.6855144 C96.0532843,13.6855144 96.62223,13.8277508 97.1205048,14.0411054 C97.6183323,14.2544601 98.0454888,14.5389329 98.4010799,14.9660895 C98.7571182,15.3216805 99.0415911,15.8199553 99.2549457,16.3177827 C99.4683003,16.8160575 99.5394185,17.3850032 99.5394185,17.9543962 C99.5394185,18.5233419 99.4683003,19.0927348 99.2549457,19.6621278 C99.0415911,20.1599553 98.7571182,20.65823 98.4010799,21.0138211 C98.0454888,21.3694121 97.6183323,21.7254505 97.1205048,21.9388051 C96.62223,22.1521597 96.0532843,22.2943962 95.4127732,22.2943962 C94.8438275,22.2943962 94.2744345,22.1521597 93.7761597,21.9388051 C93.2783323,21.7254505 92.851623,21.3694121 92.5667029,20.9427029 L92.5667029,26.9193163 L91.0727732,26.9193163 L91.0727732,13.898869 Z" id="Fill-13" fill="#FFFFFF" sketch:type="MSShapeGroup"></path>
                <path d="M109.917891,20.0177188 C110.558403,20.0177188 111.198466,19.9466006 111.838978,19.8043642 C112.408371,19.6621278 112.977316,19.3772077 113.404473,19.0927348 C113.831182,18.808262 114.186773,18.3811054 114.471693,17.8121597 C114.756166,17.313885 114.827284,16.6738211 114.827284,15.8910735 C114.827284,15.1794441 114.685048,14.5389329 114.471693,14.0411054 C114.257891,13.5428307 113.9023,13.1161214 113.546709,12.7605304 C113.190671,12.404492 112.692843,12.1911374 112.12345,12.048901 C111.554505,11.9066645 110.985112,11.8355463 110.273482,11.8355463 L108.352396,11.8355463 L108.352396,20.0177188 L109.917891,20.0177188 Z M106.146837,9.91446006 L110.913994,9.91446006 C111.696741,9.91446006 112.479489,10.0566965 113.190671,10.2700511 C113.9023,10.4834058 114.61393,10.9105623 115.182875,11.4083898 C115.752268,11.9066645 116.178978,12.5467284 116.535016,13.329476 C116.890607,14.1122236 117.032843,14.9660895 117.032843,16.0333099 C117.032843,17.1005304 116.819489,17.9543962 116.463898,18.7371438 C116.036741,19.5198914 115.538914,20.0888371 114.969521,20.5871118 C114.32901,21.0849393 113.688946,21.4405304 112.906198,21.7254505 C112.12345,21.9388051 111.411821,22.0810415 110.700639,22.0810415 L106.217955,22.0810415 L106.217955,9.91446006 L106.146837,9.91446006 Z" id="Fill-15" fill="#FFFFFF" sketch:type="MSShapeGroup"></path>
                <path d="M119.167419,9.91437061 L127.207355,9.91437061 L127.207355,11.8354569 L121.372978,11.8354569 L121.372978,14.8237636 L126.922882,14.8237636 L126.922882,16.7448498 L121.372978,16.7448498 L121.372978,20.0176294 L127.563393,20.0176294 L127.563393,21.9387157 L119.238537,21.9387157 L119.238537,9.91437061 L119.167419,9.91437061 Z" id="Fill-17" fill="#FFFFFF" sketch:type="MSShapeGroup"></path>
                <g id="Group-21">
                    <mask id="mask-2" sketch:name="Clip 20" fill="white">
                        <use xlink:href="#path-1"></use>
                    </mask>
                    <g id="Clip-20"></g>
                    <path d="M128.132428,9.91437061 L130.622907,9.91437061 L133.895687,19.0215272 L137.310703,9.91437061 L139.658946,9.91437061 L134.749553,22.0098339 L132.899585,22.0098339 L128.132428,9.91437061 Z" id="Fill-19" fill="#FFFFFF" sketch:type="MSShapeGroup" mask="url(#mask-2)"></path>
                </g>
                <path d="M17.2184345,11.8354121 C17.6898722,11.8354121 18.0723003,12.2178403 18.0723003,12.689278 C18.0723003,13.1607157 17.6898722,13.5431438 17.2184345,13.5431438 C16.7469968,13.5431438 16.3645687,13.1607157 16.3645687,12.689278 C16.3645687,12.2178403 16.7469968,11.8354121 17.2184345,11.8354121" id="Fill-22" fill="#FFFFFF" sketch:type="MSShapeGroup"></path>
                <g id="Group-26">
                    <mask id="mask-4" sketch:name="Clip 25" fill="white">
                        <use xlink:href="#path-3"></use>
                    </mask>
                    <g id="Clip-25"></g>
                    <path d="M25.1872971,26.1366581 C25.0450607,26.1366581 24.8317061,26.1366581 24.6894696,26.0655399 L25.4006518,27.5594696 L23.906722,27.6305879 L17.0762428,17.5273291 L10.2457636,27.6305879 L8.75138658,27.5594696 L13.9456997,15.9622812 C14.5857636,16.3178722 15.7952204,16.602345 17.0762428,16.602345 C18.4279361,16.602345 19.5662748,16.3178722 20.2067859,15.9622812 L23.6218019,23.5750607 C23.906722,23.006115 24.4756677,22.5789585 25.1872971,22.5789585 C26.1833994,22.5789585 26.966147,23.3617061 26.966147,24.3578083 C26.966147,25.3539105 26.1122812,26.1366581 25.1872971,26.1366581 L25.1872971,26.1366581 Z M14.7991182,14.1834313 L14.7991182,13.3295655 L14.7991182,11.337361 C14.7991182,10.2701406 15.5107476,9.41627476 16.5068498,9.13180192 L16.5068498,6.57020447 L17.5029521,6.57020447 L17.5029521,9.20292013 C18.4990543,9.41627476 19.2106837,10.3412588 19.2106837,11.4084792 L19.2106837,13.4006837 L19.2106837,14.2545495 L19.2106837,14.752377 C18.6412907,14.9661789 17.8589904,15.1084153 17.0051246,15.1084153 C16.0801406,15.1084153 15.297393,14.9661789 14.7991182,14.752377 L14.7991182,14.1834313 Z M32.5156038,8.77576358 L26.1122812,2.37244089 L17.4318339,0.0241980831 L8.68026837,2.37244089 L2.27694569,8.77576358 L-0.000178913738,17.4562109 L2.3480639,26.1366581 L8.75138658,32.5399808 L17.4318339,34.8882236 L26.1122812,32.5399808 L32.5156038,26.1366581 L34.8638466,17.4562109 L32.5156038,8.77576358 Z" id="Fill-24" fill="#FFFFFF" sketch:type="MSShapeGroup" mask="url(#mask-4)"></path>
                </g>
            </g>
        </g>
    </g>
</svg>