<svg xmlns="http://www.w3.org/2000/svg" viewBox="0 0 227 125" xmlns:xlink="http://www.w3.org/1999/xlink">
  <defs>
    <path id="a" d="M2.576 24.084c0 .507.008 1.01.02 1.51l-.02-.14S-.038 27.694.958 31.18c.996 3.484 2.01 6.62 3.494 7.354v-.007C7.862 50.777 15.68 59 25.727 59c10.05 0 17.864-8.222 21.278-20.472v.007c1.484-.734 2.498-3.87 3.493-7.356.995-3.49-1.618-5.73-1.618-5.73l-.02.14c.012-.5.02-1 .02-1.51C48.882 11.3 38.515.93 25.728.93 12.942.93 2.576 11.298 2.576 24.085z"/>
    <path id="c" d="M.576 24.083c0 .458.008.912.02 1.365.19-.06 3.086-.992 3.78-3.23.98-3.164 4.054-11.325 9.088-10.208 4.137.918 6.12 3.298 10.264 3.298 4.144 0 6.128-2.38 10.266-3.298 5.033-1.117 8.106 7.044 9.087 10.207.7 2.24 3.6 3.17 3.79 3.23.01-.452.02-.906.02-1.364 0-12.786-10.37-23.15-23.15-23.15C10.94.933.58 11.296.58 24.083z"/>
    <path id="e" d="M.994.865c0 .243 1.303.828 2.91.828 1.607 0 2.91-.585 2.91-.828 0-.093-.193-.12-.523-.12-.52 0-1.39.072-2.38.072S2.05.744 1.52.744c-.33 0-.52.028-.52.12z"/>
    <path id="g" d="M22.502 5.047h-.127c-.098 3.398-4.403 6.474-9.704 6.474-5.3 0-9.6-3.07-9.7-6.47V.28C2.1.344 1.24.422.42.51v7.936H.304c.013 0 .114.224.114.25V18.7l7.056-4.414c1.6.516 3.347.804 5.213.804 1.772 0 3.864-.256 5.588-.724l7.197 4.334V.518c-1.03-.093-2.012-.174-2.97-.245v4.774z"/>
    <path id="i" d="M10.728 3C7.16 3 3.875 1.958.968.072v15.976H.965c.098 3.397 4.404 6.473 9.705 6.473 5.302 0 9.607-3.07 9.705-6.47h.127V.07C17.592 1.958 14.302 3 10.728 3z"/>
    <path id="k" d="M9.336 10.21C2.366 17.304.126 39.87 0 47.94h97.217c-.125-8.068-2.304-30.655-9.274-37.75C82.593 4.743 72.46 1.82 61.475.615V18.7l-7.197-4.334c-1.724.468-3.816.724-5.59.724-1.865 0-3.612-.288-5.212-.804L36.42 18.7V8.695c0-.026-.102-.25-.115-.25h.114V.553C25.16 1.72 14.78 4.66 9.33 10.21z"/>
    <path id="m" d="M3.036.25C1.43.25.126.055.126.297s1.303.828 2.91.828c1.607 0 2.91-.586 2.91-.828 0-.093-.194-.122-.525-.122-.52 0-1.39.073-2.38.073z"/>
    <path id="o" d="M23.588.364S10.352.078 1.598 2.958c0 0-2.396 10.466-.87 21.922.19-.06 3.087-.992 3.78-3.23.983-3.163 4.055-11.325 9.088-10.208 4.137.918 6.122 3.298 10.265 3.298 4.15 0 6.13-2.38 10.27-3.298 5.04-1.117 8.11 7.045 9.09 10.207.5 1.61 2.15 2.55 3.1 2.96l.14.26.03-.2c.28.11.48.18.52.19.01-.46.02-.91.02-1.37 0-.95-.06-1.88-.17-2.8.57-9.7-1.27-17.75-1.27-17.75C38.28.55 27.85.35 24.6.35c-.645 0-1.007.01-1.007.01z"/>
    <path id="q" d="M14.86 5.81C9.03 5.81 3.753 3.546.57.306V13.48h.076c.143 3.397 6.42 6.473 14.148 6.473 7.727 0 14.005-3.076 14.148-6.473h.083V.205C25.907 3.495 20.75 5.81 14.86 5.81z"/>
    <path id="s" d="M34.63 9.796c-.76.457-1.745.103-2.053-.73-1.665-4.502-5.452-5.203-10.99-5.203-5.433 0-9.182.675-10.893 4.956-.33.82-1.322 1.16-2.072.68C2.672 5.7.944.18.944.18c0 2.45 2.134 12.313 4.81 16.8 2.643 4.43 8.962 7.828 16.108 7.828 7.145 0 13.218-3.4 15.87-7.827C40.626 12.15 42.78 2.63 42.78.18c0 0-1.822 5.81-8.15 9.615zM17.435 12.71c-2.24-.336-3.206-3.006-1.692-4.693 1.3-1.448 3.165-2.51 5.844-2.51 2.792 0 4.7 1.155 6.006 2.697 1.428 1.687.368 4.292-1.823 4.58-1.22.16-2.52.245-3.908.245-1.586 0-3.06-.12-4.426-.32z"/>
    <path id="u" d="M36.126.442C31.99 1.36 30.004 3.74 25.86 3.74c-4.142 0-6.127-2.38-10.264-3.298C10.563-.674 7.49 7.487 6.51 10.65c-.695 2.238-3.594 3.17-3.783 3.23 0 .048 0 .098.002.146l-.03-.14s-2.61 2.24-1.62 5.724c.99 3.485 2.01 6.622 3.49 7.356v-.008c.13.467.25.928.36 1.384v-.162s1.73 5.518 7.68 9.322c.75.48 1.74.14 2.07-.685 1.71-4.282 5.46-4.957 10.89-4.957 5.53 0 9.32.7 10.99 5.204.3.832 1.29 1.186 2.05.73 6.33-3.807 8.15-9.615 8.15-9.615v.15c.11-.45.23-.91.36-1.38v.01c1.48-.74 2.5-3.87 3.49-7.36 1-3.49-1.62-5.73-1.62-5.73l-.02.14c0-.26 0-.51.01-.77-.01.2-.01.41-.01.62-.05-.02-.24-.08-.52-.2l-.03.19-.13-.27c-.95-.42-2.6-1.35-3.1-2.97C44.28 7.67 41.53.32 37.05.32c-.306 0-.615.04-.93.11z"/>
    <path id="w" d="M9.468 9.576C2.498 16.67.258 39.51.133 47.268H97.35c-.125-7.757-2.304-30.604-9.275-37.7-5.12-5.21-14.617-8.1-25.05-9.388v4.3h-.083c-.143 3.397-6.42 6.473-14.148 6.473S34.79 7.877 34.646 4.48h-.077V.174C24.09 1.46 14.59 4.354 9.46 9.576z"/>
    <path id="y" d="M1.81 1V.856C1.554.632 1.282.404.993.176c.303.284.573.564.815.825z"/>
    <path id="A" d="M.15 1.04c0 .242 1.302.828 2.91.828 1.606 0 2.908-.586 2.908-.828 0-.094-.192-.122-.522-.122C4.92.918 4.048.99 3.06.99 2.07.99 1.197.92.67.92c-.328 0-.52.03-.52.122z"/>
    <path id="C" d="M9.49 10.466C2.52 17.56.28 36.356.156 44h97.217c-.125-7.644-2.303-26.475-9.274-33.57C82.27 4.494 70.76 1.534 58.66.543v1.294c.67.602 4.624 4.675 3.626 16.513-.388-.446-.88-.96-1.476-1.493V17l-.5 2.845-7.154 23.917h-8.66l-7.154-23.917-.15-.858L36.845 17c-.967 1.05-1.437 1.835-1.437 1.835-1.252-13.32 3.683-17.08 3.683-17.08h.04V.532C26.92 1.517 15.36 4.5 9.5 10.465z"/>
    <path id="E" d="M11.978 13.925c-4.46 3.11-7.412 4.218-9.227 4.564 0 .25-.02.51-.02.76 0 .5.01 1.01.02 1.51l-.02-.14s-2.61 2.24-1.61 5.72c1 3.48 2.01 6.62 3.5 7.35v-.01c3.41 12.26 11.22 20.49 21.27 20.49 10.05 0 17.87-8.23 21.28-20.48v.01c1.49-.74 2.5-3.87 3.5-7.36s-1.62-5.73-1.62-5.73l-.02.14c.01-.43.02-.87.02-1.3-4.71.11-13.16-.48-20.07-5.19-6.14-4.19-8.44-9.95-9.31-13.85-.72 4.2-2.64 9.97-7.69 13.49z"/>
    <path id="G" d="M36.06.71S20.92-.23 13.164 14.345C5.407 28.915.002 65.112.002 65.112s11.502 3.325 26.12 4.518V58.246c-5.28-3.424-9.314-9.644-11.516-17.544v.008c-1.484-.735-2.497-3.872-3.493-7.357-.996-3.486 1.62-5.726 1.62-5.726l.018.142c-.01-.51-.01-1.01-.01-1.52 0-.26.01-.52.02-.77 1.82-.35 4.77-1.45 9.23-4.57 5.05-3.52 6.97-9.3 7.69-13.5.87 3.9 3.17 9.66 9.31 13.84 6.91 4.71 15.36 5.3 20.07 5.19 0 .43 0 .87-.01 1.3l.02-.15s2.61 2.24 1.62 5.72c-1 3.48-2.01 6.62-3.5 7.35l.01-.01c-2.2 7.895-6.23 14.11-11.5 17.54v11.42c14.78-1.166 26.46-4.54 26.46-4.54S66.73 28.9 58.97 14.33C52.088 1.433 39.42.7 36.62.7c-.36 0-.558.01-.558.01z"/>
    <path id="I" d="M4.09.754S-.843 4.514.41 17.834c0 0 .47-.785 1.436-1.833l.348 1.99.15.86L9.5 42.77h8.66l7.153-23.917.5-2.844v-.15c.596.53 1.087 1.04 1.475 1.49.995-11.84-2.958-15.91-3.63-16.52v3.51h-.128c-.098 3.82-4.403 6.47-9.704 6.47-5.3 0-9.607-2.65-9.705-6.47h.01V.75H4.1z"/>
  </defs>
  <g fill="none" fill-rule="evenodd">
    <g transform="translate(25 .07)">
      <mask id="b" fill="#fff">
        <use xlink:href="#a"/>
      </mask>
      <path fill="#f2ebeb" d="M-4.268 64h59.994V-4.07H-4.268" mask="url(#b)"/>
    </g>
    <path stroke="#373232" stroke-width="2" d="M73.88 25.522l-.02.14c.013-.5.02-1.003.02-1.51C73.88 11.367 63.516 1 50.73 1S27.576 11.366 27.576 24.153c0 .506.008 1.01.02 1.51l-.02-.14s-2.614 2.24-1.618 5.725c.995 3.485 2.01 6.622 3.494 7.357v-.008c3.412 12.25 11.227 20.47 21.276 20.47 10.05 0 17.864-8.22 21.278-20.47v.008c1.484-.735 2.498-3.872 3.493-7.357.99-3.485-1.62-5.726-1.62-5.726z"/>
    <g transform="translate(27 .07)">
      <mask id="d" fill="#fff">
        <use xlink:href="#c"/>
      </mask>
      <path fill="#f2ebeb" d="M-4.424 30.447h56.306V-4.07H-4.424" mask="url(#d)"/>
    </g>
    <path stroke="#373232" stroke-width="2" d="M31.377 22.286c.98-3.162 4.054-11.324 9.087-10.207 4.137.91 6.122 3.29 10.265 3.29 4.14 0 6.12-2.38 10.26-3.3 5.03-1.12 8.1 7.04 9.08 10.21.69 2.24 3.59 3.17 3.78 3.23.01-.45.02-.91.02-1.37C73.88 11.36 63.51 1 50.72 1 37.938 1 27.57 11.367 27.57 24.154c0 .458.01.91.02 1.364.19-.06 3.09-.992 3.78-3.23z"/>
    <g transform="translate(47 41.07)">
      <mask id="f" fill="#fff">
        <use xlink:href="#e"/>
      </mask>
      <path fill="#f2ebeb" d="M-4.006 6.694h15.82v-10.95h-15.82" mask="url(#f)"/>
    </g>
    <path stroke="#373232" stroke-width="2" d="M53.814 41.935c0 .242-1.303.828-2.91.828-1.607 0-2.91-.586-2.91-.828s1.303-.05 2.91-.05c1.607 0 2.91-.192 2.91.05z"/>
    <g transform="translate(38 67.07)">
      <mask id="h" fill="#fff">
        <use xlink:href="#g"/>
      </mask>
      <path fill="#f2ebeb" d="M-4.695 23.7h35.17V-4.728h-35.17" mask="url(#h)"/>
    </g>
    <path stroke="#373232" stroke-width="2" d="M60.502 67.343v4.773h-.127c-.1 3.397-4.404 6.474-9.705 6.474-5.3 0-9.605-3.077-9.703-6.474v-4.77c-.875.07-1.733.145-2.548.234l-.01 4.373v3.56h-.11c.01 0 .11.224.11.25V85.77l7.06-4.412c1.59.516 3.34.803 5.21.803 1.77 0 3.86-.25 5.59-.72l7.19 4.34V67.59c-1.03-.093-2.02-.174-2.98-.245z"/>
    <g transform="translate(40 56.07)">
      <mask id="j" fill="#fff">
        <use xlink:href="#i"/>
      </mask>
      <path fill="#f2ebeb" d="M-4.034 27.52h29.536V-4.936H-4.034" mask="url(#j)"/>
    </g>
    <path stroke="#373232" stroke-width="2" d="M50.73 59.07c-3.57 0-6.855-1.042-9.763-2.928v15.975c.097 3.398 4.403 6.473 9.704 6.473 5.31 0 9.61-3.075 9.71-6.473h.13V56.134c-2.91 1.89-6.2 2.935-9.77 2.935z"/>
    <g transform="translate(2 67.07)">
      <mask id="l" fill="#fff">
        <use xlink:href="#k"/>
      </mask>
      <path fill="#f2ebeb" d="M-5 52.94h107.217V-4.445H-5" mask="url(#l)"/>
    </g>
    <path stroke="#373232" stroke-width="2" d="M89.943 77.26c-5.35-5.448-15.482-8.372-26.468-9.576V85.77l-7.197-4.335c-1.724.468-3.817.724-5.59.724-1.865 0-3.612-.29-5.212-.81l-7.056 4.42V75.76c0-.026-.102-.25-.115-.25h.114v-7.89c-11.26 1.17-21.64 4.11-27.09 9.66-6.97 7.093-9.21 29.66-9.34 37.73h97.22c-.13-8.07-2.3-30.656-9.28-37.75z"/>
    <g transform="translate(174 42.07)">
      <mask id="n" fill="#fff">
        <use xlink:href="#m"/>
      </mask>
      <path fill="#f2ebeb" d="M-4.873 6.126h15.82v-10.95h-15.82" mask="url(#n)"/>
    </g>
    <path stroke="#373232" stroke-width="2" d="M179.946 42.367c0 .242-1.303.828-2.91.828-1.607 0-2.91-.586-2.91-.828s1.303-.05 2.91-.05c1.607 0 2.91-.192 2.91.05z"/>
    <g transform="translate(153 1.07)">
      <mask id="p" fill="#fff">
        <use xlink:href="#o"/>
      </mask>
      <path fill="#f2ebeb" d="M-4.78 29.88h56.794V-4.644H-4.78" mask="url(#p)"/>
    </g>
    <path stroke="#373232" stroke-width="2" d="M199.845 21.786c.575-9.708-1.267-17.76-1.267-17.76-8.754-2.88-21.99-2.593-21.99-2.593s-13.236-.286-21.99 2.594c0 0-2.396 10.466-.87 21.922.19-.06 3.087-1 3.78-3.24.983-3.16 4.055-11.33 9.088-10.21 4.138.92 6.122 3.3 10.265 3.3 4.15 0 6.13-2.38 10.27-3.3 5.04-1.12 8.11 7.04 9.09 10.2.5 1.61 2.15 2.55 3.1 2.97l.14.26.03-.19c.28.11.48.18.52.19.01-.46.02-.91.02-1.37 0-.95-.06-1.88-.17-2.8z"/>
    <g transform="translate(162 59.07)">
      <mask id="r" fill="#fff">
        <use xlink:href="#q"/>
      </mask>
      <path fill="#f2ebeb" d="M-4.43 24.952h38.454V-4.796H-4.43" mask="url(#r)"/>
    </g>
    <path stroke="#373232" stroke-width="2" d="M176.862 64.88c-5.83 0-11.11-2.265-14.292-5.505V72.55h.076c.144 3.397 6.42 6.472 14.148 6.472s14.005-3.075 14.148-6.473h.082V59.27c-3.116 3.29-8.272 5.605-14.162 5.605z"/>
    <g transform="translate(155 40.07)">
      <mask id="t" fill="#fff">
        <use xlink:href="#s"/>
      </mask>
      <path fill="#f2ebeb" d="M-4.057 29.81H47.78V-4.82H-4.057" mask="url(#t)"/>
    </g>
    <path stroke="#373232" stroke-width="2" d="M172.436 52.78c-2.24-.337-3.206-3.008-1.692-4.694 1.3-1.447 3.166-2.51 5.844-2.51 2.792 0 4.7 1.154 6.007 2.697 1.426 1.686.366 4.292-1.824 4.578-1.21.16-2.52.25-3.9.25-1.58 0-3.06-.11-4.42-.32zm17.193-2.915c-.76.457-1.75.103-2.06-.73-1.67-4.502-5.45-5.203-10.99-5.203-5.44 0-9.18.674-10.9 4.956-.33.826-1.32 1.163-2.07.684-5.95-3.803-7.68-9.322-7.68-9.322 0 2.452 2.13 12.315 4.81 16.8 2.64 4.43 8.96 7.83 16.1 7.83s13.22-3.403 15.87-7.83c2.89-4.833 5.05-14.348 5.05-16.8 0 0-1.82 5.81-8.15 9.615z"/>
    <g transform="translate(151 12.07)">
      <mask id="v" fill="#fff">
        <use xlink:href="#u"/>
      </mask>
      <path fill="#f2ebeb" d="M-4.136 42.998h59.994v-47.66H-4.136" mask="url(#v)"/>
    </g>
    <path stroke="#373232" stroke-width="2" d="M200.014 25.954l-.02.142c.006-.255.006-.512.01-.768-.003.207-.004.415-.008.62-.045-.014-.24-.076-.522-.192-.01.064-.016.128-.025.192l-.14-.262c-.95-.416-2.6-1.352-3.1-2.968-.98-3.163-4.06-11.323-9.09-10.207-4.14.92-6.12 3.3-10.27 3.3-4.15 0-6.13-2.38-10.27-3.3-5.04-1.11-8.11 7.05-9.09 10.21-.7 2.24-3.6 3.17-3.79 3.23v.15l-.02-.14s-2.62 2.24-1.62 5.73c.99 3.49 2.01 6.63 3.49 7.36v-.01c.13.47.25.93.36 1.39-.01-.05-.01-.11-.01-.16 0 0 1.73 5.52 7.68 9.33.75.48 1.74.14 2.07-.68 1.71-4.28 5.46-4.95 10.89-4.95 5.54 0 9.33.7 10.99 5.21.31.84 1.29 1.19 2.05.73 6.33-3.8 8.15-9.61 8.15-9.61v.15c.11-.45.23-.903.36-1.37v.01c1.485-.73 2.5-3.87 3.494-7.352.997-3.483-1.62-5.724-1.62-5.724z"/>
    <g transform="translate(128 68.07)">
      <mask id="x" fill="#fff">
        <use xlink:href="#w"/>
      </mask>
      <path fill="#f2ebeb" d="M-4.868 52.268H102.35V-4.825H-4.87" mask="url(#x)"/>
    </g>
    <path stroke="#373232" stroke-width="2" d="M216.075 77.638c-5.12-5.212-14.617-8.102-25.05-9.39v4.3h-.084c-.14 3.398-6.42 6.474-14.14 6.474-7.73 0-14-3.076-14.15-6.473h-.07v-4.31c-10.48 1.28-19.97 4.18-25.1 9.4-6.97 7.09-9.21 29.93-9.33 37.69h97.22c-.12-7.76-2.3-30.61-9.27-37.7z"/>
    <g transform="translate(122 95.07)">
      <mask id="z" fill="#fff">
        <use xlink:href="#y"/>
      </mask>
      <path fill="#f2ebeb" d="M-4.006 6H6.81V-4.823H-4.007" mask="url(#z)"/>
    </g>
    <path stroke="#373232" stroke-width="2" d="M123.81 95.927v.143c-.243-.26-.513-.54-.816-.825.288.228.56.456.815.682z"/>
    <g transform="translate(109 53.07)">
      <mask id="B" fill="#fff">
        <use xlink:href="#A"/>
      </mask>
      <path fill="#f2ebeb" d="M-4.85 6.868h15.82v-10.95H-4.85" mask="url(#B)"/>
    </g>
    <path stroke="#373232" stroke-width="2" d="M114.97 54.11c0 .24-1.304.827-2.91.827-1.608 0-2.91-.586-2.91-.828 0-.25 1.302-.05 2.91-.05 1.606 0 2.91-.2 2.91.05z"/>
    <g transform="translate(63 79.07)">
      <mask id="D" fill="#fff">
        <use xlink:href="#C"/>
      </mask>
      <path fill="#f2ebeb" d="M-4.845 49h107.217V-4.467H-4.845" mask="url(#D)"/>
    </g>
    <path stroke="#373232" stroke-width="2" d="M151.098 89.5c-5.83-5.936-17.337-8.896-29.44-9.888v1.295c.67.602 4.625 4.674 3.627 16.512-.388-.45-.88-.97-1.476-1.5v.14l-.5 2.84-7.16 23.91h-8.66l-7.16-23.91-.15-.86-.35-1.99c-.96 1.05-1.43 1.84-1.43 1.84-1.26-13.32 3.68-17.08 3.68-17.08h.03V79.6c-12.22.985-23.77 3.968-29.63 9.933-6.97 7.095-9.21 25.89-9.34 33.534h97.21c-.13-7.645-2.3-26.476-9.28-33.57z"/>
    <g transform="translate(86 17.07)">
      <mask id="F" fill="#fff">
        <use xlink:href="#E"/>
      </mask>
      <path fill="#f2ebeb" d="M-4.113 59.174H55.88V-4.57H-4.112" mask="url(#F)"/>
    </g>
    <path stroke="#373232" stroke-width="2" d="M135.036 37.696l-.02.14c.012-.43.016-.864.018-1.3-4.707.11-13.16-.476-20.065-5.19-6.14-4.188-8.45-9.944-9.31-13.848-.72 4.2-2.64 9.975-7.69 13.496-4.46 3.11-7.41 4.218-9.23 4.564-.01.256-.02.51-.02.77 0 .505 0 1.01.02 1.51l-.02-.142s-2.62 2.24-1.62 5.726c.99 3.485 2.01 6.622 3.49 7.357v-.01c3.41 12.25 11.23 20.47 21.27 20.47 10.05 0 17.86-8.22 21.28-20.47 1.48-.74 2.5-3.88 3.49-7.36.99-3.49-1.62-5.73-1.62-5.73z"/>
    <g transform="translate(76 10.07)">
      <mask id="H" fill="#fff">
        <use xlink:href="#G"/>
      </mask>
      <path fill="#f2ebeb" d="M-4.998 74.657h82.115V-4.3H-4.998" mask="url(#H)"/>
    </g>
    <path stroke="#373232" stroke-width="2" d="M102.122 68.315c-5.28-3.425-9.315-9.644-11.516-17.544v.01c-1.484-.73-2.497-3.87-3.493-7.35-.996-3.48 1.618-5.72 1.618-5.72l.02.14c-.01-.5-.02-1-.02-1.51 0-.26.02-.51.02-.77 1.82-.34 4.77-1.45 9.23-4.56 5.05-3.52 6.97-9.29 7.69-13.49.87 3.9 3.17 9.66 9.31 13.85 6.91 4.72 15.36 5.3 20.07 5.19 0 .44 0 .87-.02 1.3l.02-.14s2.62 2.24 1.62 5.73c-.99 3.49-2.01 6.63-3.49 7.36l.01-.01c-2.2 7.9-6.23 14.11-11.5 17.54v11.41c14.78-1.16 26.46-4.54 26.46-4.54s-5.41-36.2-13.17-50.77c-7.76-14.58-22.9-13.64-22.9-13.64s-15.14-.94-22.9 13.63C81.42 39 76.02 75.19 76.02 75.19s11.5 3.325 26.12 4.52v-11.4z"/>
    <g transform="translate(98 80.07)">
      <mask id="J" fill="#fff">
        <use xlink:href="#I"/>
      </mask>
      <path fill="#f2ebeb" d="M-4.796 47.762h37.24V-4.246h-37.24" mask="url(#J)"/>
    </g>
    <path stroke="#373232" stroke-width="2" d="M121.658 80.906v3.516h-.127c-.09 3.822-4.4 6.473-9.7 6.473-5.3 0-9.6-2.65-9.7-6.473v-3.6h-.03s-4.93 3.76-3.68 17.08c0 0 .47-.784 1.44-1.832l.35 1.986.15.858 7.16 23.917h8.66l7.15-23.91.5-2.84v-.14c.6.53 1.09 1.05 1.48 1.49 1-11.84-2.95-15.91-3.63-16.51z"/>
  </g>
</svg>
