<svg xmlns="http://www.w3.org/2000/svg" width="83" height="63" viewBox="420 344 83 63" xmlns:xlink="http://www.w3.org/1999/xlink"><defs><path id="a" d="M11.794.182S5.176.04.8 1.48c-.003 0-1.2 5.23-.438 10.96.096-.03 1.544-.496 1.892-1.615.49-1.582 2.027-5.662 4.543-5.104 2.07.46 3.06 1.65 5.133 1.65 2.072 0 3.065-1.19 5.133-1.65 2.517-.55 4.053 3.53 4.543 5.11.25.81 1.075 1.28 1.55 1.49l.07.13.01-.09c.142.06.24.09.26.1.007-.22.01-.45.01-.68 0-.47-.03-.94-.084-1.4.288-4.85-.634-8.88-.634-8.88C19.136.3 13.922.2 12.298.2c-.323 0-.504.002-.504.002z"/><path id="c" d="M7.43 2.905C4.517 2.905 1.877 1.773.286.153V6.74h.038c.072 1.698 3.21 3.236 7.074 3.236S14.4 8.438 14.47 6.74h.042V.102c-1.56 1.646-4.136 2.803-7.082 2.803z"/><path id="e" d="M17.314 4.898c-.38.23-.872.05-1.026-.364-.832-2.252-2.726-2.603-5.494-2.603-2.717.01-4.592.34-5.447 2.48-.165.42-.66.59-1.036.35C1.34 2.85.48.1.48.1c0 1.22 1.067 6.15 2.405 8.4 1.32 2.21 4.48 3.91 8.054 3.91s6.61-1.7 7.93-3.917c1.44-2.41 2.52-7.17 2.52-8.4 0 0-.91 2.91-4.08 4.81zM8.718 6.355c-1.12-.168-1.603-1.503-.846-2.347.65-.724 1.582-1.254 2.922-1.254 1.396 0 2.35.577 3.003 1.348.714.843.184 2.146-.912 2.29-.61.08-1.26.122-1.954.122-.79 0-1.53-.056-2.21-.16z"/><path id="g" d="M18.063.22c-2.068.46-3.06 1.65-5.132 1.65C10.86 1.87 9.87.68 7.8.22 5.282-.336 3.745 3.744 3.255 5.326c-.347 1.12-1.797 1.584-1.89 1.614v.073l-.01-.07s-1.31 1.12-.81 2.863c.496 1.743 1.004 3.31 1.746 3.678v-.004c.07.233.13.464.18.692v-.08s.87 2.758 3.84 4.66c.38.24.87.07 1.04-.342.86-2.14 2.73-2.48 5.45-2.48 2.77.002 4.66.352 5.5 2.604.16.416.65.593 1.03.364 3.16-1.903 4.07-4.808 4.07-4.808v.08c.06-.22.12-.45.18-.68v.008c.74-.367 1.25-1.935 1.75-3.68.5-1.742-.8-2.862-.8-2.862l-.01.07v-.382.31c-.02-.005-.12-.04-.26-.095l-.01.09-.07-.13c-.474-.21-1.3-.68-1.55-1.49-.47-1.49-1.85-5.16-4.09-5.16-.15 0-.31.02-.47.05z"/><path id="i" d="M4.734 4.788C1.248 8.335.128 19.756.066 23.634h48.61c-.063-3.878-1.152-15.302-4.637-18.85C41.47 2.18 36.72.734 31.51.09v2.15h-.04c-.073 1.698-3.212 3.236-7.075 3.236-3.864 0-7.002-1.538-7.074-3.236h-.03V.087c-5.24.643-9.98 2.09-12.55 4.7z"/><path id="k" d="M.904.5V.427C.777.317.64.202.497.087.647.23.783.37.904.5z"/><path id="m" d="M.074.52c0 .12.652.414 1.456.414.803 0 1.454-.293 1.454-.414 0-.047-.096-.06-.26-.06-.264 0-.7.035-1.194.035S.6.46.335.46C.17.46.075.472.075.52z"/><path id="o" d="M4.745 5.233C1.26 8.78.14 18.178.077 22h48.61c-.064-3.822-1.15-13.238-4.638-16.785C41.13 2.247 35.38.767 29.33.27l-.002.648c.337.3 2.314 2.338 1.814 8.257-.194-.223-.44-.48-.738-.747v.074l-.248 1.422-3.578 11.96h-4.33L18.672 9.92l-.074-.43-.174-.992c-.483.525-.718.918-.718.918-.626-6.66 1.84-8.54 1.84-8.54h.017v-.61C13.453.76 7.677 2.25 4.747 5.232z"/><path id="q" d="M18.03.355s-7.57-.47-11.448 6.817C2.704 14.458.002 32.556.002 32.556s5.75 1.663 13.06 2.26v-5.693C10.42 27.41 8.402 24.3 7.3 20.35l.002.005c-.743-.367-1.25-1.936-1.748-3.678-.497-1.743.81-2.864.81-2.864l.01.07c-.006-.25-.01-.5-.01-.754 0-.13.005-.26.01-.39.907-.17 2.382-.73 4.613-2.28 2.524-1.77 3.48-4.65 3.842-6.75.43 1.95 1.58 4.83 4.65 6.92 3.45 2.35 7.68 2.65 10.03 2.59 0 .22-.01.43-.01.65l.01-.07s1.31 1.12.81 2.86-1.01 3.31-1.75 3.68v-.01c-1.1 3.94-3.12 7.05-5.75 8.77v5.7c7.39-.59 13.23-2.28 13.23-2.28s-2.7-18.098-6.58-25.38C26.04.72 19.71.35 18.31.35c-.18 0-.278.006-.278.006z"/><path id="s" d="M2.046.377S-.422 2.257.204 8.917c0 0 .235-.393.718-.916l.174 1 .075.43 3.58 11.95h4.33l3.58-11.95.25-1.43v-.07c.3.27.55.53.74.75.5-5.92-1.48-7.95-1.81-8.25v1.76h-.06c-.06 1.9-2.21 3.23-4.86 3.23s-4.8-1.33-4.85-3.24V.38h-.02z"/></defs><g fill="none" fill-rule="evenodd"><path stroke="#373232" d="M478.973 365.184c0 .12-.65.414-1.455.414-.803 0-1.454-.293-1.454-.414 0-.12.65-.025 1.454-.025.804 0 1.455-.1 1.455.02z"/><g transform="translate(465.5 344.534)"><mask id="b" fill="#fff"><use xlink:href="#a"/></mask><path fill="#FFB533" d="M-2.39 14.94h28.397V-2.322H-2.39" mask="url(#b)"/></g><path stroke="#373232" d="M488.922 354.893c.288-4.854-.633-8.88-.633-8.88-4.38-1.44-11-1.297-11-1.297s-6.62-.143-11 1.297c0 0-1.2 5.233-.44 10.96.09-.028 1.54-.495 1.89-1.614.49-1.59 2.03-5.67 4.54-5.11 2.07.46 3.06 1.65 5.13 1.65s3.06-1.19 5.13-1.65c2.51-.56 4.05 3.52 4.54 5.1.25.8 1.07 1.27 1.55 1.48l.07.13.01-.1c.14.06.24.09.26.09 0-.23.01-.46.01-.68 0-.48-.03-.94-.09-1.4z"/><g transform="translate(470 373.534)"><mask id="d" fill="#fff"><use xlink:href="#c"/></mask><path fill="#FFB533" d="M-2.215 12.476h19.227V-2.398H-2.215" mask="url(#d)"/></g><path stroke="#373232" d="M477.43 376.44c-2.915 0-5.554-1.133-7.145-2.753v6.587h.038c.072 1.7 3.21 3.237 7.074 3.237s7.002-1.53 7.074-3.23h.05v-6.63c-1.56 1.65-4.13 2.8-7.08 2.8z"/><g transform="translate(466.5 364.034)"><mask id="f" fill="#fff"><use xlink:href="#e"/></mask><path fill="#FFB533" d="M-2.03 14.905h25.92V-2.41H-2.03" mask="url(#f)"/></g><path stroke="#373232" d="M475.218 370.39c-1.12-.17-1.603-1.504-.846-2.347.65-.724 1.583-1.255 2.922-1.255 1.396 0 2.35.577 3.004 1.35.713.842.183 2.145-.912 2.288-.61.08-1.26.123-1.955.123-.79 0-1.52-.06-2.21-.16zm8.596-1.457c-.38.228-.872.05-1.026-.365-.832-2.252-2.726-2.602-5.494-2.602-2.717 0-4.59.337-5.447 2.478-.165.413-.66.582-1.036.342-2.97-1.9-3.84-4.66-3.84-4.66 0 1.225 1.07 6.156 2.41 8.4 1.32 2.215 4.48 3.913 8.06 3.913s6.61-1.71 7.94-3.92c1.45-2.42 2.53-7.18 2.53-8.4 0 0-.91 2.9-4.07 4.81z"/><g transform="translate(464.5 350.034)"><mask id="h" fill="#fff"><use xlink:href="#g"/></mask><path fill="#FFB533" d="M-2.068 21.5H27.93V-2.33h-30" mask="url(#h)"/></g><path stroke="#373232" d="M489.007 356.977l-.01.07c.003-.126.003-.255.005-.383l-.004.31c-.023-.007-.12-.038-.26-.096-.006.032-.01.064-.014.096l-.067-.13c-.475-.21-1.3-.677-1.55-1.485-.49-1.59-2.028-5.67-4.544-5.11-2.07.46-3.06 1.65-5.133 1.65-2.07 0-3.064-1.19-5.132-1.65-2.517-.56-4.053 3.52-4.544 5.1-.347 1.12-1.796 1.58-1.89 1.61v.07l-.01-.07s-1.307 1.12-.81 2.86c.5 1.74 1.006 3.31 1.748 3.68v-.01c.065.23.125.46.18.69v-.08s.865 2.76 3.84 4.66c.374.24.87.07 1.035-.34.856-2.14 2.73-2.48 5.447-2.48 2.768 0 4.662.35 5.494 2.6.154.42.646.59 1.027.36 3.164-1.9 4.075-4.81 4.075-4.81 0 .02 0 .05-.002.073.057-.228.117-.456.18-.688v.004c.743-.37 1.25-1.938 1.748-3.68.498-1.74-.81-2.864-.81-2.864z"/><g transform="translate(453 378.034)"><mask id="j" fill="#fff"><use xlink:href="#i"/></mask><path fill="#FFB533" d="M-2.434 26.134h53.61V-2.413h-53.61" mask="url(#j)"/></g><path stroke="#373232" d="M497.038 382.82c-2.56-2.607-7.31-4.052-12.526-4.695v2.15h-.04c-.073 1.698-3.21 3.236-7.075 3.236-3.864 0-7.002-1.53-7.074-3.23h-.038v-2.15c-5.24.65-9.986 2.09-12.55 4.7-3.486 3.55-4.607 14.97-4.67 18.85h48.61c-.062-3.88-1.15-15.3-4.636-18.85z"/><g transform="translate(450 391.534)"><mask id="l" fill="#fff"><use xlink:href="#k"/></mask><path fill="#20A28C" d="M-2.003 3h5.408v-5.41h-5.408" mask="url(#l)"/></g><path stroke="#373232" d="M450.905 391.963v.072c-.12-.13-.256-.27-.408-.413.144.114.28.228.408.34z"/><g transform="translate(443.5 370.534)"><mask id="n" fill="#fff"><use xlink:href="#m"/></mask><path fill="#20A28C" d="M-2.425 3.434h7.91V-2.04h-7.91" mask="url(#n)"/></g><path stroke="#373232" d="M446.484 371.054c0 .12-.65.414-1.455.414s-1.46-.293-1.46-.414c0-.12.65-.024 1.45-.024s1.45-.097 1.45.024z"/><g transform="translate(420.5 383.534)"><mask id="p" fill="#fff"><use xlink:href="#o"/></mask><path fill="#FFB533" d="M-2.422 24.5h53.608V-2.233H-2.422" mask="url(#p)"/></g><path stroke="#373232" d="M464.97 388.95c-2.914-2.97-8.667-4.45-14.72-4.945v.648c.337.3 2.314 2.336 1.815 8.255-.194-.223-.44-.48-.738-.746v.072l-.25 1.422-3.577 11.958h-4.33l-3.577-11.958-.075-.43-.173-.992c-.483.524-.718.917-.718.917-.627-6.66 1.84-8.54 1.84-8.54h.017V384c-6.108.492-11.885 1.984-14.816 4.966-3.485 3.548-4.606 12.945-4.668 16.767h48.608c-.062-3.822-1.15-13.237-4.637-16.785zm-8.452-26.102l-.01.07c.006-.215.008-.432.01-.65-2.355.055-6.58-.238-10.034-2.595-3.067-2.094-4.22-4.972-4.652-6.924-.36 2.1-1.318 4.98-3.843 6.74-2.24 1.55-3.71 2.11-4.62 2.28-.01.12-.01.25-.01.38 0 .25 0 .5.01.75l-.01-.07s-1.31 1.12-.81 2.86c.49 1.74 1 3.31 1.74 3.68v-.01c1.7 6.12 5.61 10.23 10.64 10.23 5.02 0 8.93-4.11 10.64-10.24.74-.37 1.25-1.94 1.74-3.68.5-1.74-.81-2.867-.81-2.867z"/><g transform="translate(427 349.034)"><mask id="r" fill="#fff"><use xlink:href="#q"/></mask><path fill="#FFB533" d="M-2.5 37.328h41.06v-39.48H-2.5" mask="url(#r)"/></g><path stroke="#373232" d="M440.06 378.158c-2.64-1.713-4.657-4.822-5.757-8.772v.003c-.742-.37-1.25-1.94-1.747-3.68-.498-1.74.81-2.87.81-2.87l.01.07c-.006-.25-.01-.5-.01-.76 0-.13.005-.26.01-.39.907-.18 2.383-.73 4.613-2.29 2.52-1.76 3.48-4.65 3.84-6.75.43 1.95 1.58 4.83 4.65 6.92 3.45 2.35 7.68 2.65 10.03 2.59 0 .212-.01.43-.01.65l.01-.076s1.31 1.12.81 2.863c-.5 1.745-1.01 3.31-1.75 3.68v-.003c-1.1 3.95-3.12 7.058-5.75 8.77v5.71c7.39-.583 13.23-2.27 13.23-2.27-.01 0-2.71-18.1-6.59-25.386-3.88-7.29-11.45-6.82-11.45-6.82s-7.57-.47-11.45 6.815c-3.87 7.3-6.57 25.4-6.57 25.4s5.75 1.66 13.06 2.26v-5.694z"/><g transform="translate(438 384.034)"><mask id="t" fill="#fff"><use xlink:href="#s"/></mask><path fill="#FFB533" d="M-2.398 23.88h18.62V-2.122h-18.62" mask="url(#t)"/></g><path stroke="#373232" d="M449.83 384.453v1.758h-.065c-.05 1.92-2.202 3.24-4.852 3.24-2.65 0-4.803-1.32-4.852-3.23v-1.8h-.01s-2.46 1.88-1.84 8.54c0 0 .24-.39.72-.91l.18 1 .08.43 3.58 11.96h4.33l3.58-11.96.25-1.42v-.07c.3.27.55.52.74.75.5-5.92-1.48-7.952-1.81-8.26z"/></g></svg>
