<?xml version="1.0" encoding="utf-8"?>
<!-- Generator: Adobe Illustrator 17.1.0, SVG Export Plug-In . SVG Version: 6.00 Build 0)  -->
<!DOCTYPE svg PUBLIC "-//W3C//DTD SVG 1.1//EN" "http://www.w3.org/Graphics/SVG/1.1/DTD/svg11.dtd">
<svg version="1.1" id="Layer_1" xmlns="http://www.w3.org/2000/svg" xmlns:xlink="http://www.w3.org/1999/xlink" x="0px" y="0px"
	 viewBox="0 0 250 250" enable-background="new 0 0 250 250" xml:space="preserve">
<rect x="25.7" y="35.4" fill="none" stroke="#373232" stroke-width="3" stroke-miterlimit="10" width="198.5" height="178.8"/>
<line fill="none" stroke="#373232" stroke-width="3" stroke-miterlimit="10" x1="25.7" y1="61" x2="224.2" y2="61"/>
<line fill="none" stroke="#373232" stroke-miterlimit="10" x1="64.6" y1="87.8" x2="117.2" y2="87.8"/>
<line fill="none" stroke="#373232" stroke-miterlimit="10" x1="88.9" y1="99.9" x2="165.8" y2="99.9"/>
<line fill="none" stroke="#373232" stroke-miterlimit="10" x1="88.9" y1="112.1" x2="165.8" y2="112.1"/>
<line fill="none" stroke="#373232" stroke-miterlimit="10" x1="64.6" y1="136.4" x2="117.2" y2="136.4"/>
<line fill="none" stroke="#373232" stroke-miterlimit="10" x1="88.9" y1="148.5" x2="165.8" y2="148.5"/>
<line fill="none" stroke="#373232" stroke-miterlimit="10" x1="88.9" y1="160.7" x2="165.8" y2="160.7"/>
<line fill="none" stroke="#373232" stroke-miterlimit="10" x1="113.2" y1="172.8" x2="165.8" y2="172.8"/>
<line fill="none" stroke="#373232" stroke-miterlimit="10" x1="113.2" y1="185" x2="165.8" y2="185"/>
<line fill="none" stroke="#373232" stroke-miterlimit="10" x1="52.5" y1="87.8" x2="56.4" y2="87.8"/>
<line fill="none" stroke="#373232" stroke-miterlimit="10" x1="52.5" y1="99.9" x2="56.4" y2="99.9"/>
<line fill="none" stroke="#373232" stroke-miterlimit="10" x1="52.5" y1="112.1" x2="56.4" y2="112.1"/>
<line fill="none" stroke="#373232" stroke-miterlimit="10" x1="52.5" y1="136.4" x2="56.4" y2="136.4"/>
<line fill="none" stroke="#373232" stroke-miterlimit="10" x1="52.5" y1="148.5" x2="56.4" y2="148.5"/>
<line fill="none" stroke="#373232" stroke-miterlimit="10" x1="52.5" y1="160.7" x2="56.4" y2="160.7"/>
<line fill="none" stroke="#373232" stroke-miterlimit="10" x1="52.5" y1="172.8" x2="56.4" y2="172.8"/>
<line fill="none" stroke="#373232" stroke-miterlimit="10" x1="52.5" y1="185" x2="56.4" y2="185"/>
<circle fill="none" stroke="#373232" stroke-width="3" stroke-miterlimit="10" cx="51.6" cy="48.1" r="2.4"/>
<circle fill="none" stroke="#373232" stroke-width="3" stroke-miterlimit="10" cx="62.6" cy="48.1" r="2.4"/>
<circle fill="none" stroke="#373232" stroke-width="3" stroke-miterlimit="10" cx="40.6" cy="48.1" r="2.4"/>
</svg>
