<?xml version="1.0" encoding="utf-8"?>
<!-- Generator: Adobe Illustrator 17.1.0, SVG Export Plug-In . SVG Version: 6.00 Build 0)  -->
<!DOCTYPE svg PUBLIC "-//W3C//DTD SVG 1.1//EN" "http://www.w3.org/Graphics/SVG/1.1/DTD/svg11.dtd">
<svg version="1.1" id="Layer_1" xmlns="http://www.w3.org/2000/svg" xmlns:xlink="http://www.w3.org/1999/xlink" x="0px" y="0px"
	 viewBox="0 0 250 250" enable-background="new 0 0 250 250" xml:space="preserve">
<rect x="30.1" y="18.9" fill="none" stroke="#FFFFFF" stroke-width="3" stroke-miterlimit="10" width="139.5" height="178.7"/>
<line fill="none" stroke="#FFFFFF" stroke-width="3" stroke-miterlimit="10" x1="41.2" y1="11.7" x2="41.2" y2="26.8"/>
<line fill="none" stroke="#FFFFFF" stroke-width="3" stroke-miterlimit="10" x1="60.8" y1="11.7" x2="60.8" y2="26.8"/>
<line fill="none" stroke="#FFFFFF" stroke-width="3" stroke-miterlimit="10" x1="80.5" y1="11.7" x2="80.5" y2="26.8"/>
<line fill="none" stroke="#FFFFFF" stroke-width="3" stroke-miterlimit="10" x1="100.1" y1="11.7" x2="100.1" y2="26.8"/>
<line fill="none" stroke="#FFFFFF" stroke-width="3" stroke-miterlimit="10" x1="119.8" y1="11.7" x2="119.8" y2="26.8"/>
<line fill="none" stroke="#FFFFFF" stroke-width="3" stroke-miterlimit="10" x1="139.4" y1="11.7" x2="139.4" y2="26.8"/>
<line fill="none" stroke="#FFFFFF" stroke-width="3" stroke-miterlimit="10" x1="159.1" y1="11.7" x2="159.1" y2="26.8"/>
<rect x="62.6" y="64.7" fill="none" stroke="#FFFFFF" stroke-width="3" stroke-miterlimit="10" width="75.9" height="75.9"/>
<line fill="none" stroke="#FFFFFF" stroke-width="3" stroke-miterlimit="10" x1="62.6" y1="64.7" x2="138.4" y2="140.6"/>
<line fill="none" stroke="#FFFFFF" stroke-width="3" stroke-miterlimit="10" x1="138.4" y1="64.7" x2="62.6" y2="140.6"/>
<polyline fill="none" stroke="#FFFFFF" stroke-width="3" stroke-miterlimit="10" points="168.9,58.2 218.7,58.2 218.7,236.9 
	79.2,236.9 79.2,197 "/>
<line fill="none" stroke="#FFFFFF" stroke-width="3" stroke-miterlimit="10" x1="188.5" y1="51" x2="188.5" y2="66.1"/>
<line fill="none" stroke="#FFFFFF" stroke-width="3" stroke-miterlimit="10" x1="208.2" y1="51" x2="208.2" y2="66.1"/>
<line fill="none" stroke="#FFFFFF" stroke-width="3" stroke-miterlimit="10" x1="138.4" y1="160.3" x2="62.6" y2="160.3"/>
<line fill="none" stroke="#FFFFFF" stroke-miterlimit="10" x1="190.1" y1="208.3" x2="107.9" y2="208.3"/>
<line fill="none" stroke="#FFFFFF" stroke-miterlimit="10" x1="190.1" y1="179.6" x2="170.9" y2="179.6"/>
<line fill="none" stroke="#FFFFFF" stroke-miterlimit="10" x1="190.1" y1="151" x2="170.9" y2="151"/>
<line fill="none" stroke="#FFFFFF" stroke-miterlimit="10" x1="190.1" y1="122.3" x2="170.9" y2="122.3"/>
<line fill="none" stroke="#FFFFFF" stroke-miterlimit="10" x1="190.1" y1="93.7" x2="170.9" y2="93.7"/>
</svg>
