<?xml version="1.0" encoding="utf-8"?>
<!-- Generator: Adobe Illustrator 17.1.0, SVG Export Plug-In . SVG Version: 6.00 Build 0)  -->
<!DOCTYPE svg PUBLIC "-//W3C//DTD SVG 1.1//EN" "http://www.w3.org/Graphics/SVG/1.1/DTD/svg11.dtd">
<svg version="1.1" id="Layer_1" xmlns="http://www.w3.org/2000/svg" xmlns:xlink="http://www.w3.org/1999/xlink" x="0px" y="0px"
	 viewBox="0 0 250 250" enable-background="new 0 0 250 250" xml:space="preserve">
<line fill="none" stroke="#373232" stroke-width="3" stroke-miterlimit="10" x1="55.6" y1="20.4" x2="55.6" y2="35.9"/>
<line fill="none" stroke="#373232" stroke-width="3" stroke-miterlimit="10" x1="75.8" y1="20.4" x2="75.8" y2="35.9"/>
<line fill="none" stroke="#373232" stroke-width="3" stroke-miterlimit="10" x1="96.1" y1="20.4" x2="96.1" y2="35.9"/>
<line fill="none" stroke="#373232" stroke-width="3" stroke-miterlimit="10" x1="116.3" y1="20.4" x2="116.3" y2="35.9"/>
<line fill="none" stroke="#373232" stroke-width="3" stroke-miterlimit="10" x1="136.5" y1="20.4" x2="136.5" y2="35.9"/>
<line fill="none" stroke="#373232" stroke-width="3" stroke-miterlimit="10" x1="156.8" y1="20.4" x2="156.8" y2="35.9"/>
<line fill="none" stroke="#373232" stroke-width="3" stroke-miterlimit="10" x1="177" y1="20.4" x2="177" y2="35.9"/>
<rect x="192.5" y="110.3" transform="matrix(0.8141 -0.5808 0.5808 0.8141 -62.1391 149.0013)" fill="none" stroke="#373232" stroke-width="3" stroke-miterlimit="10" width="18.4" height="122.6"/>
<line fill="none" stroke="#373232" stroke-width="3" stroke-miterlimit="10" x1="237.1" y1="205.4" x2="222.1" y2="216.1"/>
<line fill="none" stroke="#373232" stroke-width="3" stroke-miterlimit="10" x1="232.5" y1="199" x2="217.6" y2="209.7"/>
<polyline fill="none" stroke="#373232" stroke-width="3" stroke-miterlimit="10" points="173,115.6 147.3,95.4 158.1,126.3 "/>
<rect x="81.2" y="78.5" fill="none" stroke="#373232" stroke-miterlimit="10" width="69.6" height="69.6"/>
<line fill="none" stroke="#373232" stroke-miterlimit="10" x1="81.2" y1="78.5" x2="150.8" y2="148"/>
<line fill="none" stroke="#373232" stroke-miterlimit="10" x1="150.8" y1="78.5" x2="81.2" y2="148"/>
<line fill="none" stroke="#373232" stroke-miterlimit="10" x1="150.8" y1="166.1" x2="81.2" y2="166.1"/>
<polyline fill="none" stroke="#373232" stroke-width="3" stroke-miterlimit="10" points="187.9,167 187.9,211.9 44.2,211.9 
	44.2,27.8 187.9,27.8 187.9,135.7 "/>
</svg>
