<?xml version="1.0" encoding="utf-8"?>
<!-- Generator: Adobe Illustrator 17.1.0, SVG Export Plug-In . SVG Version: 6.00 Build 0)  -->
<!DOCTYPE svg PUBLIC "-//W3C//DTD SVG 1.1//EN" "http://www.w3.org/Graphics/SVG/1.1/DTD/svg11.dtd">
<svg version="1.1" id="Layer_1" xmlns="http://www.w3.org/2000/svg" xmlns:xlink="http://www.w3.org/1999/xlink" x="0px" y="0px"
	 viewBox="0 0 250 250" enable-background="new 0 0 250 250" xml:space="preserve">
<g>
	
		<rect x="19" y="57.5" transform="matrix(0.9998 -2.114688e-02 2.114688e-02 0.9998 -1.8231 1.1741)" fill="none" stroke="#FFFFFF" stroke-width="3" stroke-miterlimit="10" width="71.3" height="58.6"/>
	<rect x="16.4" y="139" fill="none" stroke="#FFFFFF" stroke-width="3" stroke-miterlimit="10" width="71.3" height="58.6"/>
	<polyline fill="none" stroke="#FFFFFF" stroke-miterlimit="10" points="28.6,90.6 58.3,82.1 52.1,91.9 77.4,86.8 	"/>
	<g>
		<path fill="none" stroke="#FFFFFF" stroke-width="3" stroke-miterlimit="10" d="M152,191.6l-19.7-60.3c-1.7-5.3,1.2-10.9,6.4-12.6
			l0,0c5.3-1.7,10.9,1.2,12.6,6.4l14.3,44"/>
		<path fill="none" stroke="#FFFFFF" stroke-width="3" stroke-miterlimit="10" d="M162.5,159l-15.1-46.5c-1.7-5.3,1.2-10.9,6.4-12.6
			l0,0c5.3-1.7,10.9,1.2,12.6,6.4l18.2,56"/>
		<path fill="none" stroke="#FFFFFF" stroke-width="3" stroke-miterlimit="10" d="M183.4,158.6l-14.3-44c-1.7-5.3,1.2-10.9,6.4-12.6
			l0,0c5.3-1.7,10.9,1.2,12.6,6.4l15.6,47.8"/>
		<path fill="none" stroke="#FFFFFF" stroke-width="3" stroke-miterlimit="10" d="M200.5,146.6l-8.1-25c-1.7-5.3,1.2-10.9,6.4-12.6
			l0,0c5.3-1.7,10.9,1.2,12.6,6.4l21.5,66.1"/>
		<path fill="none" stroke="#FFFFFF" stroke-width="3" stroke-miterlimit="10" d="M222.2,148.6l9.4,28.9
			c6.7,20.7-4.6,42.9-25.2,49.6l-1.2,0.4l-10.2,3.3l-1.2,0.4c-20.7,6.7-42.9-4.6-49.6-25.2l-9.4-28.9"/>
		<path fill="none" stroke="#FFFFFF" stroke-width="3" stroke-miterlimit="10" d="M141,196.7l-9.1-28c-1.7-5.2,1.2-10.9,6.4-12.6
			c0,0,0,0,0,0l0,0"/>
	</g>
	<path fill="none" stroke="#FFFFFF" stroke-width="3" stroke-miterlimit="10" d="M167.5,169.6"/>
	<polyline fill="none" stroke="#FFFFFF" stroke-width="3" stroke-miterlimit="10" points="140.7,194.5 106.9,189.8 115,131.8 
		132.4,134.2 	"/>
	<polyline fill="none" stroke="#FFFFFF" stroke-width="3" stroke-miterlimit="10" points="140,118.2 108.6,116 112.8,57.6 
		183.9,62.7 181.1,101.6 	"/>
</g>
</svg>
