<?xml version="1.0" encoding="utf-8"?>
<!-- Generator: Adobe Illustrator 17.1.0, SVG Export Plug-In . SVG Version: 6.00 Build 0)  -->
<!DOCTYPE svg PUBLIC "-//W3C//DTD SVG 1.1//EN" "http://www.w3.org/Graphics/SVG/1.1/DTD/svg11.dtd">
<svg version="1.1" id="Layer_1" xmlns="http://www.w3.org/2000/svg" xmlns:xlink="http://www.w3.org/1999/xlink" x="0px" y="0px"
	 viewBox="0 0 250 250" enable-background="new 0 0 250 250" xml:space="preserve">
<rect x="30.8" y="92.9" fill="none" stroke="#FFFFFF" stroke-miterlimit="10" width="34" height="34"/>
<rect x="79.6" y="92.9" fill="none" stroke="#FFFFFF" stroke-miterlimit="10" width="34" height="34"/>
<rect x="30.8" y="143.1" fill="none" stroke="#FFFFFF" stroke-miterlimit="10" width="34" height="34"/>
<rect x="79.6" y="143.1" fill="none" stroke="#FFFFFF" stroke-miterlimit="10" width="34" height="34"/>
<rect x="128.4" y="92.9" fill="none" stroke="#FFFFFF" stroke-miterlimit="10" width="34" height="34"/>
<line fill="none" stroke="#FFFFFF" stroke-width="3" stroke-miterlimit="10" x1="5.7" y1="66.3" x2="187.5" y2="66.3"/>
<line fill="none" stroke="#FFFFFF" stroke-miterlimit="10" x1="25.1" y1="51.5" x2="14.7" y2="51.5"/>
<circle fill="none" stroke="#FFFFFF" stroke-width="3" stroke-miterlimit="10" cx="145.3" cy="177.8" r="9.6"/>
<polyline fill="none" stroke="#FFFFFF" stroke-miterlimit="10" points="135.9,177.1 128.4,177.1 128.4,143.1 162.3,143.1 
	162.3,177.1 154.9,177.1 "/>
<polygon fill="none" stroke="#FFFFFF" stroke-width="3" stroke-miterlimit="10" points="176,78.8 176,102.8 168.2,110.6 176,118.4 
	176,213.3 244.3,213.3 244.3,78.8 "/>
<line fill="none" stroke="#FFFFFF" stroke-miterlimit="10" x1="244.3" y1="95.1" x2="176" y2="95.1"/>
<line fill="none" stroke="#FFFFFF" stroke-miterlimit="10" x1="222.1" y1="87.7" x2="198.1" y2="87.7"/>
<line fill="none" stroke="#FFFFFF" stroke-miterlimit="10" x1="244.3" y1="124.6" x2="176" y2="124.6"/>
<line fill="none" stroke="#FFFFFF" stroke-miterlimit="10" x1="244.3" y1="154.2" x2="176" y2="154.2"/>
<line fill="none" stroke="#FFFFFF" stroke-miterlimit="10" x1="244.3" y1="183.7" x2="176" y2="183.7"/>
<polyline fill="none" stroke="#FFFFFF" stroke-width="3" stroke-miterlimit="10" points="176.1,202.2 5.7,202.2 5.7,36.7 
	187.5,36.7 187.5,79.1 "/>
<circle fill="none" stroke="#FFFFFF" stroke-miterlimit="10" cx="172.3" cy="51.2" r="5.9"/>
</svg>
