<?xml version="1.0" encoding="utf-8"?>
<!-- Generator: Adobe Illustrator 17.1.0, SVG Export Plug-In . SVG Version: 6.00 Build 0)  -->
<!DOCTYPE svg PUBLIC "-//W3C//DTD SVG 1.1//EN" "http://www.w3.org/Graphics/SVG/1.1/DTD/svg11.dtd">
<svg version="1.1" id="Layer_1" xmlns="http://www.w3.org/2000/svg" xmlns:xlink="http://www.w3.org/1999/xlink" x="0px" y="0px"
	 viewBox="0 0 250 250" enable-background="new 0 0 250 250" xml:space="preserve">
<rect x="23.8" y="48.4" transform="matrix(0.9968 -8.041042e-02 8.041042e-02 0.9968 -5.5274 4.3357)" fill="none" stroke="#373232" stroke-width="3" stroke-miterlimit="10" width="54.6" height="44.9"/>
<g>
	<path fill="#373232" d="M65.1,72.1c0,0-0.1,0.1-0.2,0.2c-0.1,0.1-0.2,0.1-0.2,0.2c0,0-0.1,0-0.1-0.1c0,0,0-0.1-0.1-0.1
		c0,0-0.1-0.1-0.1-0.2c-0.1-0.1-0.1-0.2-0.1-0.2c0,0,0,0-0.1,0l-0.1,0c0,0-0.1,0-0.1,0c-0.1,0-0.1,0.1-0.1,0.1c0,0,0-0.1,0-0.1
		c0,0-0.1-0.1-0.1-0.1l-0.1,0c-0.2,0-0.3,0.1-0.5,0.2C63,72,62.8,72,62.7,72.1l-0.2,0c-0.2,0-0.3,0-0.5,0c-0.2,0-0.3,0-0.4,0
		c-0.1,0-0.2-0.1-0.3-0.2c-0.1-0.1-0.1-0.2-0.2-0.5l0,0c0,0,0,0-0.1,0c0,0,0,0,0,0s0,0,0,0l0,0c0,0,0,0,0,0.1c0,0,0,0.1-0.1,0.1
		l-0.1,0l-0.1,0c0-0.2,0-0.3-0.1-0.4c-0.1-0.1-0.2-0.1-0.3-0.2s-0.2-0.1-0.2-0.2c-0.1-0.1,0-0.2,0-0.4c-0.1,0.1-0.2,0.2-0.2,0.3
		c0,0.1-0.1,0.2-0.3,0.2c0,0-0.1,0-0.1,0c-0.1,0-0.1,0-0.1,0c0,0,0-0.1,0-0.2c0-0.1,0-0.2,0-0.3c-0.1-0.1-0.2-0.1-0.3-0.2
		c-0.1,0-0.2,0-0.2-0.1c-0.1,0-0.1-0.1-0.2-0.2c0-0.1-0.1-0.3-0.1-0.5c0,0,0,0.1,0,0.1c0,0.1-0.1,0.1-0.1,0.1l-0.1,0
		c-0.1,0-0.2,0-0.3-0.1c-0.1-0.1-0.1-0.1-0.2-0.2c0-0.1-0.1-0.2-0.1-0.3c0-0.1,0-0.2,0-0.2c0,0-0.1,0-0.3,0.1c-0.2,0-0.3,0.1-0.3,0
		c0,0-0.1,0-0.1-0.1c-0.1-0.1-0.1-0.1-0.1-0.1c0,0-0.1,0-0.3,0c-0.2,0-0.3,0-0.3,0.1l-0.3-1.1l-0.2-0.1c0,0,0.1,0,0.2,0
		c0.1,0,0.2-0.1,0.3-0.1s0.2-0.1,0.3-0.1c0.1,0,0.1-0.1,0.1-0.1c-0.1,0-0.2,0-0.3,0s-0.2-0.1-0.3-0.2c-0.1-0.1-0.2-0.1-0.3-0.2
		c-0.1-0.1-0.1-0.1-0.1-0.2c0-0.1,0-0.1,0-0.2c0-0.1,0-0.2,0.1-0.3c0-0.1,0.1-0.2,0.1-0.2c0-0.1,0.1-0.1,0.1-0.1L55.9,65
		c0,0,0-0.1,0.1-0.1c0.1-0.1,0.2-0.1,0.2-0.2c-0.1,0.1-0.3,0.2-0.4,0.2c-0.2,0.1-0.4,0.2-0.4,0.2l0,0c0,0,0,0,0.1,0.1
		c0,0,0.1,0.1,0.1,0.1c0,0,0,0,0,0l0.1,0l0,0c0,0,0.1,0,0.2,0c0.1,0,0.2-0.1,0.4-0.1s0.3-0.1,0.4-0.1c0.1,0,0.2-0.1,0.2-0.1
		c-0.1-0.1-0.2-0.1-0.2-0.2c-0.1,0-0.2-0.1-0.3-0.2l-0.1-0.1c0,0.1-0.1,0.1-0.1,0.2c-0.1,0-0.1,0.1-0.2,0.1l0-0.4c0-0.2,0-0.4,0-0.6
		c0-0.2,0.1-0.4,0.1-0.6c0.1-0.2,0.2-0.3,0.3-0.5s0.3-0.2,0.5-0.2c0,0,0-0.1-0.1-0.1s0-0.1,0-0.2c0-0.1,0.1-0.2,0.2-0.4
		c0.1-0.2,0.1-0.3,0.2-0.4c0.1,0,0.1,0.1,0.2,0.1c0,0.1,0,0.1,0.1,0.2c0,0.1,0,0.1,0.1,0.2s0.1,0.1,0.2,0.1c0.1,0,0.2-0.1,0.3-0.1
		c0-0.1,0.1-0.1,0.1-0.2c0-0.1,0.1-0.2,0.1-0.2c0-0.1,0.1-0.1,0.2-0.1c-0.1,0-0.2-0.1-0.2-0.2c0-0.1,0-0.2,0-0.3c0-0.1,0-0.2,0-0.3
		c0-0.1-0.1-0.1-0.2-0.2c0,0-0.1,0.1-0.2,0.2c-0.1,0.1-0.1,0.2-0.2,0.2l0,0.1l0,0.1c0,0,0.1,0,0.1,0.1c0.1,0,0.1,0,0.1,0.1l0,0.1
		l0,0.1c0,0,0,0.1,0,0.2c0,0.1,0,0.2-0.1,0.2c-0.2-0.1-0.3-0.2-0.3-0.3s-0.2-0.2-0.4-0.3c0-0.2-0.1-0.3-0.1-0.5
		c0-0.1-0.1-0.3-0.1-0.5l0-0.2c0-0.1,0.1-0.1,0.2-0.3c0.1-0.1,0.2-0.2,0.3-0.3l0.1,0.1c0,0.1,0,0.3-0.1,0.5c0,0.3-0.1,0.4-0.1,0.5
		c0,0,0,0,0,0.1c0,0,0,0,0,0.1c0.1,0,0.1,0,0.2-0.1c0.1-0.1,0.1-0.2,0.2-0.2c0.1-0.1,0.1-0.2,0.1-0.3c0-0.1,0-0.2,0-0.3
		c0-0.1-0.1-0.2-0.1-0.3c-0.1-0.2-0.1-0.2-0.2-0.3c0,0,0.1,0,0.2-0.1C57.9,59,58,59,58,59l0.1,0l0.1,0l0,0.1c0,0.1-0.1,0.1,0,0.1
		l0.1,0l0.1,0c0.1-0.1,0.2-0.2,0.3-0.3c0.1-0.1,0.2-0.2,0.2-0.3c0-0.1,0-0.1-0.1-0.2s-0.1-0.1-0.1-0.2c0-0.1,0-0.2,0-0.3
		c0-0.1,0-0.3,0.1-0.4s0.1-0.3,0.1-0.3c0.1-0.1,0.1-0.1,0.2-0.1c0.2-0.2,0.3-0.4,0.4-0.5s0.3-0.3,0.4-0.4c0.1-0.1,0.3-0.2,0.5-0.2
		c0.2,0,0.4-0.1,0.6-0.1c0.1,0,0.3,0,0.5,0c0.2,0,0.5,0,0.8,0c0.3,0,0.5,0.1,0.7,0.1c0.2,0.1,0.3,0.2,0.3,0.4l0,0.1
		c-0.3,0.4-0.6,0.8-0.7,1.2c-0.2,0.4-0.4,0.8-0.6,1.3c0,0-0.1,0.1-0.1,0.1c-0.1,0.1-0.1,0.1-0.1,0.1c0,0-0.1,0-0.3,0.1
		c-0.1,0-0.2,0.1-0.2,0.1c-0.1,0.5-0.2,0.9-0.3,1.2c-0.1,0.3-0.1,0.6-0.2,0.8c-0.1,0.3-0.1,0.4-0.1,0.4c0,0.1,0,0.2,0,0.3
		c0,0.2,0,0.2,0,0.3c0.2,0,0.4,0,0.5,0.1c0.1,0.1,0.2,0.2,0.3,0.3c0.1,0.1,0.2,0.2,0.3,0.3c0.1,0.1,0.3,0.1,0.5,0.1l0.1,0
		c0,0,0,0,0,0c0,0,0.1-0.1,0.1-0.1c0.1-0.1,0.1-0.1,0.1-0.2l0.1,0l0.1,0c0,0,0,0,0.1,0.1c0,0,0.1,0,0.1,0.1c0,0,0.1,0,0.1-0.1
		c0.1-0.1,0.1-0.1,0.1-0.2c0,0,0-0.1,0-0.1c0-0.1-0.1-0.1-0.1-0.1l0-0.2c0.3,0,0.5,0.1,0.7,0.3c0.2,0.2,0.3,0.4,0.4,0.7
		c0.1-0.1,0.1-0.2,0.1-0.2c0-0.1,0-0.2,0-0.2c0-0.1,0-0.2,0-0.2c0-0.1,0-0.2,0.1-0.2l0.1,0.1l0.1,1c0,0,0,0.1,0.1,0.1
		c0.1,0,0.2,0.1,0.2,0.1c0.1,0,0.2,0.1,0.3,0.2c0.1,0,0.1-0.1,0.1-0.2c0-0.1,0-0.3,0-0.4c0-0.2,0-0.3,0-0.5c0-0.1,0-0.3,0-0.3
		c0.1,0.1,0.3,0.2,0.4,0.4c0.1,0.2,0.3,0.2,0.5,0.2l0.1,0c0,0,0.1,0,0.1-0.1c0,0,0.1-0.1,0.1-0.1l0,0.1l0,0.1c0,0,0,0.1,0,0.2
		c0,0.1,0,0.2,0,0.3c0,0,0,0.1,0.1,0.3c0,0.2,0.1,0.3,0.1,0.3c0,0,0,0,0.1,0.1c0,0,0.1,0,0.1,0c0.1-0.1,0.2-0.1,0.2-0.2
		c0-0.1,0-0.1,0-0.2c0-0.1,0-0.1,0.1-0.2c0.1-0.1,0.2-0.2,0.5-0.3c0,0,0.1-0.1,0.1-0.1c0.1,0,0.1-0.1,0.1,0c0.2,0,0.3,0.1,0.3,0.1
		s0.1,0.1,0.1,0.2c0,0,0.1,0.1,0.1,0.1s0.1,0.1,0.3,0.1c0.1,0,0.2,0.1,0.4,0.1c0.1,0,0.2,0.1,0.2,0.2c0,0,0,0,0,0.1c0,0,0,0.1,0,0.1
		l-0.6,0.6c0,0,0,0,0,0.1c0,0,0.1,0.1,0.1,0.1l0.1,0c0.1,0,0.1,0,0.1-0.1c0-0.1,0.1-0.1,0.1-0.2c0-0.1,0-0.1,0.1-0.2
		c0-0.1,0.1-0.1,0.2-0.1l0.1,0c0,0,0.1,0.1,0.2,0.2c0.1,0.1,0.1,0.2,0.1,0.2l0,0c0,0-0.1,0.1-0.2,0.2S69,65.7,69,65.7c0,0,0,0,0,0.1
		c0,0,0,0,0,0.1l0.3,0c0,0.2,0,0.3-0.1,0.4c-0.1,0.1-0.1,0.3-0.1,0.4l0,0.1c0,0,0.1,0.1,0.2,0.2c0.1,0.1,0.2,0.1,0.2,0.2l0,0.1
		c0,0,0,0,0,0.1c0,0,0,0,0,0c0,0.1-0.1,0.2-0.2,0.4s-0.1,0.3-0.2,0.4l0,0.1c0,0.2,0.1,0.4,0.3,0.6c0.2,0.2,0.2,0.4,0.3,0.6
		c0,0.2,0,0.3,0,0.4c0,0.1-0.2,0.1-0.4,0.2c0,0-0.1,0-0.1,0c-0.1,0-0.1,0-0.1-0.1c0,0.2-0.1,0.5-0.3,0.8c-0.2,0.3-0.3,0.5-0.5,0.7
		c-0.1,0-0.1-0.1-0.2-0.2c0-0.1-0.1-0.1-0.2-0.1c-0.1,0-0.2,0.1-0.2,0.3l0,0.1c0,0,0,0.1,0.1,0.2c0,0.1,0.1,0.2,0.1,0.2L67,71.7
		c0,0.1,0,0.2,0,0.2c0,0-0.1,0.1-0.3,0.1c0-0.1,0-0.2-0.1-0.3c0-0.1-0.1-0.1-0.3-0.1l-0.1,0c-0.1,0.2-0.2,0.4-0.3,0.6
		c-0.1,0.1-0.3,0.2-0.5,0.2l-0.1,0c0,0-0.1-0.1-0.1-0.2C65.3,72.1,65.2,72.1,65.1,72.1L65.1,72.1z M56,67c0,0,0.1,0.1,0.1,0.1
		c0.1,0,0.1,0,0.1,0l0-0.4L56,67z M56.3,68C56.3,68,56.3,68,56.3,68c0,0.1,0.1,0.2,0.2,0.2c0.1,0.1,0.1,0.1,0.2,0.2
		c0.1,0,0.1,0.1,0.2,0.1c0,0,0,0,0-0.1c0,0-0.1-0.1-0.2-0.2c-0.1-0.1-0.1-0.1-0.2-0.2C56.4,68,56.3,68,56.3,68z M56.2,64
		c0,0.1,0.1,0.2,0.2,0.2l0-0.2L56.2,64z M56.9,68.2C56.8,68.2,56.8,68.2,56.9,68.2c0,0.1,0,0.1,0,0.1C56.9,68.3,56.9,68.3,56.9,68.2
		C56.9,68.2,56.9,68.2,56.9,68.2z M56.9,66.4c0,0,0,0.1,0,0.2c0,0.1,0.1,0.2,0.1,0.3c0,0.1,0.1,0.2,0.1,0.3c0,0.1,0.1,0.1,0.1,0.2
		l0.3-0.4l0.2-0.4L56.9,66.4z M58.2,62.4c-0.1,0.1-0.2,0.1-0.2,0.3c-0.1,0.1-0.1,0.2-0.1,0.3c0,0.1,0,0.1,0.1,0.2
		c0.1,0,0.2,0,0.3-0.1c0,0,0,0,0-0.1c0-0.1,0-0.1,0-0.2C58.3,62.6,58.3,62.6,58.2,62.4C58.2,62.4,58.2,62.4,58.2,62.4z M58.4,68.1
		c-0.1,0-0.1,0-0.1,0.1c0,0.1,0,0.1,0.1,0.1c0,0,0-0.1,0-0.1C58.4,68.1,58.4,68.1,58.4,68.1z M58.4,67.5c0,0,0,0.1,0,0.1
		c0,0.1,0,0.1,0,0.1c0,0.1,0.1,0.2,0.2,0.3c0.1,0.1,0.2,0.2,0.2,0.2l0.2,0c0-0.2-0.1-0.3-0.2-0.5C58.7,67.5,58.6,67.5,58.4,67.5z
		 M58.7,62.4c0,0,0,0,0,0.1c0,0.1,0,0.2,0,0.3c0,0.1,0.1,0.2,0.1,0.3c0,0.1,0.1,0.1,0.1,0.1c0,0,0,0,0-0.1c0-0.1,0-0.2,0-0.3
		c0-0.1-0.1-0.2-0.1-0.3C58.7,62.4,58.7,62.4,58.7,62.4z M59,57.8c0,0-0.1,0-0.1,0c-0.1,0-0.1,0-0.1,0c0,0-0.1,0-0.1,0.1
		c-0.1,0-0.1,0.1-0.1,0.1l0,0.6l0.2,0c0,0,0.1,0,0.1-0.1c0-0.1,0.1-0.2,0.1-0.2c0-0.1,0-0.2,0.1-0.3C59,57.9,59,57.9,59,57.8z
		 M59.9,64.8c-0.2,0.1-0.3,0.2-0.4,0.4c-0.1,0.2-0.1,0.3-0.1,0.6l0,0.3c0.1-0.1,0.2-0.3,0.3-0.6C59.9,65.1,59.9,65,59.9,64.8
		L59.9,64.8z M60.3,68.3c0,0,0.1,0,0.1,0.1c0.1,0.1,0.1,0.1,0.1,0.1c0,0,0.1,0,0.1,0c0.1,0,0.1,0,0.1,0.1c0.2,0.2,0.3,0.4,0.4,0.6
		c0.1,0.2,0.3,0.4,0.4,0.6c0.2,0.2,0.3,0.4,0.5,0.6c0.2,0.2,0.4,0.3,0.7,0.3c0,0,0.1,0,0.2-0.1c0.1-0.1,0.2-0.1,0.2-0.1
		c0.4-0.1,0.7-0.2,1-0.2c0.3-0.1,0.6-0.2,0.8-0.3c0.3-0.1,0.5-0.3,0.7-0.5s0.4-0.5,0.6-0.9c0.1-0.2,0.2-0.4,0.3-0.6
		c0.1-0.1,0.2-0.3,0.2-0.6c0.1,0,0.3,0.1,0.4,0.2c0.1,0.1,0.2,0.2,0.3,0.2c0-0.1,0-0.2-0.1-0.3c-0.1-0.1-0.1-0.1-0.2-0.1
		c-0.1,0-0.1-0.1-0.2-0.1s-0.1-0.1-0.1-0.3c0-0.2,0-0.2,0.1-0.2c0.1,0,0.1-0.1,0.1-0.2c0-0.1,0-0.2-0.1-0.4
		c-0.1-0.1-0.1-0.2-0.2-0.3c-0.1-0.1-0.1-0.2-0.2-0.3c0-0.1-0.1-0.2,0-0.4c0,0-0.1,0-0.1,0.1c-0.1,0-0.1,0-0.1,0
		c-0.1,0-0.2,0-0.2-0.1c-0.1-0.1-0.1-0.1-0.2-0.2c-0.1-0.1-0.1-0.1-0.2-0.2c-0.1-0.1-0.2-0.1-0.2-0.1c0,0-0.1,0-0.2-0.1
		c-0.1,0-0.2,0-0.2-0.1c-0.1,0-0.2-0.1-0.3-0.1c-0.1,0-0.1,0-0.1,0c0,0-0.1,0-0.3,0.1c-0.1,0.1-0.2,0.1-0.3,0.1l-0.7,0.1L63,64.8
		c-0.1,0-0.2,0-0.2-0.1c0-0.1-0.1-0.1-0.1-0.2c0-0.1-0.1-0.1-0.1-0.2c0-0.1-0.1-0.1-0.2-0.1c0,0.3,0,0.5-0.2,0.6
		C62,65,61.7,65,61.5,65.1l-0.1,0c0-0.1,0-0.2,0-0.3c0-0.1,0-0.2-0.1-0.3c0-0.1-0.1-0.2-0.1-0.2c-0.1-0.1-0.2-0.1-0.3-0.1l-0.1,0
		c0,0.1-0.1,0.2-0.2,0.4c-0.1,0.2-0.2,0.3-0.3,0.5c-0.1,0.2-0.2,0.4-0.3,0.5c-0.1,0.2-0.1,0.3-0.1,0.4c0,0.4,0.1,0.7,0.2,1.1
		C60.2,67.5,60.3,67.9,60.3,68.3z M60.5,69.8c-0.1,0-0.1,0-0.1,0.1c0,0.1,0,0.1,0.1,0.1c0.1,0,0.1-0.1,0.1-0.1
		C60.7,69.9,60.6,69.8,60.5,69.8z M60.7,69.9c-0.1,0-0.1,0.1-0.1,0.1c0,0.1,0.1,0.1,0.1,0.1c0.1,0,0.1,0,0.1-0.1
		C60.8,70,60.8,69.9,60.7,69.9z M61.5,63.6c0,0.3,0.1,0.5,0.2,0.6c0.1,0.1,0.3,0.1,0.6,0.1c0-0.2-0.1-0.3-0.2-0.5
		C61.8,63.6,61.7,63.6,61.5,63.6z M61.3,58.8C61.3,58.8,61.3,58.8,61.3,58.8c0,0.1,0,0.1,0,0.1C61.4,58.9,61.4,58.9,61.3,58.8
		C61.4,58.8,61.4,58.8,61.3,58.8z M62.7,63.8C62.7,63.8,62.7,63.7,62.7,63.8c-0.1,0-0.1,0-0.1,0C62.6,63.8,62.7,63.8,62.7,63.8
		C62.7,63.8,62.8,63.8,62.7,63.8z M64.2,63.5C64.2,63.5,64.2,63.5,64.2,63.5c0,0.1,0,0.1,0,0.1C64.3,63.7,64.3,63.6,64.2,63.5
		C64.3,63.6,64.3,63.6,64.2,63.5z M65.4,71.7l0.1-0.1l-0.1-0.1L65.4,71.7z M66.5,71c0,0.2,0.1,0.3,0.2,0.3c0.1,0,0.3,0.1,0.4,0
		c0-0.1-0.1-0.2-0.2-0.3c-0.1-0.1-0.3-0.1-0.4-0.1C66.5,70.9,66.5,70.9,66.5,71L66.5,71z M67.2,70.1c-0.2,0.2-0.3,0.5-0.2,0.8
		c0.1,0,0.2,0,0.3,0c0.1,0,0.2-0.1,0.2-0.2l0,0c0-0.1-0.1-0.1-0.1-0.3S67.2,70.1,67.2,70.1z M67.5,69.4c0.3,0,0.6-0.1,0.8-0.3
		c0.2-0.2,0.3-0.4,0.3-0.8c-0.2,0-0.3,0-0.5,0c-0.1,0-0.3-0.1-0.5,0l-0.2,0L67.5,69.4z M67.8,70.3l0.1,0l-0.1-0.1L67.8,70.3z
		 M67.6,65.9c0,0-0.1,0,0,0.1c0,0.1,0,0.2,0.1,0.1c0,0,0-0.1,0-0.1C67.7,66,67.7,66,67.6,65.9z M67.7,66.6
		C67.6,66.6,67.6,66.6,67.7,66.6c0,0.1,0,0.1,0,0.1C67.7,66.7,67.7,66.7,67.7,66.6C67.7,66.6,67.7,66.6,67.7,66.6z M68.4,66.6
		c0,0.1,0,0.2-0.1,0.3c0,0.2-0.1,0.3-0.1,0.3l0,0.2c0.2,0,0.4-0.1,0.5-0.4c0.1-0.2,0.1-0.4,0.1-0.6c-0.1,0-0.1,0.1-0.2,0.1
		C68.6,66.6,68.5,66.7,68.4,66.6z M68.8,69.2l0.1,0l0-0.1l-0.1,0L68.8,69.2z M69,66c-0.1,0-0.1,0-0.1,0.1c0,0.1,0,0.1,0.1,0.1
		c0.1,0,0.1,0,0.1-0.1C69.1,66,69.1,66,69,66z"/>
</g>
<rect x="99.3" y="46.1" fill="none" stroke="#373232" stroke-width="3" stroke-miterlimit="10" width="54.6" height="44.9"/>
<g>
	<path fill="#373232" d="M139,71.3c0,0,0-0.1,0-0.2c0-0.1-0.1-0.2-0.1-0.2c0,0-0.1,0-0.2-0.1c-0.1,0-0.2,0-0.2,0c0,0-0.1,0-0.1,0
		c-0.1,0-0.1-0.1-0.1-0.1c0,0-0.1-0.1-0.2-0.2c-0.1-0.1-0.2-0.1-0.2-0.2c0,0-0.1,0-0.2,0c-0.1,0-0.2-0.1-0.3-0.1
		c-0.1,0-0.2-0.1-0.3-0.1c-0.1,0-0.1,0-0.2-0.1c-0.2-0.1-0.4-0.2-0.6-0.3s-0.3-0.3-0.5-0.4h-0.1c-0.1,0-0.1,0.1-0.2,0.2
		c0,0.1-0.1,0.2-0.1,0.2c-0.2,0-0.2-0.1-0.3-0.2c0-0.1-0.1-0.2-0.2-0.2l-0.1,0.1l-0.1,0.1c0,0-0.1,0.1-0.1,0.2c0,0.1,0,0.2,0.1,0.2
		c0,0-0.1,0-0.1,0c-0.1,0-0.1-0.1-0.1-0.1c0-0.1,0-0.2,0-0.3c0-0.1,0-0.1-0.1-0.2c0,0,0,0,0,0c0,0,0,0,0,0c0,0,0,0-0.1,0V70
		c-0.1,0-0.2,0.1-0.3,0.2c-0.1,0.1-0.2,0.2-0.3,0.2h-0.6c0,0,0,0.1,0,0.1c0,0,0,0.1-0.1,0.1h-0.2c-0.1,0-0.3,0-0.4,0
		c-0.2,0-0.3,0-0.3-0.1c0,0,0-0.1-0.1-0.2c0-0.1-0.1-0.1-0.1-0.2c-0.2-0.3-0.2-0.5-0.2-0.9c0-0.3,0-0.6,0-0.9c0-0.2,0-0.5,0.1-0.7
		c0-0.3,0.1-0.6,0.2-0.9c0.1-0.3,0.2-0.6,0.3-0.9c0.1-0.3,0.2-0.5,0.3-0.7c0.1-0.2,0.2-0.3,0.4-0.3c0.2-0.1,0.3-0.2,0.4-0.3
		c0,0,0.1-0.1,0.1-0.3c0.1-0.2,0.1-0.3,0.1-0.3c0,0,0.1,0,0.1-0.1c0,0,0,0,0.1,0c0,0,0.1,0,0.1,0c0,0,0.1-0.1,0.1-0.1
		c0.1-0.1,0.1-0.1,0.1-0.1c0,0,0-0.1,0-0.1c0,0,0-0.1,0-0.1c0,0,0,0,0.1-0.1c0,0,0.1-0.1,0.1-0.1c0,0.1,0,0.1,0,0.1c0,0,0.1,0,0.1,0
		c0.1,0,0.1,0,0.2-0.1c0.1-0.1,0.1-0.2,0.2-0.3c0.1-0.1,0.1-0.2,0.1-0.3c0-0.1,0.1-0.2,0.1-0.2c0.1,0,0.2,0,0.3,0
		c0.1,0,0.2,0,0.3-0.1c0.1,0,0.2-0.1,0.3-0.1c0.1-0.1,0.1-0.1,0.1-0.2h0.5c0,0,0-0.1,0-0.1c0-0.1,0.1-0.1,0.1-0.1c0,0,0.1,0,0.2,0
		c0.1,0,0.2,0,0.2,0c0.2-0.2,0.4-0.3,0.6-0.4c0.1-0.1,0.3-0.2,0.4-0.3C137.9,61,138,61,138,61c0,0,0-0.1,0-0.1s0-0.1,0-0.1
		c0,0,0-0.1,0.1-0.1c0.1-0.1,0.1-0.1,0.2-0.1c0,0,0-0.1,0.1-0.1c0-0.1,0-0.1,0.1-0.1c0,0,0.1-0.1,0.1-0.1c0.1-0.1,0.1-0.1,0.1-0.1
		c0-0.1,0.1-0.2,0.2-0.4c0.1-0.2,0.1-0.3,0.1-0.3c0,0,0-0.1,0-0.2c0-0.1,0-0.2,0-0.3c0-0.1,0-0.2,0-0.3c0-0.1,0-0.2,0-0.2
		c0,0,0-0.1,0.1-0.1c0-0.1,0.1-0.1,0.1-0.1c0-0.1,0.1-0.1,0.1-0.2c0-0.1,0.1-0.1,0.1-0.2c0,0,0,0-0.1,0c0,0-0.1-0.1-0.1-0.1
		c-0.1,0-0.2-0.1-0.4-0.1c-0.2-0.1-0.4-0.1-0.4-0.1v-0.3c0,0-0.1,0-0.2,0.1c-0.1,0-0.2,0.1-0.2,0.1c0,0-0.1-0.1-0.2-0.2
		c-0.1-0.1-0.1-0.2-0.1-0.2c-0.1,0-0.2-0.1-0.5-0.2c-0.2-0.1-0.4-0.1-0.5-0.1h-0.3c-0.4,0-0.8,0.1-1.2,0.2c-0.4,0.1-0.7,0.4-1,0.7
		v0.1c0,0.2,0,0.3,0.1,0.3l0.5,0.2c0.2,0.1,0.5,0.3,0.7,0.5c0.2,0.2,0.4,0.4,0.6,0.6c0,0,0,0,0,0.1c0,0,0,0.1,0,0.1
		c0,0.1,0,0.2-0.1,0.3s-0.1,0.3-0.2,0.3c-0.1,0-0.1-0.1-0.2-0.2c0-0.1-0.1-0.2-0.1-0.3c-0.2,0.1-0.4,0.2-0.6,0.2
		c0-0.1,0.1-0.2,0.2-0.2c0.1,0,0.2-0.1,0.2-0.2v-0.1c-0.2,0.1-0.3,0.1-0.4,0.2c-0.1,0-0.3,0.1-0.5,0.1H134c0-0.2-0.1-0.2-0.2-0.2
		c-0.1,0-0.2,0-0.3-0.1c-0.2-0.1-0.3-0.3-0.4-0.5c-0.1-0.2-0.2-0.4-0.3-0.5c0,0-0.1-0.1-0.2-0.1c-0.1,0-0.3-0.1-0.4-0.1
		c-0.1,0-0.2-0.1-0.3-0.1c-0.1,0-0.2-0.1-0.2-0.1v-2c-0.1,0-0.1-0.1-0.1-0.1c0-0.1,0-0.1,0-0.2c0.2,0,0.3-0.1,0.4-0.2
		c0.1-0.1,0.2-0.3,0.3-0.4c0.1,0,0.1,0,0.2,0c0.1,0,0.2,0,0.3,0c0.1,0,0.2,0,0.3-0.1c0.1,0,0.2,0,0.2-0.1c0,0,0.1,0,0.1-0.1
		c0.1-0.1,0.1-0.1,0.2-0.1c0.2-0.1,0.3-0.1,0.4-0.1s0.2-0.1,0.3-0.2h1c0-0.1,0-0.2,0-0.2c0,0,0-0.1-0.1-0.2h0.1h0.1
		c0.3,0.1,0.6,0.2,0.9,0.4c0.3,0.1,0.5,0.4,0.6,0.8h0.1c0.1,0,0.1-0.1,0.2-0.2c0-0.1,0.1-0.2,0.2-0.2c0,0,0,0,0.1,0c0,0,0.1,0,0.1,0
		c0,0,0.1,0,0.2,0c0.1,0,0.2,0,0.2,0.1c0,0,0.1,0,0.2,0c0.1,0,0.2,0,0.3,0s0.2,0,0.3,0.1c0.1,0,0.1,0.1,0.1,0.2c0,0,0,0.1,0.1,0.3
		c0,0.2,0,0.3,0,0.3c0.2,0.1,0.4,0.2,0.6,0.4s0.4,0.4,0.4,0.5c0,0,0,0.1,0,0.2c0,0.1,0,0.2,0,0.2c0.1,0,0.2,0,0.3-0.1
		c0.1,0,0.1-0.1,0.2-0.1c0,0,0,0,0.1,0c0,0,0,0,0.1,0c0.1,0,0.1,0,0.2,0.1c0.1,0,0.1,0,0.1,0c0,0,0,0.1,0,0.2c0,0.1,0,0.2,0,0.2
		c0,0,0.1,0.1,0.2,0.2c0.1,0.1,0.2,0.2,0.2,0.2c0.1,0.1,0.1,0.3,0.1,0.5c0,0.2,0,0.4,0,0.5c0,0.2,0,0.4-0.1,0.6
		c0,0.2-0.1,0.4-0.1,0.6c0,0.2,0,0.4,0,0.6c0,0.2,0,0.3,0.1,0.5c0,0-0.1,0.1-0.3,0.2c-0.1,0.1-0.2,0.2-0.3,0.2c0,0-0.1,0-0.2-0.1
		c-0.1-0.1-0.2-0.2-0.3-0.2c0,0,0,0.1,0,0.1c0,0.1,0,0.1,0.1,0.2c0,0.1,0,0.2,0.1,0.2c0,0.1,0,0.1,0,0.1c0,0,0,0.1,0.1,0.1
		c0,0.1,0.1,0.1,0.1,0.1v0.2c0,0.1,0,0.3-0.1,0.3c0,0.1-0.1,0.1-0.2,0.1c-0.1,0-0.2-0.1-0.2-0.2c0-0.1-0.1-0.2-0.2-0.2h0
		c0,0.2,0,0.3-0.1,0.4c-0.1,0.1-0.1,0.2-0.2,0.3c-0.1,0.1-0.2,0.2-0.2,0.3c-0.1,0.1-0.1,0.2-0.1,0.4c0,0,0-0.1-0.1-0.2
		c0-0.1-0.1-0.1-0.1-0.2l-0.1,0c-0.1,0-0.2,0-0.2,0.1c-0.1,0-0.1,0.1-0.3,0.1v0.6c0,0,0,0-0.1,0.1c-0.1,0-0.1,0-0.1,0
		c0,0-0.1,0-0.2,0s-0.2,0-0.2,0l-0.2,0.2c0,0-0.1,0-0.1-0.1c0,0-0.1-0.1-0.1-0.1c0,0,0.1-0.1,0.1-0.1c0,0,0-0.1,0.1-0.1v-0.1V64
		c-0.1,0-0.1,0-0.2-0.1l-0.1,0c0,0,0,0-0.1,0c0,0-0.1,0.1-0.1,0.1c-0.1,0-0.1,0.1-0.1,0.1v0.1v0.1c0,0,0,0.1,0.1,0.1
		c0,0.1,0.1,0.1,0.1,0.1c-0.2,0.1-0.3,0.2-0.4,0.3c-0.1,0.1-0.2,0.2-0.3,0.2c-0.1,0.1-0.2,0.1-0.2,0.1l0.1,0.1l-0.3,0.5
		c-0.1,0-0.1,0.1-0.3,0.3c-0.1,0.2-0.2,0.3-0.2,0.3c0,0.1,0.1,0.1,0.3,0c0.1-0.1,0.2-0.1,0.3-0.1h0.1c0,0,0.1-0.1,0.1-0.1
		c0-0.1,0-0.1,0.1-0.1c0,0,0,0,0.1,0c0.1,0,0.1,0,0.1,0l0.1-0.2h0.1c0.1,0,0.1,0,0.1,0c0,0,0,0,0,0c0,0,0,0,0,0
		c0.1,0.1,0.2,0.2,0.3,0.2c0.2,0,0.3,0,0.4,0.1c0,0,0,0.1,0.1,0.1l0.1,0.1c0.2,0.1,0.3,0.2,0.5,0.2c0.2,0,0.4,0,0.5,0
		c0,0,0,0.1,0,0.1v0.1c0,0,0,0,0,0.1c0,0-0.1,0.1-0.3,0.1c-0.1,0-0.2,0.1-0.3,0.1v1.2c0,0.1,0,0.1,0.1,0.1c0,0,0.1-0.1,0.1-0.2
		c0-0.2,0-0.3,0.1-0.5c0-0.2,0.1-0.4,0.1-0.5c0.1-0.1,0.2-0.2,0.3-0.2l0.3,0.4c0,0.1,0,0.1,0,0.2c0,0.1,0.1,0.1,0.2,0.1
		c0.1,0,0.2,0,0.2-0.1c0.1,0,0.1-0.1,0.2-0.1c0.1,0,0.2,0,0.2,0.1c0,0.1,0.1,0.1,0.1,0.2h0.5c0,0-0.1,0-0.2-0.1
		c-0.1-0.1-0.1-0.1-0.2-0.1l0-0.1l0-0.1c0,0,0,0,0.1-0.1c0,0,0-0.1,0.1-0.1c0.1,0,0.2,0.1,0.4,0.1c0.2,0.1,0.3,0.1,0.3,0.1
		c0,0,0.2,0,0.3,0c0.2,0,0.3,0,0.3,0c0,0,0.1,0,0.1,0.1c0.1,0,0.1,0,0.1,0.1c0,0,0,0.1,0,0.2c0,0.1,0,0.2,0.1,0.2c0,0,0.1,0,0.2,0
		c0.1-0.1,0.1-0.1,0.1-0.1c0,0,0,0,0,0c0,0,0,0,0,0c0,0,0-0.1-0.1-0.1c0-0.1-0.1-0.1-0.1-0.1l0-0.1v-0.1h0.1c0.1,0,0.1,0,0.2,0.1
		c0.1,0,0.1,0,0.1,0l0,0.1c0,0.2-0.1,0.4-0.2,0.4c-0.1,0.1-0.2,0.2-0.3,0.3v0.1c0,0.1-0.1,0.2-0.2,0.3c-0.1,0-0.1,0.1-0.2,0.1
		c-0.1,0-0.2,0-0.2,0c-0.1,0-0.1,0-0.2,0l0.2,0.3c0,0,0,0,0,0.1c0,0-0.1,0-0.1,0c-0.1,0-0.2,0-0.2-0.1c0-0.1-0.1-0.1-0.1-0.2
		c0-0.1,0-0.2,0-0.2c0-0.1-0.1-0.1-0.2-0.1c-0.1,0-0.1,0.1-0.1,0.2c0,0.1,0,0.2,0,0.3c0,0.1-0.1,0.2-0.2,0.2c-0.1,0-0.3,0-0.6-0.2
		v-0.7c0,0,0,0-0.1,0l-0.1-0.1c0,0,0,0.1-0.1,0.1c0,0.1,0,0.1,0,0.1c0,0.1,0,0.2,0,0.5c0,0.2,0,0.4,0,0.5l0.1,0.1c0,0,0-0.1,0.1-0.1
		c0-0.1,0-0.1,0-0.1c0.1,0.1,0.2,0.2,0.2,0.2c0.1,0.1,0.1,0.2,0.1,0.3c0,0.1,0,0.1-0.1,0.2c0,0-0.1,0.1-0.1,0.2c0,0.1,0,0.1,0,0.1
		c0,0,0-0.1,0-0.2c0-0.1,0-0.2,0.1-0.2c0-0.1,0.1-0.1,0.2-0.1l0.3-0.2c0.1-0.1,0.1-0.1,0.2-0.1c0.1-0.1,0.2-0.1,0.2-0.1l-0.2,1.3
		c-0.4,0-0.7,0.1-0.9,0.2c-0.2,0.1-0.5,0.2-0.8,0.2c-0.2,0-0.3,0-0.4,0C139.3,71.4,139.2,71.4,139,71.3z M132.5,65.9L132.5,65.9
		c0.1,0,0.1-0.1,0.1-0.2c0-0.1,0.1-0.2,0.2-0.2l-0.1-0.1l-0.1-0.1l-0.1,0l-0.1,0V65.9z M133,65c-0.1,0-0.1,0-0.1,0.1
		c0,0.1,0,0.1,0.1,0.1c0.1,0,0.1,0,0.1-0.1C133.1,65,133,65,133,65z M133.3,65.4c-0.1,0-0.1,0-0.1,0.1c0,0.1,0,0.1,0.1,0.1
		c0.1,0,0.1,0,0.1-0.1C133.4,65.5,133.4,65.4,133.3,65.4z M133.4,64.9h0.1l-0.1-0.1V64.9z M133.5,64.3c0.1,0,0.2,0.1,0.3,0.1
		c0.1,0,0.2,0.1,0.3,0.1c0-0.1,0-0.2-0.1-0.2c-0.1,0-0.2,0-0.3,0c0,0-0.1,0-0.2,0C133.6,64.2,133.6,64.3,133.5,64.3z M133.6,68.9
		c-0.1,0-0.1,0-0.1,0.1c0,0.1,0,0.1,0.1,0.1c0.1,0,0.1,0,0.1-0.1C133.7,69,133.7,68.9,133.6,68.9z M133.8,57.4
		C133.8,57.4,133.8,57.5,133.8,57.4c-0.1,0.2-0.1,0.2,0,0.2c0.1,0,0.1,0,0.1-0.1C133.9,57.5,133.9,57.4,133.8,57.4z M134.5,66.4
		c0,0.1,0,0.3,0.1,0.4c0.1,0.1,0.2,0.2,0.3,0.2h0.1c0,0,0,0,0.1,0c0,0,0,0,0.1-0.1c0,0,0.1-0.1,0.2-0.2l0-0.1c0,0,0,0,0-0.1
		c-0.1,0-0.2-0.1-0.3-0.1C134.8,66.4,134.6,66.4,134.5,66.4z M134.8,63.6C134.8,63.6,134.8,63.6,134.8,63.6l0.1,0.1c0,0,0,0.1,0,0.2
		c0,0.1,0,0.2,0,0.3c0,0.1,0,0.2,0,0.3c0,0.1,0,0.2,0,0.2c0.1,0,0.1,0,0.1-0.1c0,0,0.1-0.1,0.1-0.2c0-0.1,0-0.1,0.1-0.2l0.1-0.1
		l0.1-0.1V64c0,0,0-0.1,0.1-0.2c0-0.1,0.1-0.2,0.1-0.2c0-0.1,0-0.1-0.1-0.1c-0.1,0-0.1,0-0.2-0.1c-0.1,0-0.1,0-0.2-0.1
		c-0.1,0-0.1-0.1-0.1-0.2c0,0-0.1,0.1-0.1,0.2c0,0.1,0,0.1,0,0.2L134.8,63.6z M135,69C135,69,135,69,135,69c-0.1-0.1-0.1,0-0.1,0
		C134.9,69.1,134.9,69.1,135,69C135,69.1,135,69.1,135,69z M135.2,62.6c-0.1,0-0.1,0-0.1,0.1v0.1v0.1l0.1-0.1V62.6L135.2,62.6z
		 M135.2,54.5c0,0.1,0,0.2,0.1,0.2c0.1,0,0.2,0,0.2,0v-0.4c0,0-0.1,0-0.2,0C135.3,54.4,135.2,54.4,135.2,54.5L135.2,54.5z
		 M135.2,68.9c0,0,0.1,0.1,0.1,0.2c0.1,0.1,0.1,0.1,0.1,0.2c0,0,0-0.1,0.1-0.1c0-0.1,0-0.1,0-0.1V69v-0.1c0,0,0-0.1,0-0.1
		c0-0.1,0-0.1-0.1-0.1h0c0,0,0,0-0.1,0l-0.1,0c-0.1,0-0.1,0-0.1,0.1V68.9L135.2,68.9z M135.3,66.6c0.1-0.1,0.1-0.2,0.1-0.2
		c0-0.1,0-0.1,0-0.2c0,0,0-0.1,0-0.2c0-0.1,0-0.1-0.1-0.2l-0.1,0.2L135.3,66.6z M135.4,64.7c-0.1,0-0.1,0-0.1,0.1
		c0,0.1,0,0.1,0.1,0.1c0.1,0,0.1,0,0.1-0.1C135.5,64.7,135.5,64.7,135.4,64.7z M135.4,65.7c0.1,0,0.1-0.1,0.1-0.2h-0.1V65.7z
		 M136.8,66.6c-0.1,0-0.2,0-0.2,0.1c0,0.1-0.1,0.2-0.1,0.2c0.1,0,0.2,0,0.2-0.1C136.8,66.7,136.8,66.6,136.8,66.6z M136.9,69.7
		c0,0.2,0.1,0.2,0.2,0.2c0.2,0,0.3,0,0.4,0c0-0.1-0.1-0.2-0.2-0.2C137.2,69.7,137.1,69.7,136.9,69.7z M137.2,66.3
		c0,0.2-0.1,0.3-0.1,0.4c0,0.1,0,0.2-0.1,0.3c0,0.1,0,0.2-0.1,0.2v0.1v0.1c0,0,0.1,0,0.1,0.1c0.1,0.1,0.1,0.1,0.2,0.2
		c0.1,0.1,0.1,0.1,0.1,0c0-0.1,0.1-0.2,0.1-0.5c0,0,0,0,0.1-0.1l0.1-0.1c0,0,0-0.1,0-0.1c0-0.1,0-0.2,0-0.2c0-0.1,0-0.2,0-0.2
		c0-0.1,0-0.1,0-0.1H137.2z M137.5,62.4c0,0.1,0,0.2,0.1,0.2v-0.2H137.5z M137.8,68.7l0.1-0.1l-0.1-0.1V68.7z M138.7,68.5
		c0,0.1,0,0.1,0.1,0.1c0,0,0.1,0,0.2,0c0.1,0,0.1,0.1,0.2,0.1c0.1,0.1,0.1,0.2,0.1,0.3c0,0,0-0.1,0.1-0.2c0-0.1,0.1-0.1,0.1-0.2
		c0,0,0,0,0.1,0c0,0,0.1,0,0.1,0c0,0.1,0,0.2,0,0.2c0,0.1,0.1,0.1,0.2,0.1c0-0.1,0-0.3,0-0.5c0-0.2-0.1-0.4-0.2-0.4c0,0-0.1,0-0.1,0
		c-0.1,0-0.1,0-0.1,0v-0.4L138.7,68.5L138.7,68.5z M139.1,62.5l0.1,0.3l0.1,0.1l0.1-0.1c0,0,0,0,0-0.1c0-0.1,0.1-0.1,0.1-0.1
		l0.1-0.4c0-0.1-0.1-0.1-0.2,0c-0.1,0.1-0.2,0.1-0.3,0.1L139.1,62.5z M139.6,67.9C139.6,67.9,139.5,67.9,139.6,67.9
		c-0.1,0.1,0,0.2,0,0.2C139.7,68,139.7,67.9,139.6,67.9z M139.7,68.1c-0.1,0-0.1,0-0.1,0.1c0,0.1,0,0.1,0.1,0.1c0.1,0,0.1,0,0.1-0.1
		C139.8,68.1,139.8,68.1,139.7,68.1z M139.8,68.2c-0.1,0-0.1,0-0.1,0.1c0,0.1,0,0.1,0.1,0.1c0,0,0.1,0,0.1-0.1
		C139.9,68.2,139.9,68.2,139.8,68.2z M139.9,68.5l0.1-0.1h-0.1V68.5z M140.2,60.4c0,0-0.1,0-0.1,0.1c0,0.1-0.1,0.2-0.1,0.2
		c0,0.1,0,0.2-0.1,0.2c0,0.1,0,0.1,0,0.1s0.1,0,0.1-0.1c0-0.1,0.1-0.2,0.1-0.2c0-0.1,0-0.2,0.1-0.2
		C140.3,60.4,140.2,60.4,140.2,60.4z M140.7,68.9l0.1-0.1h-0.1V68.9z"/>
</g>
<rect x="174.8" y="50.6" fill="none" stroke="#373232" stroke-width="3" stroke-miterlimit="10" width="54.6" height="44.9"/>
<g>
	<path fill="#373232" d="M219.2,77.4c-0.1-0.2-0.2-0.2-0.4-0.2c-0.2,0-0.3-0.1-0.4-0.2c0,0-0.1-0.1-0.2-0.3
		c-0.1-0.2-0.2-0.3-0.2-0.4l-0.4-0.8c0-0.1,0-0.2,0-0.4c0-0.2,0-0.4,0-0.6c0-0.2,0-0.4,0-0.6c0-0.2,0-0.3,0-0.4c0,0,0-0.1,0-0.1
		c0-0.1,0-0.1,0-0.2c0-0.1,0-0.1,0-0.2c0-0.1,0-0.1,0-0.1c0,0,0-0.1,0-0.2s0-0.2,0-0.4s0-0.2,0-0.4s0-0.2,0-0.2c0-0.1,0-0.2-0.1-0.5
		c0-0.2,0-0.4-0.1-0.5c-0.1,0-0.2,0-0.5-0.1c-0.2,0-0.4-0.1-0.4-0.1c-0.3-0.1-0.4-0.1-0.5-0.2c-0.1-0.1-0.1-0.1-0.2-0.2
		c0-0.1-0.1-0.2-0.1-0.3c0-0.1-0.1-0.2-0.3-0.3c-0.1,0-0.1,0.1-0.2,0.2c0,0.1-0.1,0.2-0.1,0.3c0,0.1,0,0.3,0,0.4s0,0.2,0,0.3
		c-0.2,0-0.4-0.1-0.7-0.2c-0.2-0.1-0.4-0.2-0.6-0.3c0,0,0,0-0.1-0.1c0,0-0.1-0.1-0.1-0.1h0c0,0,0,0-0.1,0c0,0-0.1,0-0.2,0.1
		c-0.1,0.1-0.2,0.1-0.2,0.2c-0.1,0.1-0.2,0.1-0.3,0.1c-0.1,0-0.2,0.1-0.2,0.3h-2.6c0,0-0.1,0-0.1-0.1c-0.1,0-0.1-0.1-0.1-0.1h-0.9
		c0,0-0.1,0-0.3-0.1c-0.2-0.1-0.3-0.1-0.3-0.1c0,0-0.1,0-0.3,0c-0.1,0-0.2,0-0.3,0l-0.3-0.3c0,0,0,0-0.1,0c0,0-0.1,0-0.1,0
		c-0.1-0.1-0.2-0.3-0.2-0.5c0-0.2-0.1-0.3-0.2-0.5c-0.1-0.1-0.1-0.2-0.1-0.3c0-0.1,0-0.2,0-0.5c0,0,0-0.1,0-0.2c0-0.1,0-0.2,0-0.3
		c0.1-0.1,0.2-0.2,0.4-0.2c0.3,0,0.5,0.1,0.5,0.2c0.1,0.1,0.2,0.2,0.2,0.2c0.2,0,0.3-0.1,0.4-0.2c0.1-0.1,0.2-0.2,0.3-0.4
		c0.1-0.2,0.1-0.3,0.2-0.5c0.1-0.2,0.1-0.3,0.2-0.4c0,0,0.1-0.1,0.1-0.1c0.1-0.1,0.1-0.1,0.1-0.1c0-0.1,0-0.1,0-0.3
		c0-0.1,0-0.2,0.2-0.3c0,0,0.1,0,0.2,0c0.1,0,0.1,0,0.2,0c0-0.1,0-0.2-0.1-0.3c0-0.1-0.1-0.1-0.3-0.1c0,0,0.1-0.1,0.3-0.1
		c0.1-0.1,0.2-0.1,0.3-0.1c0,0,0.1,0,0.3-0.1c0.1,0,0.2-0.1,0.3-0.1c0,0,0-0.1,0-0.3c0-0.1,0-0.2,0-0.3c0-0.1,0.1-0.1,0.2-0.2
		c0.1-0.1,0.2-0.1,0.3-0.2c0.1-0.1,0.2-0.1,0.2-0.2c0.1-0.1,0.1-0.2,0-0.2c0.1,0,0.1-0.1,0.3-0.1c0.1,0,0.2,0,0.2,0
		c0,0,0.1,0,0.2,0.1s0.2,0.1,0.2,0.1h0.1c0.2,0,0.2-0.1,0.2-0.2c0-0.1,0-0.3,0-0.3c0,0,0.1-0.1,0.2-0.1c0.1,0,0.2-0.1,0.3-0.1
		c0.1,0,0.3-0.1,0.4-0.1c0.1-0.1,0.2-0.1,0.2-0.2c0,0,0-0.1,0.1-0.1c0-0.1,0.1-0.1,0.1-0.1c0,0,0,0,0.1-0.1c0.1,0,0.1,0,0.1,0
		c0,0,0,0,0-0.1c0,0,0-0.1,0-0.1h-0.2v-0.4c0,0,0.1,0,0.2,0c0.1,0,0.2,0,0.3,0l0.1,0.1c0,0,0,0,0.1,0c0,0,0.1,0,0.1,0
		c0.1,0,0.2,0,0.2-0.1c0.1-0.1,0.1-0.1,0.2-0.2c0.1-0.1,0.1-0.1,0.2-0.2c0.1-0.1,0.1-0.1,0.2-0.1c0.1,0,0.2,0,0.3,0
		c0.2,0,0.3,0,0.3,0v-0.4c-0.1,0-0.2,0-0.2,0c0,0-0.1,0-0.1,0c0,0,0,0,0,0c0,0,0,0-0.1,0c-0.1,0-0.2-0.1-0.3-0.2s-0.1-0.3-0.1-0.3
		V61V61c0,0,0-0.1,0.1-0.1c0-0.1,0-0.1,0.1-0.1c0-0.1,0.1-0.1,0.1-0.2c0.1-0.1,0.1-0.2,0.1-0.2c0,0,0.1,0,0.3-0.1
		c0.2,0,0.3,0,0.3-0.1c0,0,0.1-0.1,0.1-0.3c0.1-0.2,0.1-0.3,0.1-0.3c0,0,0.1,0,0.1-0.1c0.1,0,0.1,0,0.1-0.1c0,0,0.1-0.1,0.1-0.2
		c0.1-0.1,0.1-0.2,0.1-0.3h0.1c0.2,0,0.3,0,0.4,0.1c0.1,0.1,0.3,0.2,0.4,0.2c0.1,0.1,0.3,0.2,0.4,0.2c0.1,0.1,0.3,0.1,0.5,0.1
		c0,0.1,0,0.3-0.1,0.4c-0.1,0.2-0.2,0.3-0.3,0.5c-0.1,0.2-0.2,0.4-0.3,0.5c-0.1,0.2-0.2,0.3-0.3,0.4c-0.1,0.1-0.2,0.1-0.3,0.2
		c-0.1,0-0.2,0.1-0.2,0.2v0.3c-0.2,0.3-0.4,0.7-0.7,1.1c-0.3,0.4-0.6,0.7-0.9,1c0,0-0.1,0.1-0.2,0.2c-0.1,0.1-0.2,0.2-0.3,0.3
		c-0.1,0.1-0.2,0.2-0.3,0.3c-0.1,0.1-0.1,0.1-0.2,0.2c0,0-0.1,0-0.1,0.1c-0.1,0-0.1,0.1-0.1,0.1c0,0,0,0-0.1,0.1
		c0,0-0.1,0.1-0.1,0.1c0,0,0,0.1-0.1,0.1c0,0.1-0.1,0.2-0.1,0.2c0,0.1-0.1,0.2-0.1,0.3c0,0.1-0.1,0.1-0.1,0.1c0,0-0.1,0-0.3,0.1
		c-0.2,0-0.3,0-0.3,0.1c0,0-0.1,0.1-0.1,0.2c-0.1,0.1-0.1,0.2-0.1,0.2c0,0-0.1,0-0.1,0h-0.1c-0.1,0-0.3,0-0.4-0.1
		c-0.1,0-0.2-0.1-0.3-0.1c0,0.1,0,0.2,0.1,0.2c0.1,0.1,0.1,0.1,0.2,0.3c-0.1,0-0.1,0-0.2,0c-0.1,0-0.2,0.1-0.2,0.1c0,0,0,0.1,0,0.2
		c0,0.1,0,0.2,0,0.2c0,0,0,0-0.1,0.1l-0.1,0.1v0.1c-0.1,0.1-0.1,0.1-0.2,0.1c-0.1,0-0.2,0-0.2,0s-0.2,0-0.2,0
		c-0.1,0-0.1,0.1-0.1,0.1c0,0,0.1,0.1,0.3,0.1c0.1,0.1,0.2,0.1,0.3,0.1c0,0,0.1,0,0.1,0c0.1,0,0.1,0,0.1,0v-0.3
		c0.2,0,0.2,0.1,0.3,0.2c0,0.1,0.1,0.3,0.1,0.3c0,0,0,0,0.1,0c0,0,0.1,0,0.1,0v-0.2c0.2,0,0.3,0,0.5,0.1c0.2,0.1,0.2,0.2,0.2,0.5
		c0.1,0,0.1-0.1,0.1-0.1c0-0.1,0-0.1,0-0.2c0-0.1,0-0.1,0-0.2c0-0.1,0-0.1,0.1-0.1c0,0,0.1,0,0.2,0c0.1,0,0.2,0,0.3-0.1
		c0.1,0,0.2,0,0.3,0c0.1,0,0.2,0,0.2,0c0.1,0,0.3,0,0.7,0c0.3,0,0.7,0,1,0c0.3,0,0.7,0,1,0c0.3,0,0.5,0,0.6,0l0.1-0.1
		c0,0,0-0.1,0.1-0.2c0-0.1,0-0.2,0.1-0.4c0-0.1,0.1-0.3,0.1-0.4c0-0.1,0-0.2,0.1-0.3c0,0,0-0.1,0-0.2c0-0.1,0-0.2,0-0.3s0-0.2,0-0.3
		s0-0.1,0-0.2c0,0,0-0.1,0.1-0.2c0-0.1,0.1-0.2,0.1-0.2c0.1-0.3,0.1-0.5,0.2-0.7c0-0.2,0.1-0.4,0.1-0.6c0-0.2,0-0.4,0.1-0.6
		c0-0.2,0-0.5,0.1-0.7c0-0.1,0.1-0.1,0.1-0.1c0.1,0,0.1,0,0.2,0c0,0,0.1,0,0.2,0c0.1,0,0.1,0.1,0.1,0.1c0,0.1,0,0,0-0.1
		c0-0.1,0-0.1-0.1,0c0.1,0.2,0.3,0.3,0.5,0.4c0.2,0.1,0.4,0.1,0.7,0.1c0,0,0,0.1-0.1,0.2c0,0.1-0.1,0.2-0.1,0.2c0,0,0-0.1,0-0.1
		c0-0.1-0.1-0.1-0.1-0.1c0,0-0.1,0-0.2,0c-0.1,0-0.1,0.1-0.2,0.1c0,0,0,0,0,0c0,0,0,0,0,0c0,0,0.1,0.1,0.2,0.2
		c0.1,0.1,0.2,0.2,0.2,0.2c0,0,0.1,0.1,0.2,0.3c0.1,0.2,0.2,0.3,0.3,0.3c0,0,0,0,0,0c0,0,0,0,0,0c-0.1-0.1-0.1-0.2-0.1-0.2
		c0-0.1-0.1-0.1-0.1-0.2c0,0,0.1,0,0.2,0c0.1,0,0.2,0,0.2,0.1c0.1,0,0.2,0.1,0.2,0.2c0,0.1,0.1,0.2,0.2,0.3c0,0,0.1,0,0.2,0.1
		c0.1,0,0.2,0.1,0.2,0.1v0c0,0,0,0,0,0.1l0,0.1c0,0-0.1,0-0.2,0.1c-0.1,0-0.2,0.1-0.2,0.1c0,0.1,0,0.1,0.1,0.1c0.1,0,0.2,0,0.3,0
		c0.2,0,0.3,0,0.4,0c0,0,0,0.1,0,0.2c0,0.1,0,0.2-0.1,0.3c0,0.1-0.1,0.1-0.2,0.1c-0.1,0-0.2,0-0.2,0.1c-0.1,0.1-0.1,0.2-0.1,0.2
		c0,0-0.1,0.1-0.3,0.1h0.7c0,0.2-0.1,0.5-0.2,0.7c-0.1,0.2-0.2,0.4-0.2,0.7c0,0.1,0,0.2,0.1,0.4c0,0.2,0.1,0.3,0.2,0.3
		c0,0,0.1,0,0.1-0.1c0.1,0,0.1-0.1,0.1-0.1c0.3-0.1,0.5-0.1,0.6-0.1c0.1,0,0.4,0,0.7,0h0.8c0,0,0.1,0,0.2,0.1s0.2,0.1,0.2,0.1
		c0.1,0,0.1,0,0.3,0.1c0.1,0,0.2,0.1,0.3,0.1h0.1h0.1c0,0,0.1,0,0.2-0.1c0.1,0,0.2-0.1,0.2-0.1c0.1,0,0.2,0,0.3,0.1
		c0.2,0,0.3,0.1,0.3,0.1c0,0,0.1,0.1,0.2,0.1c0.1,0.1,0.1,0.1,0.1,0.1c0,0,0,0.1-0.1,0.2c-0.1,0.1-0.1,0.2-0.1,0.2v0.1
		c0,0.1,0.1,0.2,0.2,0.2c0.1,0.1,0.2,0.1,0.2,0.1c-0.2,0.2-0.3,0.3-0.3,0.5v0.1c0,0,0,0,0,0.1c0,0,0,0.1,0.1,0.3
		c0.1,0.1,0.1,0.2,0.1,0.3v0.1v0.1c-0.1-0.2-0.3-0.3-0.5-0.4c-0.2,0-0.4-0.1-0.6-0.1c0,0-0.1,0-0.2,0c-0.1,0-0.2,0-0.2,0
		c-0.1,0.1-0.2,0.2-0.2,0.3c-0.1,0.1-0.1,0.2-0.2,0.2l-0.1-0.1c0,0-0.1,0-0.1,0c0,0,0,0-0.1,0l-0.1-0.1h-0.1c0,0,0,0-0.1,0
		c0,0.2,0,0.3-0.1,0.4c-0.1,0-0.1,0.1-0.2,0.1c-0.1,0-0.1,0-0.2,0.1c-0.1,0-0.1,0.1-0.1,0.3c0,0,0,0,0,0c0,0,0,0,0,0
		c-0.1,0-0.2-0.1-0.4-0.2c-0.2-0.1-0.3-0.2-0.3-0.2c0,0-0.1-0.1-0.1-0.1c0-0.1-0.1-0.1-0.1-0.1h-1.2c0-0.2-0.1-0.3-0.3-0.3
		c-0.2,0-0.3-0.1-0.5-0.1h-0.1c0,0,0,0.1-0.1,0.1c0,0.1-0.1,0.1-0.1,0.1h-0.8c0,0-0.1,0-0.1,0.1c0,0.1,0,0.1,0,0.2
		c0,0.1,0,0.2,0,0.3v0.3c0,0,0.1,0.1,0.1,0.2c0.1,0.1,0.1,0.2,0.1,0.2c0,0,0,0.1,0.1,0.3c0.1,0.2,0.1,0.2,0.2,0.3c0,0,0.1,0,0.3,0
		c0.1,0,0.2,0,0.3,0c0,0,0,0,0.1,0.1c0,0,0,0,0,0.1c-0.1,0.1-0.2,0.2-0.3,0.2c-0.1,0-0.2,0.1-0.3,0.1c-0.1,0-0.2,0-0.2,0.1
		c-0.1,0-0.1,0.1-0.1,0.2c0,0.1,0,0.2,0,0.3c0,0.1,0,0.2,0,0.4c0,0.1,0,0.2,0.1,0.3c0,0.1,0.1,0.2,0.2,0.2l-0.2,0.1
		c-0.1,0.1-0.2,0.1-0.2,0.2c0,0,0,0.1,0.1,0.1c0,0.1,0.1,0.1,0.1,0.1v0.1v0.1c-0.1,0.1-0.2,0.2-0.4,0.2c-0.2,0-0.3,0-0.4,0.1
		c0.1,0.1,0.1,0.2,0.3,0.2c0.1,0,0.3,0.1,0.5,0.1c0.2,0,0.3,0.1,0.4,0.2c0.1,0.1,0.2,0.2,0.2,0.3h-0.5c0,0,0,0,0,0.1v0.1
		c0,0,0,0,0.1,0.1c0.1,0,0.1,0.1,0.1,0.1c0,0,0,0.1,0.1,0.2c0,0.1,0,0.2,0.1,0.2h0.1h0.1c0,0,0.1,0.1,0.2,0.3
		c0.1,0.1,0.1,0.2,0.1,0.3c0,0.1,0,0.1-0.1,0.1c0,0-0.1,0-0.2,0c-0.2,0-0.3-0.1-0.4-0.3c-0.1,0-0.1,0.1-0.1,0.1c0,0,0,0.1,0,0.1
		L219.2,77.4z M209,70.5c-0.1,0-0.1,0-0.2,0.1c-0.1,0.1-0.1,0.1-0.1,0.2h0.3V70.5z M209,67.5c-0.1,0-0.1,0-0.1,0.1
		c0,0.1,0,0.1,0.1,0.1c0.1,0,0.1,0,0.1-0.1C209.1,67.5,209.1,67.5,209,67.5z M209.9,67.2c-0.1,0-0.1,0-0.1,0.1s0,0.1,0.1,0.1
		c0.1,0,0.1,0,0.1-0.1S210,67.2,209.9,67.2z M210.1,66.8c0,0.1,0,0.2,0.1,0.3c0.1,0.1,0.2,0.1,0.3,0.1h0.1c0,0,0,0,0.1,0
		C210.4,66.9,210.3,66.8,210.1,66.8L210.1,66.8z M211.6,67.2c-0.2,0-0.3,0.1-0.3,0.2c0,0.1-0.1,0.3-0.1,0.4c0.2,0,0.3-0.1,0.3-0.2
		C211.5,67.5,211.6,67.3,211.6,67.2z M211.3,65c0.2,0,0.3-0.1,0.3-0.2c0-0.1,0.1-0.3,0.1-0.4h-0.4V65z M211.6,65.3
		C211.6,65.2,211.6,65.2,211.6,65.3c-0.1-0.1-0.1,0-0.1,0C211.5,65.3,211.5,65.3,211.6,65.3C211.6,65.3,211.6,65.3,211.6,65.3z
		 M212.1,64.9c0,0,0-0.1-0.1-0.1c-0.1,0-0.2,0-0.1,0.1c0,0,0.1,0.1,0.2,0.1C212.1,64.9,212.1,64.9,212.1,64.9z M212,65.5
		c0,0.1,0,0.3,0.1,0.5c0,0.2,0.2,0.3,0.4,0.3c0-0.1,0-0.3-0.1-0.5C212.3,65.6,212.2,65.5,212,65.5z M212.4,65.1h0.1V65L212.4,65.1z
		 M212.5,64.1h0.4V64h-0.4V64.1z M212.5,68.8h0.1v-0.1h-0.1V68.8z M215.4,61.3C215.4,61.3,215.4,61.3,215.4,61.3
		c-0.1-0.1-0.1,0-0.1,0C215.3,61.4,215.3,61.4,215.4,61.3C215.4,61.4,215.4,61.4,215.4,61.3z M215.5,60.6h0.3l-0.3-0.1V60.6z
		 M216.7,59.7h0.3l-0.3-0.1V59.7z M218.7,65.1h0.1V65L218.7,65.1z M218.8,65.5c-0.1,0-0.1,0-0.1,0.1c0,0.1,0,0.1,0.1,0.1
		c0.1,0,0.1,0,0.1-0.1C218.9,65.6,218.9,65.5,218.8,65.5z M219.2,71.8h0.1v-0.2h-0.1V71.8z M219.4,67.7c0,0.1,0,0.2,0.1,0.3
		c0,0.1,0.1,0.1,0.3,0.1c0-0.1,0-0.2-0.1-0.3C219.6,67.8,219.6,67.7,219.4,67.7z M220,71.1c0-0.2,0.1-0.3,0.3-0.5s0.3-0.3,0.4-0.3
		l0.1,0l0.1,0h0c0,0,0,0.1,0.1,0.2c0,0.1,0.1,0.2,0.1,0.2c0,0,0,0.1,0,0.1s0,0,0,0.1v0.1h-0.7v0.1c0,0,0,0.1,0,0.1
		c0,0,0,0.1-0.1,0.1c0,0.1-0.1,0.1-0.1,0.2c0,0,0,0-0.1-0.1C220,71.2,220,71.2,220,71.1L220,71.1z M220.3,68.8
		C220.3,68.8,220.3,68.8,220.3,68.8c-0.1,0.1-0.1,0.1-0.1,0.2c0,0,0.1,0,0.1,0C220.4,68.9,220.4,68.8,220.3,68.8z M221.3,69.7
		c0,0.2,0.1,0.3,0.3,0.3c0,0,0.1,0,0.1-0.1c0,0,0-0.1,0-0.1c0-0.1-0.1-0.1-0.2-0.1c-0.1,0-0.1-0.1-0.2-0.1
		C221.3,69.6,221.3,69.6,221.3,69.7C221.3,69.7,221.3,69.7,221.3,69.7z M221.4,66.5c-0.1,0-0.1,0-0.1,0.1c0,0.1,0,0.1,0.1,0.1
		c0.1,0,0.1,0,0.1-0.1C221.5,66.5,221.5,66.5,221.4,66.5z M222.5,69.3c-0.2,0-0.3,0.1-0.4,0.2c-0.1,0.2-0.2,0.3-0.2,0.5
		c0.2,0,0.4-0.1,0.5-0.2C222.4,69.7,222.5,69.5,222.5,69.3z M222.9,70.4l0.1-0.1l-0.1-0.1l-0.2,0.1L222.9,70.4z M223.1,69.8
		c-0.1,0-0.1,0-0.1,0.1s0,0.1,0.1,0.1c0.1,0,0.1,0,0.1-0.1S223.2,69.8,223.1,69.8z M223.1,70.4C223.1,70.4,223.1,70.4,223.1,70.4
		c0.1,0.1,0.1,0.1,0.1,0.1c0,0,0.1,0,0.2,0c0.1,0,0.2-0.1,0.2-0.1c0,0-0.1,0-0.1-0.1c-0.1,0-0.1-0.1-0.1-0.1h-0.1h-0.1
		C223.2,70.2,223.2,70.3,223.1,70.4C223.1,70.3,223.1,70.4,223.1,70.4z"/>
</g>
<rect x="26" y="111.9" fill="none" stroke="#373232" stroke-width="3" stroke-miterlimit="10" width="54.6" height="44.9"/>
<g>
	<path fill="#373232" d="M62.5,135.8c-0.2,0-0.4,0.1-0.6,0.2c-0.2,0.1-0.4,0.2-0.6,0.1c-0.1,0-0.1-0.1-0.1-0.2c0-0.1,0-0.2,0-0.4
		c0-0.1,0-0.2-0.1-0.4c0-0.1-0.2-0.2-0.3-0.2h-0.1c-0.1,0.1-0.2,0.2-0.2,0.4c0,0.2,0,0.3,0,0.4c-0.1-0.1-0.2-0.1-0.2-0.1
		s-0.1,0-0.1,0.1c0,0-0.1,0.1-0.1,0.1s-0.1,0-0.2,0c-0.2,0-0.3-0.1-0.4-0.3s-0.2-0.4-0.3-0.6c-0.1-0.2-0.1-0.4-0.1-0.7
		c0-0.2,0-0.4,0-0.5c0-0.1,0.1-0.3,0.1-0.4c0.1-0.1,0.1-0.3,0.1-0.4l1,0.1c0.1,0.1,0.2,0.2,0.3,0.3c0.1,0.1,0.3,0.2,0.4,0.2
		c0.2,0,0.4-0.1,0.6-0.2c0.2-0.1,0.4-0.2,0.6-0.1c0.1,0,0.2,0,0.2,0.1c0,0.1,0.1,0.1,0.2,0.1c0.1,0,0.2,0,0.3-0.1
		c0.1,0,0.1-0.1,0.2-0.3c-0.1,0-0.2,0-0.2-0.1c0,0,0-0.1,0.1-0.2c0.1-0.1,0.2-0.2,0.2-0.2c0-0.2,0-0.5,0-0.8c0-0.3-0.1-0.7-0.1-1
		c0-0.4,0-0.7,0-1c0-0.3,0-0.6,0.1-0.8c0,0,0-0.1,0-0.2c0-0.1,0.1-0.2,0.1-0.4c0-0.1,0.1-0.3,0.1-0.4c0-0.1,0-0.2,0.1-0.3
		c0-0.2,0-0.4,0-0.5c0-0.1-0.1-0.3-0.1-0.4c0,0,0-0.1,0-0.3c0-0.2,0-0.3,0.1-0.4c0.1-0.3,0.1-0.7,0.2-1c0.1-0.4,0.1-0.7,0-1
		c0,0,0-0.1-0.1-0.2c-0.1-0.1-0.1-0.1-0.2-0.1c0-0.1,0.1-0.2,0.1-0.3c0-0.1,0-0.2,0.1-0.3h-0.1h-0.1h0c0,0,0,0.1-0.1,0.1
		c0,0-0.1,0.1-0.1,0.1c-0.1,0-0.2,0.1-0.3,0.2c-0.1,0.1-0.2,0.1-0.2,0.2c0,0-0.1,0-0.1,0c-0.1,0-0.2,0.1-0.2,0.1
		c-0.1,0-0.2,0.1-0.2,0.1c-0.1,0-0.1,0-0.1,0.1c-0.2,0.1-0.4,0.2-0.6,0.3c-0.2,0.1-0.4,0.3-0.6,0.4c-0.2,0.1-0.4,0.2-0.6,0.3
		c-0.2,0.1-0.4,0.1-0.6,0c0.1-0.2,0.1-0.4,0.1-0.5c0-0.2,0-0.3-0.1-0.4c-0.1-0.1-0.1-0.3-0.2-0.4s-0.2-0.3-0.3-0.5c0,0,0-0.1,0-0.1
		c0-0.1,0-0.1,0-0.1c0-0.1,0-0.1,0.1-0.2c0-0.1,0.1-0.1,0.2,0c0,0,0,0.1,0.1,0.1c0,0.1,0.1,0.1,0.1,0.2h0c0.1,0,0.1,0,0.2-0.1
		c0.1-0.1,0.2-0.1,0.3-0.2c0.1-0.1,0.2-0.2,0.3-0.3c0.1-0.1,0.1-0.2,0.1-0.2c0.1-0.1,0.1-0.2,0-0.3c0-0.1,0-0.2,0-0.3l0.3,0.1
		c0.1-0.3,0.2-0.5,0.3-0.6c0.1-0.1,0.1-0.1,0.2-0.1c0.1,0,0.1,0,0.2,0.1c0.1,0,0.2,0,0.4-0.1c0.1-0.1,0.1-0.1,0.1-0.1
		c0,0,0-0.1,0-0.1c0,0,0,0,0.1,0c0,0,0.1,0,0.2,0.1c0.1,0,0.2,0,0.2,0.1c0,0-0.1,0-0.2,0.1c-0.1,0.1-0.2,0.1-0.2,0.2
		c0,0-0.1,0.1-0.1,0.2s0,0.2,0,0.2c0.1,0,0.2,0,0.2-0.1s0.1-0.2,0.2-0.3c0.1-0.1,0.2-0.2,0.3-0.2c0.1-0.1,0.3-0.1,0.4,0l0.2-0.8
		c0,0,0.1-0.1,0.1-0.1c0.1,0,0.1,0,0.2,0c0.2,0.1,0.5,0.3,0.8,0.6c0.3,0.3,0.5,0.5,0.6,0.6c0,0,0.1,0.1,0.1,0.2
		c0.1,0.1,0.1,0.1,0.2,0.2c0.2,0.2,0.2,0.5,0.2,0.8c0,0.3,0,0.7-0.1,1c0,0.4-0.1,0.7-0.1,1c0,0.3,0,0.5,0.2,0.6c0,0.1,0,0.2,0,0.3
		c0,0.1,0,0.3-0.1,0.5c0,0.2-0.1,0.3-0.1,0.5c0,0.1-0.1,0.3-0.1,0.3l-0.1,0.2c0,0.1,0,0.2,0,0.2c0,0,0.1,0.1,0.2,0.1
		s0.2,0.1,0.2,0.1c0,0.1,0,0.3,0,0.6c0,0.3-0.1,0.6-0.2,0.9c-0.1,0.3-0.1,0.6-0.2,0.9c-0.1,0.3-0.1,0.5-0.1,0.7c0,0,0,0.1,0.1,0.2
		c0,0.1,0.1,0.2,0.1,0.2c0,0.2,0,0.4-0.1,0.5c0,0.1,0,0.2,0,0.3s0,0.2,0,0.3c0,0.1,0.1,0.3,0.1,0.5v0.1c0,0,0,0,0,0c0,0,0,0,0,0v0.1
		c0,0,0,0-0.1,0c0,0-0.1,0-0.1,0l0,0.1v0.1l0.2-0.1c-0.1,0.1-0.1,0.2-0.2,0.4c-0.1,0.2-0.1,0.3,0,0.4c0,0.1,0.1,0.2,0.2,0.2
		c0.1,0,0.2,0.1,0.4,0.1c0.2,0,0.3,0,0.5,0.1c0.2,0,0.3,0,0.4,0c0.1,0,0.2,0,0.2,0c0,0,0.1-0.1,0.2-0.2l0,0.4c0,0,0.1,0,0.2-0.1
		c0.1,0,0.2,0,0.2,0c0,0,0,0,0,0h0.1c0.1,0,0.1,0,0.1,0.1c0,0,0.1,0.1,0.2,0.1c0,0,0.1,0,0.2-0.1c0.1,0,0.1-0.1,0.1-0.1v-0.1
		c0,0-0.1-0.1-0.2-0.1c-0.1-0.1-0.1-0.1-0.2-0.1c0,0,0,0,0.1-0.1c0-0.1,0-0.1,0.1-0.1v0l0.1,0H68c0.3,0.1,0.6,0.2,0.8,0.2
		c0.2,0,0.3,0.1,0.4,0.1c0.1,0.1,0.1,0.2,0.2,0.4c0,0.2,0,0.5,0,1c0,0.1,0,0.3,0,0.5c0,0.3-0.1,0.4-0.2,0.6l-0.1-0.2l0.1-0.9
		c0,0-0.1,0-0.1,0c0,0-0.1,0-0.1,0c0,0-0.1,0-0.1-0.1c0,0,0-0.1,0-0.2c-0.1,0.1-0.2,0.2-0.2,0.3c-0.1,0.1-0.1,0.3-0.2,0.4
		c-0.1,0.1-0.1,0.3-0.2,0.4s-0.1,0.2-0.2,0.2c0,0,0,0-0.1-0.1c0,0-0.1,0-0.1-0.1h-0.1l-0.1-0.1c0,0-0.1,0.1-0.2,0.1
		c-0.1,0-0.1,0.1-0.1,0.1v-0.3c-0.1,0.1-0.2,0.1-0.3,0.2c-0.1,0.1-0.2,0.2-0.2,0.3c0,0-0.1-0.1-0.1-0.2c0-0.1-0.1-0.1-0.1-0.2
		c0,0.1,0,0.1,0,0.2c-0.1,0-0.1,0-0.2,0c-0.1,0-0.1,0-0.1-0.1c0,0,0-0.1,0-0.1c0-0.1,0-0.1,0-0.1c0,0-0.1-0.1-0.1-0.1h-0.1
		c0,0,0,0-0.1,0c0,0.2,0,0.4-0.2,0.5s-0.3,0.2-0.4,0.3v-0.3c-0.1,0-0.2,0-0.2,0.1c0,0-0.1,0.1-0.1,0.2c-0.1,0.1-0.1,0.1-0.2,0.2
		c-0.1,0.1-0.1,0.1-0.2,0.1h0l-0.1-0.1c-0.1,0-0.2,0-0.2,0.1c-0.1-0.2-0.1-0.3-0.2-0.3c-0.1,0-0.2-0.1-0.3-0.1
		c-0.2-0.1-0.4,0.1-0.5,0.3c0,0-0.1-0.1-0.1-0.1c-0.1-0.1-0.1-0.1-0.1-0.1H63c-0.1,0-0.1,0-0.1,0c-0.1-0.1-0.1-0.1-0.1-0.2
		c0-0.1,0-0.1,0-0.1c0,0,0-0.1-0.1-0.1C62.7,135.8,62.6,135.8,62.5,135.8z M61.9,121.3C61.9,121.2,61.8,121.3,61.9,121.3
		c-0.1,0.2-0.1,0.2-0.1,0.3c0.1,0,0.1,0,0.1-0.1S61.9,121.3,61.9,121.3z M61.9,121.5c0,0,0,0.1,0,0.3c0,0.1,0,0.2,0.1,0.3
		c0.1,0,0.2,0,0.2-0.1s0.1-0.1,0.1-0.2c0-0.1,0-0.2-0.1-0.2c-0.1,0-0.2-0.1-0.2-0.1C62,121.6,62,121.6,61.9,121.5
		C62,121.6,62,121.5,61.9,121.5z M64.5,135.1C64.5,135.1,64.5,135.1,64.5,135.1l0.1,0.1l0-0.1L64.5,135.1c0.1-0.1,0.1-0.1,0-0.1
		V135.1L64.5,135.1z M65,134.6c-0.1,0-0.1,0.1-0.1,0.1c0,0.1,0,0.1,0.1,0.1c0.1,0,0.1,0,0.1-0.1C65,134.7,65,134.6,65,134.6z
		 M65.1,135.9c-0.1,0-0.1,0.1-0.1,0.1c0,0.1,0,0.1,0,0.2l0.1,0.1V135.9z M65.1,135.2h0.1l0-0.1L65.1,135.2z M65.2,135.5
		c-0.1,0-0.1,0-0.1,0.1c0,0.1,0,0.1,0.1,0.1c0.1,0,0.1,0,0.1-0.1S65.3,135.5,65.2,135.5z M65.6,135.7
		C65.5,135.7,65.5,135.7,65.6,135.7c-0.1,0.1,0,0.1,0,0.1C65.7,135.8,65.7,135.8,65.6,135.7z M65.8,134.4c-0.1,0.1-0.1,0.2-0.1,0.3
		v0.1c0.1,0,0.1-0.1,0.1-0.1c0-0.1,0-0.1,0-0.1C65.8,134.5,65.8,134.5,65.8,134.4z M66.2,134.9c-0.1,0.1-0.1,0.1-0.2,0.3
		c0,0.1,0,0.2,0,0.2l0.2,0L66.2,134.9z"/>
</g>
<rect x="99.3" y="111.9" fill="none" stroke="#373232" stroke-width="3" stroke-miterlimit="10" width="54.6" height="44.9"/>
<g>
	<path fill="#373232" d="M137.9,136.9c0,0-0.1,0-0.2,0.1c-0.1,0.1-0.2,0.1-0.2,0.1c0,0-0.1-0.1-0.2-0.2c-0.1-0.1-0.1-0.2-0.2-0.2
		c-0.1,0-0.1-0.1-0.3-0.1s-0.2-0.1-0.3-0.1c0,0-0.1,0-0.1,0.1c-0.1,0-0.1,0.1-0.1,0.1c-0.3,0-0.5-0.1-0.6-0.1
		c-0.1-0.1-0.2-0.1-0.3-0.2c-0.1-0.1-0.2-0.2-0.2-0.3c-0.1-0.1-0.2-0.2-0.3-0.3c-0.1,0-0.2,0.1-0.2,0.2c0,0.1,0,0.2,0,0.3
		c0,0.1,0,0.2,0,0.3c0,0.1-0.1,0.1-0.2,0.1c0,0,0,0,0-0.1c0,0,0-0.1,0-0.1l-0.1-0.1c0,0-0.1-0.1-0.1-0.1V136c0-0.1,0-0.3,0.1-0.4
		c0.1-0.1,0.2-0.2,0.3-0.3h-0.1c-0.3,0-0.4,0.1-0.5,0.2c-0.1,0.1-0.1,0.2-0.1,0.4c0,0.1,0,0.3,0,0.4c0,0.1,0,0.2-0.1,0.2
		c-0.2-0.1-0.2-0.2-0.3-0.3c0-0.1,0-0.2,0-0.4v-0.2c0-0.1,0-0.1,0-0.1c0,0,0-0.1,0.1-0.2c0-0.1,0.1-0.1,0.1-0.2c0,0-0.1-0.1-0.2-0.2
		c-0.1-0.1-0.2-0.2-0.2-0.2c0,0,0-0.1,0.1-0.2c0.1-0.1,0.1-0.2,0.2-0.2c0.1-0.2,0.1-0.3,0.2-0.6c0-0.2,0.1-0.4,0.1-0.6
		c0.2,0.1,0.3,0,0.4-0.1c0.1-0.2,0.1-0.3,0.1-0.5h0.3l0.3-1h0.5c0,0,0-0.1-0.1-0.2s-0.1-0.2,0-0.2c0-0.1,0.1-0.2,0.2-0.3
		c0.1-0.1,0.2-0.2,0.3-0.2v0v0.1c0,0,0,0.1-0.1,0.1c0,0.1-0.1,0.1-0.1,0.1v0.1v0.1c0.1-0.1,0.2-0.2,0.4-0.4c0.1-0.2,0.2-0.4,0.3-0.6
		c0.1-0.2,0.2-0.4,0.3-0.6c0.1-0.2,0.1-0.4,0.1-0.5h0.3c0-0.1,0-0.1,0-0.2c0-0.1,0-0.2,0-0.3c0-0.1,0-0.2,0-0.4
		c0-0.1-0.1-0.2-0.1-0.3c0,0-0.1,0.1-0.2,0.1c-0.1,0.1-0.2,0.1-0.2,0.1l-0.1,0c-0.1,0-0.3-0.1-0.5-0.3c-0.3-0.2-0.5-0.4-0.8-0.7
		c-0.3-0.3-0.5-0.5-0.8-0.8c-0.2-0.2-0.4-0.4-0.5-0.5l-0.4-0.3h-0.1c0,0-0.1,0-0.2,0.1c-0.1,0-0.1,0.1-0.2,0.1
		c-0.3-0.3-0.6-0.6-0.8-0.9c-0.2-0.3-0.3-0.6-0.4-0.8c-0.1-0.3-0.1-0.5-0.1-0.7c0-0.2,0-0.4,0.1-0.5c0,0-0.1,0-0.2,0.1
		c-0.1,0-0.1,0-0.2,0c0,0,0,0-0.1,0h-0.1v-0.5c0.3,0,0.4,0,0.5,0c0.1,0,0.1,0,0.1-0.1c0,0,0-0.1,0-0.2c0-0.1,0.1-0.2,0.2-0.3
		c0.1-0.1,0.2-0.1,0.3-0.2c0.1-0.1,0.2-0.1,0.2-0.1l0.2,0.1l1-0.9l-0.1,1.4h0.2c0-0.1,0.1-0.2,0.2-0.3c0.1-0.2,0.2-0.4,0.2-0.6
		c0.1-0.2,0.2-0.4,0.3-0.5c0.1-0.2,0.2-0.2,0.2-0.2c0,0,0,0.1,0,0.1c0,0,0,0.1,0,0.1s0,0.1,0,0.1l0.1,0.3c0,0,0,0.1,0.1,0.2
		c0,0.1,0,0.2,0.1,0.2l0.1,0c0.1,0,0.1,0,0.2-0.1c0.1-0.1,0.1-0.2,0.2-0.2c0-0.1,0.1-0.2,0.1-0.3c0-0.1,0-0.2,0-0.2
		c0,0-0.1-0.1-0.2-0.1c-0.2-0.1-0.3-0.1-0.3-0.2l0.2-0.1h0.1h0.1c0,0,0.1-0.1,0.1-0.1c0.1-0.1,0.1-0.1,0.1-0.1
		c0.1,0.1,0.1,0.2,0.2,0.4c0.1,0.2,0.1,0.3,0.2,0.5c0.1,0.2,0.1,0.3,0.2,0.4c0.1,0.1,0.1,0.2,0.2,0.2l0.1,0l0.1-0.1c0,0,0,0,0.1-0.1
		c0,0,0-0.1-0.1-0.3c-0.1-0.1-0.1-0.2-0.1-0.3c0,0,0,0,0-0.1c0,0,0-0.1,0-0.1c0.1,0,0.2,0,0.2,0.1c0,0.1,0.1,0.1,0.2,0.1h0.1
		c0,0,0-0.1,0-0.2c0-0.1-0.1-0.2-0.1-0.4c0-0.1-0.1-0.3-0.1-0.4c0-0.1-0.1-0.2-0.1-0.2c0,0,0.1,0,0.1,0.1c0.1,0.1,0.2,0.2,0.3,0.3
		c0.1,0.1,0.2,0.2,0.4,0.4c0,0,0-0.1,0-0.2c0-0.1,0-0.2,0-0.2c0,0-0.1-0.1-0.3-0.2c-0.2-0.1-0.3-0.2-0.3-0.2c0-0.1,0.1-0.1,0.3-0.2
		c0.1-0.1,0.2-0.1,0.3-0.1v0.2c0.1,0,0.1,0,0.2,0c0,0,0.1,0,0.1,0.1c0,0,0.1,0,0.1,0c0,0,0.1-0.1,0.2-0.2c0,0.1,0.1,0.2,0.2,0.4
		c0.1,0.2,0.2,0.2,0.3,0.2c0,0,0.1,0,0.2-0.1c0.1-0.1,0.3-0.1,0.5-0.2c0.2-0.1,0.3-0.2,0.5-0.2c0.1-0.1,0.2-0.1,0.3-0.1
		c0,0.3,0,0.5,0.1,0.6c0.1,0.1,0.3,0.2,0.5,0.2h0.1c0,0,0,0,0.1-0.1l0.1-0.1c0,0,0-0.1-0.1-0.1c0-0.1-0.1-0.1-0.1-0.1
		c0.1-0.2,0.2-0.4,0.3-0.5c0.2-0.1,0.4-0.1,0.5-0.1c0,0.2,0,0.3,0,0.3c0,0.1,0,0.1,0.1,0.1c0,0,0.1,0,0.2,0.1c0.1,0,0.2,0.1,0.3,0.1
		c0.1,0.1,0.1,0.2,0.1,0.3c0,0.1,0.1,0.2,0.3,0.2c0.1,0,0.3,0,0.3,0c0.1,0,0.2,0,0.3-0.1v0.1c0,0.2-0.1,0.4-0.2,0.7
		c-0.1,0.3-0.3,0.4-0.4,0.6H143h-0.1c0,0-0.1-0.1-0.2-0.1c-0.1-0.1-0.2-0.1-0.2-0.1h-0.1c0,0-0.1,0-0.1,0c0,0,0,0,0,0
		c-0.1,0-0.1,0-0.2,0c-0.1,0-0.1,0.1-0.1,0.2l0,0.1c0,0,0,0.1,0.1,0.1c0.1,0.1,0.1,0.1,0.1,0.1c0,0,0,0-0.1,0h-0.1
		c-0.1,0-0.2,0-0.3-0.1c-0.1-0.1-0.1-0.1-0.2-0.2c0-0.1-0.1-0.1-0.1-0.2c-0.1-0.1-0.1-0.1-0.2-0.1c0,0-0.1,0-0.2,0
		c-0.1,0-0.2,0-0.2,0c-0.1,0-0.2,0-0.2,0c-0.1,0-0.1,0-0.1,0h-0.2c-0.1,0-0.2,0-0.3-0.1c-0.1,0-0.2-0.1-0.3-0.1
		c-0.2,0-0.4,0-0.7,0.1c-0.2,0.1-0.5,0.1-0.7,0.2c0,0,0,0-0.1-0.1c0,0,0-0.1-0.1-0.1h-0.1h-0.1c0,0-0.1,0.1-0.1,0.1
		c0,0.1,0,0.1-0.1,0.1c-0.1,0.1-0.1,0.1-0.2,0.1l-0.1-0.1c0,0,0,0-0.1-0.1c0,0,0,0-0.1,0c-0.2,0-0.3,0-0.5,0.1
		c-0.2,0.1-0.3,0.1-0.5,0.2c-0.2,0.1-0.3,0.2-0.4,0.2c-0.1,0.1-0.3,0.1-0.4,0.1h-0.1c0,0,0-0.1-0.1-0.1c-0.1-0.1-0.1-0.1-0.1-0.1
		h-0.1c-0.1,0-0.1,0-0.3,0.1c-0.1,0.1-0.3,0.2-0.4,0.3c-0.1,0.1-0.2,0.3-0.3,0.4c-0.1,0.1-0.1,0.2-0.1,0.3c0,0.1,0,0.2,0,0.4
		c0,0.2,0.1,0.3,0.3,0.3h0.1c0,0,0-0.1,0-0.2c0-0.1,0-0.2,0-0.3c0-0.1,0-0.2,0.1-0.3c0-0.1,0.1-0.2,0.2-0.2h0.1h0.1
		c-0.1,0.2-0.1,0.3-0.1,0.4c0,0.1,0,0.2,0,0.4c0,0.1,0,0.2,0,0.3c0,0.1,0.1,0.2,0.2,0.2l0.1,0c0,0,0,0,0-0.1c0,0,0.1-0.1,0.1-0.1
		c0,0,0.1-0.1,0.1-0.1h0c0,0,0,0,0,0s0,0,0,0c0,0,0,0,0.1,0c0,0.1,0,0.2-0.1,0.3c0,0.1-0.1,0.2-0.2,0.3c0.3-0.1,0.5-0.1,0.7,0.1
		c0.1,0.2,0.2,0.4,0.2,0.6c0,0,0,0,0.1,0h0.1c0,0,0.1-0.1,0.1-0.2c0.1-0.1,0.1-0.1,0.2-0.1c0.2,0,0.4,0.1,0.5,0.2
		c0.1,0.2,0.2,0.3,0.3,0.5c0.1,0.2,0.2,0.3,0.3,0.5c0.1,0.2,0.4,0.2,0.6,0.2c0.1,0,0.2,0,0.3-0.1c0.1-0.1,0.1-0.2,0.2-0.3
		c0.1,0.1,0.3,0.2,0.4,0.2c0.1,0,0.2,0,0.2-0.1c0-0.1,0-0.1,0.1-0.2c0-0.1,0-0.2,0.1-0.2c0-0.1,0.1-0.1,0.1-0.2c0,0,0.1-0.1,0.2-0.1
		c0.1,0,0.2,0,0.3,0.1c0-0.4,0.1-0.7,0.3-0.9c0.2-0.3,0.5-0.5,0.8-0.6c0,0,0.1,0,0.1,0.1c0.1,0,0.1,0.1,0.2,0.1h0.1h0.1
		c0,0,0.1,0,0.1-0.1c0.1,0,0.1-0.1,0.1-0.1c0,0,0,0.1,0,0.3s0,0.3,0,0.3c0,0,0,0.1,0.1,0.1c0,0,0.1,0,0.1,0c0.1-0.1,0.2-0.2,0.3-0.3
		c0-0.2,0.1-0.3,0.1-0.4c0.1,0,0.2,0,0.3-0.1c0.1-0.1,0.2-0.2,0.1-0.4c0,0.1,0.1,0.2,0.2,0.3c0.1,0,0.1,0,0.2,0c0.1,0,0.2,0,0.2-0.1
		c0.1,0,0.2,0,0.2,0c-0.1-0.3-0.2-0.5-0.2-0.6c0-0.1,0-0.1,0.1-0.1c0.1,0,0.2,0.1,0.3,0.1s0.3,0.1,0.5,0.1c0,0,0-0.1,0-0.2
		c0-0.1,0-0.2,0-0.2c0-0.1,0-0.2,0.1-0.4c0-0.2,0.1-0.3,0.1-0.4c0.2,0.1,0.3,0.2,0.3,0.4c0,0.1,0,0.2-0.1,0.2
		c-0.1,0-0.1,0.1-0.1,0.2c0,0.1,0,0.2,0.1,0.2c0.1,0,0.2,0,0.3,0c0.1,0,0.1-0.1,0.1-0.2c0-0.1,0-0.2,0-0.4s0-0.3,0-0.4
		c0-0.1,0-0.2,0.1-0.2c0.1,0,0.1,0.1,0.2,0.2c0.1,0.1,0.2,0.2,0.3,0.3c0.1,0.1,0.2,0.2,0.3,0.3c0.1,0.1,0.2,0.2,0.2,0.2
		c0.1,0,0.1-0.1,0.1-0.3c-0.1-0.2-0.1-0.3-0.1-0.5s0.1-0.4,0.3-0.6c0.2-0.2,0.6-0.3,1.2-0.3l0.2,0.1c-0.1,0-0.1,0.1-0.1,0.1
		c0,0.1,0,0.1,0,0.2c0,0.1,0,0.2,0.1,0.4c0,0.1,0.1,0.2,0.3,0.2h0.1c0.1-0.1,0.1-0.1,0.1-0.2c0-0.1,0-0.2,0.1-0.3c0-0.1,0-0.2,0-0.3
		c0-0.1,0-0.1,0-0.2c0.2,0,0.3,0.1,0.4,0.2c0,0.1,0,0.3,0,0.4c0,0.1,0,0.1,0,0.2c0,0.1,0,0.1,0,0.1l-1.1,1c0,0,0,0,0,0
		c0,0,0,0-0.1,0c0,0,0,0,0,0l0,0c0,0-0.1,0-0.2-0.1c-0.1-0.1-0.2-0.1-0.2-0.1c-0.1,0-0.2,0-0.2,0.1c0,0.1,0,0.2,0,0.2
		c0,0.1,0,0.2,0,0.3c0,0.1,0.1,0.2,0.1,0.3c-0.2,0-0.3,0-0.4,0.1c-0.1,0.1-0.3,0.2-0.4,0.4c-0.1,0.1-0.2,0.3-0.3,0.5
		c-0.1,0.2-0.2,0.3-0.2,0.4c-0.1,0.2-0.2,0.4-0.4,0.5c-0.2,0.2-0.4,0.3-0.5,0.5h-0.1c-0.1,0-0.2,0-0.3-0.1c-0.1-0.1-0.2-0.1-0.4-0.1
		c-0.2,0-0.4,0.1-0.5,0.2c-0.1,0.2-0.2,0.3-0.2,0.5c-0.1,0.2-0.1,0.4-0.1,0.6c0,0.2-0.1,0.4-0.2,0.5c0,0-0.1,0.1-0.2,0.2
		c-0.1,0.1-0.2,0.1-0.2,0.2s-0.2,0.2-0.2,0.2c-0.1,0.1-0.1,0.1-0.1,0.1c0-0.1-0.1-0.2-0.3-0.1c-0.2,0-0.3,0.1-0.3,0.1
		c0,0.1,0,0.2,0,0.3c0,0.1,0,0.1-0.1,0.1c0,0,0,0.1-0.1,0.1c0,0,0,0.1,0,0.2c0,0.1,0.1,0.2,0.3,0.2c0.2,0,0.4,0.1,0.6,0.2
		c0.2,0.1,0.4,0.2,0.6,0.4c0.2,0.2,0.3,0.5,0.3,1v0.4c0,0,0,0.1-0.1,0.1c0,0.1-0.1,0.1-0.1,0.1c0,0.1,0,0.2,0.1,0.2
		c0.1,0,0.1,0,0.2,0v-0.3c0.1,0,0.2,0,0.4-0.1c0.1,0,0.3-0.1,0.4-0.2v0.3c0,0.3,0,0.5,0,0.7c0,0.2-0.1,0.5-0.1,0.8
		c0,0.1-0.1,0.1-0.2,0.2c-0.1,0-0.2,0-0.2,0v-0.6c-0.3,0-0.4,0-0.5,0.1c-0.1,0.1-0.2,0.1-0.2,0.2c-0.1,0.1-0.1,0.1-0.2,0.1
		c-0.1,0-0.2,0.1-0.4,0v0.1c0,0.1,0,0.3,0.1,0.4c0.1,0.1,0.2,0.2,0.3,0.2c0.1,0,0.2,0,0.3-0.1c0-0.1,0.1-0.2,0.1-0.4
		c0,0.2,0.1,0.3,0.2,0.5c0.1,0.1,0.3,0.2,0.5,0.2l0,0c0,0-0.1,0.1-0.2,0.2c-0.1,0.1-0.2,0.2-0.2,0.2c0,0.1,0,0.2,0,0.3s0,0.2,0,0.2
		c0,0.1-0.1,0.1-0.1,0.1c0,0-0.1-0.1-0.1-0.1c-0.1-0.1-0.1-0.1-0.2-0.1h-0.1c-0.1,0-0.2,0-0.3,0.1c-0.1,0.1-0.2,0.2-0.2,0.3
		c-0.1,0.1-0.1,0.2-0.2,0.3c-0.1,0.1-0.2,0.2-0.3,0.2l-0.1,0l-0.1,0c0-0.1-0.1-0.1-0.1-0.3c-0.1-0.1-0.1-0.2-0.1-0.2
		c0,0-0.1,0-0.2,0c-0.1,0-0.1,0.1-0.2,0.1c0,0.1,0,0.2,0,0.3c0,0.1,0,0.2,0,0.3c0,0.1,0,0.2-0.1,0.3c-0.1,0.1-0.2,0.1-0.3,0.1
		c0,0-0.1-0.1-0.2-0.2c-0.1-0.1-0.2-0.2-0.3-0.3h-0.1h-0.1c-0.1,0-0.1,0-0.3,0.1c-0.1,0.1-0.2,0.1-0.3,0.2c-0.1-0.1-0.1-0.3-0.1-0.3
		c0-0.1,0-0.2,0-0.3c0-0.4,0-0.6,0.1-0.8c0-0.1,0.1-0.2,0.2-0.2c0.1,0,0.2,0,0.4,0c0.1,0,0.3,0,0.6-0.1c0,0,0.1,0,0.2-0.1
		c0.1-0.1,0.2-0.1,0.3-0.2c0.1-0.1,0.2-0.1,0.3-0.2c0.1-0.1,0.1-0.1,0.1-0.1V133c0,0,0.1,0,0.1-0.1c0.1,0,0.1,0,0.2-0.1v-0.1
		c0-0.2-0.1-0.2-0.2-0.2c-0.2,0-0.3,0-0.3,0c0,0-0.1-0.1-0.1-0.3c-0.1-0.1-0.1-0.2-0.1-0.3c0,0-0.1,0-0.1-0.1
		c-0.1,0-0.1-0.1-0.1-0.1s0,0-0.1-0.1c0,0-0.1-0.1-0.1-0.1c0,0,0.1-0.1,0.1-0.2c0.1-0.1,0.1-0.2,0.1-0.3c0,0,0-0.1,0-0.2
		c0-0.1,0-0.1,0-0.2c0,0,0,0,0,0c0,0,0,0,0,0c-0.1,0-0.1,0.1-0.3,0.3c-0.1,0.1-0.2,0.2-0.2,0.3c0-0.1,0-0.2,0-0.4
		c0-0.2,0-0.3-0.1-0.5c0-0.2-0.1-0.3-0.2-0.4c-0.1-0.1-0.2-0.2-0.4-0.2c-0.1,0-0.1,0.1-0.3,0.3c-0.1,0.2-0.3,0.4-0.5,0.7
		c-0.2,0.3-0.3,0.5-0.5,0.8c-0.2,0.2-0.3,0.4-0.4,0.5c-0.1,0.1-0.2,0.2-0.4,0.3c-0.2,0.1-0.4,0.3-0.6,0.5c-0.2,0.2-0.4,0.4-0.6,0.6
		c-0.2,0.2-0.2,0.3-0.2,0.5c0,0.1,0.1,0.2,0.4,0.3c0.3,0.1,0.6,0.2,0.9,0.3c0.3,0.1,0.7,0.1,1,0.2c0.3,0,0.5,0.1,0.7,0.1
		c0,0.1,0,0.1,0,0.2c0,0.1,0,0.2,0,0.3c0,0.1,0,0.2,0,0.3c0,0.1,0,0.2,0,0.2c0,0,0,0.1,0,0.1c0,0.1,0,0.1,0,0.1H139
		c-0.1,0-0.1,0-0.2-0.1c-0.1,0-0.2-0.1-0.2-0.1c0,0,0,0,0,0.1v0.1c0,0.1,0,0.2,0.1,0.2s0.1,0.1,0.1,0.2v0.1
		c-0.1,0.2-0.1,0.3-0.2,0.3c0,0.1-0.1,0.1-0.2,0.1h-0.2c0,0-0.1-0.1-0.1-0.1C138,136.9,138,136.9,137.9,136.9z M132.6,124.2
		c0,0.2,0.1,0.3,0.2,0.5v-0.5H132.6z M132.8,122C132.8,122,132.8,122,132.8,122c-0.1,0.1,0,0.1,0,0.1
		C132.8,122.1,132.9,122.1,132.8,122C132.9,122,132.8,122,132.8,122z M133.1,124.8C133,124.8,133,124.8,133.1,124.8
		c-0.1,0.1-0.1,0.1-0.2,0.1v0.1v0.1L133.1,124.8z M133.9,134.8C133.8,134.8,133.8,134.8,133.9,134.8c-0.1,0.1-0.1,0.1,0,0.1
		C133.9,134.9,133.9,134.9,133.9,134.8C133.9,134.8,133.9,134.8,133.9,134.8z M136.6,127.4c-0.1,0-0.1,0-0.1,0.1
		c0,0.1,0,0.1,0.1,0.1c0.1,0,0.1,0,0.1-0.1C136.7,127.4,136.7,127.4,136.6,127.4z M136.6,130.4c0,0,0,0.1,0,0.2
		c0,0.1,0.1,0.1,0.1,0.2h0.1c0.1,0,0.2-0.1,0.2-0.2c0-0.1,0-0.3,0-0.3V130c0,0-0.1,0.1-0.2,0.2C136.7,130.3,136.6,130.4,136.6,130.4
		z M136.7,127.5c-0.1,0-0.1,0-0.1,0.1s0,0.1,0.1,0.1c0.1,0,0.1,0,0.1-0.1S136.8,127.5,136.7,127.5z M139.1,121.5
		C139.1,121.5,139.1,121.5,139.1,121.5c-0.1,0.1,0,0.1,0,0.1C139.2,121.5,139.2,121.5,139.1,121.5z M139.4,120.8
		c-0.1,0-0.1,0-0.1,0.1s0,0.1,0.1,0.1c0.1,0,0.1,0,0.1-0.1S139.4,120.8,139.4,120.8z M139.6,121.5h0.2v-0.3h-0.2V121.5z
		 M140.2,120.4C140.2,120.4,140.2,120.4,140.2,120.4c-0.1-0.1-0.2,0-0.2,0C140,120.4,140.1,120.5,140.2,120.4
		C140.1,120.5,140.2,120.4,140.2,120.4z M141.1,128.9C141.1,129,141.1,129,141.1,128.9c0.1,0.1,0.1,0.2,0.1,0.2v-0.4l-0.1,0.1V128.9
		L141.1,128.9z M141.2,127.8C141.2,127.8,141.2,127.8,141.2,127.8c0.1,0.1,0.1,0.1,0.1,0.1h0.1h0.1c0,0,0,0,0.1-0.1c0,0,0,0,0-0.1
		v-0.1v-0.1c0-0.1,0-0.1-0.1-0.1h0c0,0,0,0-0.1,0c0,0,0,0,0,0c0,0,0,0,0,0h0c0,0,0,0.1-0.1,0.1C141.2,127.7,141.2,127.8,141.2,127.8
		z M141.6,130.3c0,0.1-0.1,0.3-0.2,0.4c-0.1,0.1-0.2,0.3-0.2,0.4v0.2c0.2-0.1,0.3-0.2,0.3-0.3c0-0.1,0.1-0.2,0.1-0.4
		c0,0,0-0.1,0-0.1S141.6,130.3,141.6,130.3z M141.8,127c0,0,0,0.1,0,0.1c0,0,0.1,0.1,0.1,0.1c0,0,0.1,0,0.1,0c0,0,0.1,0,0.1,0
		c0-0.2,0-0.3,0.1-0.4c0.1-0.1,0.1-0.3,0.1-0.4H142L141.8,127z M141.8,132.2c0.2,0,0.3-0.1,0.3-0.3h-0.3V132.2z M142.1,130.6
		c0,0.1,0,0.1,0,0.1c0,0,0.1,0.2,0.2,0.4c0.1,0.2,0.2,0.3,0.2,0.4c0.1-0.1,0.2-0.3,0.2-0.5c0-0.2,0-0.4,0-0.4L142.1,130.6
		L142.1,130.6z M142.1,132.5c0,0.1,0,0.3,0.1,0.4c0.1,0.1,0.2,0.2,0.3,0.2c0,0,0,0,0-0.1c0,0,0,0,0-0.1c0-0.1-0.1-0.2-0.2-0.3
		C142.3,132.5,142.2,132.5,142.1,132.5z M142.1,135l0.1-0.2h-0.1V135z M142.3,121.1c0,0.2,0.1,0.2,0.2,0.3c0.2,0,0.3,0,0.4,0
		c0-0.1,0-0.1-0.1-0.2c-0.1,0-0.1-0.1-0.2-0.1c-0.1,0-0.1,0-0.2-0.1c-0.1,0-0.1-0.1-0.1-0.1C142.3,120.9,142.3,121,142.3,121.1
		C142.3,121,142.3,121,142.3,121.1z M142.6,126.7C142.6,126.7,142.6,126.8,142.6,126.7c0.1,0.1,0.1,0.1,0.1,0.1c0,0,0.1-0.1,0.1-0.1
		c0-0.1,0-0.1,0-0.1c0,0,0,0,0-0.1c0,0-0.1-0.1-0.1-0.1c0,0,0,0-0.1,0.1c0,0,0,0.1-0.1,0.1V126.7L142.6,126.7z M142.6,127.6h0.1
		l-0.1-0.1V127.6z M143.6,125.3c0,0-0.1,0.1-0.1,0.3c-0.1,0.1-0.1,0.2-0.1,0.3c0,0-0.1,0-0.1,0.1h0.4
		C143.7,125.7,143.7,125.5,143.6,125.3z M145.3,124.8C145.3,124.7,145.3,124.7,145.3,124.8c-0.1,0.1-0.1,0.1,0,0.1
		C145.4,124.9,145.4,124.8,145.3,124.8C145.4,124.8,145.4,124.8,145.3,124.8z M145.4,125c-0.1,0.1-0.1,0.2-0.1,0.3
		c0.1,0,0.2-0.1,0.3-0.2L145.4,125z"/>
</g>
<rect x="174.8" y="109.6" transform="matrix(0.9979 6.526518e-02 -6.526518e-02 0.9979 9.048 -12.9078)" fill="none" stroke="#373232" stroke-width="3" stroke-miterlimit="10" width="54.6" height="44.9"/>
<g>
	<path fill="#373232" d="M214.3,135.6c0,0,0-0.1,0-0.2c0-0.1,0-0.2-0.1-0.2c0,0-0.1,0-0.2-0.1c-0.1,0-0.2-0.1-0.2-0.1
		c0,0-0.1,0-0.1,0c-0.1,0-0.1-0.1-0.1-0.1c0,0-0.1-0.1-0.2-0.2c-0.1-0.1-0.2-0.2-0.2-0.2c0,0-0.1,0-0.2,0c-0.1,0-0.2-0.1-0.3-0.1
		c-0.1,0-0.2-0.1-0.3-0.1c-0.1,0-0.1-0.1-0.2-0.1c-0.2-0.1-0.4-0.2-0.6-0.4c-0.1-0.1-0.3-0.3-0.5-0.4l-0.1,0c-0.1,0-0.2,0.1-0.2,0.2
		c0,0.1-0.1,0.2-0.1,0.2c-0.2,0-0.2-0.1-0.3-0.2c0-0.1-0.1-0.2-0.2-0.3l-0.1,0l-0.1,0c0,0-0.1,0.1-0.1,0.2c0,0.1,0,0.2,0,0.2
		c0,0-0.1,0-0.1,0c-0.1,0-0.1-0.1-0.1-0.1c0-0.1,0-0.2,0-0.3c0-0.1,0-0.1-0.1-0.2c0,0,0,0,0,0c0,0,0,0,0,0c0,0,0,0-0.1,0l0,0.7
		c-0.1,0-0.2,0.1-0.3,0.2c-0.1,0.1-0.2,0.2-0.3,0.2l-0.6,0c0,0,0,0.1,0,0.1c0,0-0.1,0.1-0.1,0.1l-0.2,0c-0.1,0-0.3,0-0.4-0.1
		c-0.2,0-0.3-0.1-0.3-0.1c0,0,0-0.1-0.1-0.2c0-0.1-0.1-0.2-0.1-0.2c-0.1-0.3-0.2-0.6-0.2-0.9c0-0.3,0-0.6,0-0.9
		c0-0.2,0.1-0.5,0.1-0.7c0.1-0.3,0.1-0.6,0.2-0.9c0.1-0.3,0.2-0.6,0.3-0.9c0.1-0.3,0.2-0.5,0.3-0.7c0.1-0.1,0.2-0.3,0.4-0.3
		c0.2-0.1,0.3-0.2,0.4-0.3c0,0,0.1-0.1,0.2-0.2c0.1-0.2,0.1-0.2,0.1-0.3c0,0,0.1,0,0.1-0.1c0,0,0,0,0.1,0c0,0,0.1,0,0.1,0
		c0,0,0.1,0,0.1-0.1c0.1-0.1,0.1-0.1,0.1-0.1c0,0,0-0.1,0-0.1c0,0,0-0.1,0-0.1c0,0,0.1,0,0.1-0.1c0,0,0.1-0.1,0.1-0.1
		c0,0.1,0,0.1,0,0.1c0,0,0.1,0,0.1,0c0.1,0,0.1,0,0.2-0.1c0.1-0.1,0.1-0.2,0.2-0.3c0.1-0.1,0.1-0.2,0.1-0.3c0-0.1,0.1-0.2,0.1-0.2
		c0.1,0,0.2,0,0.3,0c0.1,0,0.2,0,0.3,0c0.1,0,0.2-0.1,0.3-0.1c0.1-0.1,0.1-0.1,0.2-0.2l0.5,0c0,0,0-0.1,0-0.1c0-0.1,0.1-0.1,0.1-0.1
		c0,0,0.1,0,0.2,0c0.1,0,0.2,0,0.2,0c0.3-0.2,0.5-0.3,0.6-0.4c0.1-0.1,0.3-0.2,0.4-0.3c0.1-0.1,0.2-0.1,0.2-0.1c0,0,0-0.1,0-0.1
		c0-0.1,0-0.1,0-0.1c0,0,0,0,0.1-0.1c0.1,0,0.2-0.1,0.2-0.1c0,0,0,0,0.1-0.1c0-0.1,0-0.1,0.1-0.1c0,0,0.1-0.1,0.1-0.1
		c0.1,0,0.1-0.1,0.1-0.1c0-0.1,0.1-0.2,0.2-0.4c0.1-0.2,0.1-0.3,0.2-0.3c0,0,0-0.1,0-0.2c0-0.1,0-0.2,0.1-0.3c0-0.1,0-0.2,0.1-0.3
		c0-0.1,0-0.1,0-0.2c0,0,0,0,0.1-0.1c0,0,0.1-0.1,0.1-0.1c0,0,0.1-0.1,0.1-0.2c0-0.1,0.1-0.1,0.1-0.2c0,0,0,0-0.1,0
		c0,0-0.1-0.1-0.1-0.1c-0.1,0-0.2-0.1-0.4-0.2c-0.2-0.1-0.4-0.1-0.4-0.1l0-0.3c0,0-0.1,0-0.2,0c-0.1,0-0.2,0-0.2,0
		c0,0-0.1-0.1-0.2-0.2c-0.1-0.1-0.1-0.2-0.1-0.2c-0.1,0-0.2-0.1-0.5-0.2c-0.2-0.1-0.4-0.2-0.4-0.2l-0.3,0c-0.4,0-0.8,0-1.2,0.1
		c-0.4,0.1-0.8,0.3-1,0.6l0,0.1c0,0.2,0,0.3,0.1,0.3l0.4,0.3c0.2,0.2,0.4,0.3,0.6,0.5c0.2,0.2,0.4,0.4,0.5,0.6c0,0,0,0,0,0.1
		c0,0,0,0.1,0,0.1c0,0.1-0.1,0.2-0.2,0.3c-0.1,0.2-0.2,0.2-0.2,0.2c-0.1,0-0.1-0.1-0.2-0.2c0-0.1,0-0.2-0.1-0.3
		c-0.2,0.1-0.4,0.1-0.7,0.1c0-0.1,0.1-0.2,0.2-0.2c0.1,0,0.2,0,0.2-0.1l0-0.1c-0.2,0.1-0.3,0.1-0.4,0.2c-0.1,0-0.3,0-0.5,0l-0.3,0
		c0-0.2,0-0.2-0.1-0.3c-0.1,0-0.2-0.1-0.3-0.1c-0.2-0.1-0.3-0.3-0.3-0.5c0-0.2-0.1-0.4-0.3-0.5c0,0-0.1-0.1-0.2-0.1
		c-0.1-0.1-0.3-0.1-0.4-0.1c-0.1,0-0.2-0.1-0.3-0.1c-0.1,0-0.2-0.1-0.1-0.1l0.1-2c-0.1,0-0.1-0.1-0.1-0.1c0-0.1,0-0.1,0-0.2
		c0.2,0,0.3,0,0.4-0.2c0.1-0.1,0.2-0.3,0.3-0.4c0.1,0,0.1,0,0.2,0c0.1,0,0.2,0,0.4,0c0.1,0,0.2,0,0.4,0c0.1,0,0.2,0,0.2,0
		c0,0,0.1,0,0.1-0.1c0.1-0.1,0.1-0.1,0.2-0.1c0.2-0.1,0.3-0.1,0.4-0.1s0.2-0.1,0.3-0.2l1,0.1c0-0.1,0-0.2,0.1-0.2c0,0,0-0.1-0.1-0.2
		l0.1,0l0.1,0c0.3,0.1,0.6,0.3,0.9,0.4c0.3,0.2,0.5,0.4,0.6,0.8l0.1,0c0.1,0,0.1-0.1,0.2-0.2c0-0.1,0.1-0.2,0.2-0.2c0,0,0,0,0.1,0
		c0,0,0.1,0,0.1,0c0,0,0.1,0,0.2,0.1c0.1,0,0.2,0.1,0.2,0.1c0,0,0.1,0,0.2,0c0.1,0,0.2,0,0.3,0c0.1,0,0.2,0,0.3,0.1
		c0.1,0,0.1,0.1,0.1,0.2c0,0,0,0.1,0,0.3c0,0.2,0,0.3,0,0.3c0.2,0.1,0.3,0.2,0.6,0.4c0.2,0.2,0.4,0.4,0.4,0.6c0,0,0,0.1,0,0.2
		c0,0.1,0,0.2,0,0.2c0.1,0,0.2,0,0.3,0c0.1,0,0.1,0,0.2,0c0,0,0,0,0.1,0c0,0,0,0,0.1,0c0.1,0,0.1,0,0.2,0.1c0.1,0,0.1,0,0.1,0
		c0,0,0,0.1,0,0.2c0,0.1,0,0.2,0,0.2c0,0,0.1,0.1,0.2,0.2c0.1,0.1,0.1,0.2,0.2,0.3c0,0.1,0.1,0.3,0.1,0.5s0,0.4,0,0.5
		c0,0.2,0,0.4-0.1,0.6c0,0.2-0.1,0.4-0.1,0.6c0,0.2,0,0.4,0,0.6c0,0.2,0,0.3,0.1,0.5c0,0-0.1,0.1-0.3,0.2c-0.2,0.1-0.2,0.1-0.3,0.2
		c0,0-0.1,0-0.2-0.1c-0.1-0.1-0.2-0.2-0.2-0.2c0,0,0,0.1,0,0.1c0,0.1,0,0.1,0,0.2c0,0.1,0,0.2,0,0.2c0,0.1,0,0.1,0,0.1
		c0,0,0,0.1,0,0.1c0,0.1,0,0.1,0,0.1l0,0.2c0,0.1,0,0.2-0.1,0.3c0,0.1-0.1,0.1-0.3,0.1c-0.1,0-0.2-0.1-0.2-0.2
		c0-0.1-0.1-0.2-0.2-0.2l0,0c0,0.2-0.1,0.3-0.1,0.4c-0.1,0.1-0.2,0.2-0.2,0.3c-0.1,0.1-0.2,0.2-0.3,0.3s-0.1,0.2-0.2,0.4
		c0,0,0-0.1,0-0.2c0-0.1-0.1-0.1-0.1-0.2l-0.1,0c-0.1,0-0.2,0-0.2,0c-0.1,0-0.1,0-0.3,0l0,0.6c0,0,0,0-0.1,0.1c-0.1,0-0.1,0-0.1,0
		c0,0-0.1,0-0.2,0c-0.1,0-0.2,0-0.2,0l-0.2,0.1c0,0-0.1,0-0.1-0.1c0,0,0-0.1,0-0.1c0,0,0.1-0.1,0.1-0.1c0,0,0-0.1,0.1-0.1l0-0.1
		l0-0.1c-0.1,0-0.1-0.1-0.1-0.1l-0.1,0c0,0,0,0-0.1,0c0,0-0.1,0.1-0.1,0.1c-0.1,0-0.1,0.1-0.1,0.1l0,0.1l0,0.1c0,0,0,0.1,0,0.1
		c0,0.1,0,0.1,0,0.1c-0.2,0.1-0.3,0.2-0.5,0.3c-0.1,0.1-0.2,0.1-0.3,0.2c-0.1,0.1-0.2,0.1-0.2,0.1l0.1,0.1l-0.3,0.5
		c-0.1,0-0.1,0.1-0.3,0.3c-0.1,0.2-0.2,0.3-0.3,0.3c0,0.1,0.1,0.1,0.3,0c0.1-0.1,0.2-0.1,0.3-0.1l0.1,0c0,0,0.1-0.1,0.1-0.1
		c0-0.1,0-0.1,0.1-0.1c0,0,0,0,0.1,0c0,0,0.1,0,0.1,0l0.1-0.2l0.1,0c0.1,0,0.1,0,0.1,0c0,0,0,0,0,0c0,0,0,0,0,0
		c0.1,0.1,0.2,0.2,0.3,0.2c0.2,0,0.3,0,0.4,0.1c0,0,0,0.1,0.1,0.1l0.1,0.1c0.1,0.1,0.3,0.2,0.5,0.2c0.2,0,0.4,0,0.5,0
		c0,0,0,0.1,0,0.1l0,0.1c0,0,0,0,0,0.1c0,0-0.1,0.1-0.3,0.1c-0.1,0-0.2,0.1-0.3,0.1l-0.1,1.2c0,0.1,0,0.1,0.1,0.1
		c0,0,0.1-0.1,0.1-0.2c0-0.2,0.1-0.3,0.1-0.5c0-0.2,0.1-0.4,0.2-0.5c0.1-0.1,0.2-0.2,0.3-0.2l0.3,0.5c0,0.1,0,0.1,0,0.2
		c0,0.1,0.1,0.1,0.1,0.1c0.1,0,0.2,0,0.2,0c0.1,0,0.1,0,0.2,0c0.1,0,0.2,0,0.2,0.1c0,0.1,0.1,0.1,0.1,0.2l0.5,0c0,0-0.1,0-0.2-0.1
		c-0.1-0.1-0.1-0.1-0.1-0.1l0-0.1l0-0.1c0,0,0,0,0.1-0.1c0,0,0,0,0.1,0c0.1,0,0.2,0.1,0.4,0.2s0.3,0.1,0.3,0.1c0,0,0.1,0,0.3,0
		c0.2,0,0.3,0,0.3,0c0,0,0,0,0.1,0.1c0.1,0,0.1,0,0.1,0.1c0,0,0,0.1,0,0.2c0,0.1,0,0.2,0.1,0.2c0,0,0.1,0,0.2,0
		c0.1,0,0.1-0.1,0.1-0.1c0,0,0,0,0,0c0,0,0,0,0,0c0,0,0-0.1,0-0.1c0-0.1,0-0.1,0-0.1l0-0.1l0-0.1l0.1,0c0.1,0,0.1,0,0.2,0.1
		c0.1,0,0.1,0,0.1,0l0,0.1c0,0.2-0.1,0.3-0.2,0.4c-0.1,0.1-0.2,0.2-0.3,0.3l0,0.1c0,0.1-0.1,0.2-0.2,0.3c-0.1,0-0.1,0.1-0.2,0.1
		c-0.1,0-0.2,0-0.2,0c-0.1,0-0.1,0-0.2,0l0.2,0.4c0,0,0,0,0,0.1c0,0-0.1,0-0.1,0c-0.1,0-0.2,0-0.2-0.1c0-0.1,0-0.1,0-0.2
		c0-0.1,0-0.2,0-0.2c0-0.1-0.1-0.1-0.1-0.1c-0.1,0-0.1,0.1-0.1,0.2c0,0.1,0,0.2,0,0.3c0,0.1-0.1,0.2-0.2,0.2c-0.1,0-0.3-0.1-0.6-0.2
		l0-0.7c0,0,0,0-0.1,0l0-0.1c0,0,0,0.1-0.1,0.1c0,0,0,0.1,0,0.1c0,0.1,0,0.2,0,0.5c0,0.2,0,0.4,0,0.5l0,0.1c0,0,0-0.1,0.1-0.1
		c0-0.1,0-0.1,0-0.1c0.1,0.1,0.2,0.2,0.2,0.3c0.1,0.1,0.1,0.2,0.1,0.3c0,0.1,0,0.1-0.1,0.2c0,0-0.1,0.1-0.1,0.2c0,0.1,0,0.1,0,0.1
		c0,0,0-0.1,0-0.2c0-0.1,0.1-0.1,0.1-0.2c0-0.1,0.1-0.1,0.2-0.1l0.3-0.2c0.1,0,0.1-0.1,0.2-0.1c0.1-0.1,0.2-0.1,0.2,0l-0.3,1.3
		c-0.4,0-0.7,0-0.9,0.2c-0.2,0.1-0.5,0.2-0.8,0.2c-0.2,0-0.3,0-0.4,0C214.6,135.7,214.5,135.7,214.3,135.6z M208.2,129.8
		L208.2,129.8c0.1,0,0.1-0.1,0.1-0.2c0-0.1,0.1-0.2,0.2-0.2l0-0.1l0-0.1l-0.1,0l-0.1,0L208.2,129.8z M208.7,128.9
		c-0.1,0-0.1,0-0.1,0.1c0,0.1,0,0.1,0.1,0.1c0.1,0,0.1,0,0.1-0.1C208.8,129,208.8,128.9,208.7,128.9z M209,129.4
		c-0.1,0-0.1,0-0.1,0.1c0,0.1,0,0.1,0.1,0.1c0.1,0,0.1,0,0.1-0.1C209.1,129.4,209.1,129.4,209,129.4z M209.2,128.9l0.1,0l-0.1-0.1
		L209.2,128.9z M209.3,128.3c0.1,0,0.2,0.1,0.3,0.1c0.1,0,0.2,0.1,0.3,0.1c0-0.1,0-0.2-0.1-0.2c-0.1,0-0.2,0-0.3-0.1
		c0,0-0.1,0-0.2,0C209.4,128.2,209.3,128.2,209.3,128.3z M209.1,132.9c-0.1,0-0.1,0-0.1,0.1c0,0.1,0,0.1,0.1,0.1
		c0.1,0,0.1,0,0.1-0.1S209.2,132.9,209.1,132.9z M210.1,121.4C210,121.4,210,121.4,210.1,121.4c-0.1,0.1-0.1,0.2,0,0.2
		C210.1,121.6,210.2,121.6,210.1,121.4C210.2,121.5,210.1,121.4,210.1,121.4z M210.1,130.4c0,0.1,0,0.3,0.1,0.4
		c0.1,0.1,0.1,0.2,0.3,0.2l0.1,0c0,0,0,0,0.1,0c0,0,0,0,0.1-0.1c0,0,0.1-0.1,0.2-0.2l0-0.1c0,0,0,0,0-0.1c-0.1,0-0.2-0.1-0.3-0.1
		C210.4,130.4,210.3,130.4,210.1,130.4z M210.6,127.6C210.6,127.6,210.6,127.6,210.6,127.6l0.1,0.1c0,0,0,0.1,0,0.2
		c0,0.1,0,0.2,0,0.3c0,0.1,0,0.2,0,0.3c0,0.1,0,0.2,0,0.2c0.1,0,0.1,0,0.1,0c0,0,0.1-0.1,0.1-0.2c0-0.1,0-0.1,0.1-0.2l0.1,0l0.1,0
		l0-0.2c0,0,0-0.1,0.1-0.2c0.1-0.1,0.1-0.2,0.1-0.2c0-0.1,0-0.1-0.1-0.1c-0.1,0-0.1,0-0.2-0.1c-0.1,0-0.1,0-0.2-0.1
		c-0.1,0-0.1-0.1-0.1-0.2c0,0-0.1,0.1-0.1,0.1c0,0.1,0,0.1-0.1,0.2L210.6,127.6z M210.4,133.1C210.5,133.1,210.5,133,210.4,133.1
		c-0.1-0.1-0.1,0-0.1,0C210.4,133.1,210.4,133.2,210.4,133.1C210.4,133.2,210.4,133.1,210.4,133.1z M211.1,126.7
		c-0.1,0-0.1,0-0.1,0.1l0,0.1l0,0.1l0.1-0.1L211.1,126.7L211.1,126.7z M211.6,118.6c0,0.1,0,0.2,0.1,0.2c0.1,0,0.2,0,0.2,0.1l0-0.4
		c0,0-0.1,0-0.2,0C211.7,118.5,211.6,118.5,211.6,118.6L211.6,118.6z M210.7,133c0,0,0,0.1,0.1,0.2c0,0.1,0.1,0.1,0.1,0.2
		c0,0,0-0.1,0.1-0.1c0-0.1,0-0.1,0-0.1l0-0.1l0-0.1c0,0,0-0.1,0-0.1c0-0.1,0-0.1-0.1-0.1l0,0c0,0,0,0,0,0l-0.1,0
		c-0.1,0-0.1,0-0.1,0.1L210.7,133L210.7,133z M210.9,130.7c0.1-0.1,0.1-0.1,0.1-0.2s0-0.1,0-0.2c0,0,0-0.1,0-0.2
		c0-0.1,0-0.1-0.1-0.2l-0.1,0.1L210.9,130.7z M211.2,128.7c-0.1,0-0.1,0-0.1,0.1c0,0.1,0,0.1,0.1,0.1c0.1,0,0.1,0,0.1-0.1
		C211.3,128.8,211.2,128.8,211.2,128.7z M211.1,129.8c0.1,0,0.1-0.1,0.1-0.2l-0.1,0L211.1,129.8z M212.4,130.7c-0.1,0-0.2,0-0.2,0.1
		c0,0.1-0.1,0.2-0.1,0.2c0.1,0,0.2,0,0.2-0.1C212.4,130.9,212.4,130.8,212.4,130.7z M212.4,133.9c0,0.2,0.1,0.2,0.2,0.3
		c0.2,0,0.3,0,0.4,0c0-0.1-0.1-0.2-0.2-0.2C212.6,133.9,212.5,133.9,212.4,133.9z M212.9,130.5c0,0.2-0.1,0.3-0.1,0.4
		c0,0.1,0,0.2-0.1,0.3c0,0.1,0,0.2-0.1,0.2l0,0.1l0,0.1c0,0,0,0,0.1,0.1c0,0.1,0.1,0.1,0.2,0.2c0.1,0.1,0.1,0.1,0.1,0
		c0,0,0.1-0.2,0.1-0.5c0,0,0,0,0.1-0.1l0.1,0c0,0,0-0.1,0-0.1c0-0.1,0-0.2,0-0.2c0-0.1,0-0.2,0-0.2c0-0.1,0-0.1,0-0.1L212.9,130.5z
		 M213.4,126.7c0,0.1,0,0.2,0.1,0.2l0-0.2L213.4,126.7z M213.2,133l0.1-0.1l-0.1-0.1L213.2,133z M214.1,132.8c0,0.1,0,0.1,0.1,0.1
		c0,0,0.1,0,0.2,0c0.1,0,0.1,0.1,0.2,0.1c0.1,0.1,0.1,0.2,0.1,0.4c0,0,0-0.1,0.1-0.2c0-0.1,0.1-0.1,0.1-0.1c0,0,0,0,0.1,0
		c0,0,0.1,0,0.1,0c0,0.1,0,0.2,0,0.2c0,0.1,0.1,0.1,0.2,0.1c0-0.1,0-0.3,0-0.5c0-0.2-0.1-0.4-0.2-0.4c0,0-0.1,0-0.1,0
		c-0.1,0-0.1,0-0.1,0l0-0.4L214.1,132.8L214.1,132.8z M215,126.9l0.1,0.3l0.1,0.1l0.1,0c0,0,0,0,0-0.1c0-0.1,0.1-0.1,0.1-0.1
		l0.1-0.4c0-0.1-0.1-0.1-0.2,0c-0.1,0.1-0.2,0.1-0.3,0.1L215,126.9z M215.1,132.2C215.1,132.2,215.1,132.3,215.1,132.2
		c-0.1,0.1,0,0.2,0,0.2C215.2,132.3,215.2,132.3,215.1,132.2z M215.2,132.4c-0.1,0-0.1,0-0.1,0.1c0,0.1,0,0.1,0.1,0.1
		c0.1,0,0.1,0,0.1-0.1C215.3,132.5,215.3,132.4,215.2,132.4z M215.3,132.5c-0.1,0-0.1,0-0.1,0.1s0,0.1,0.1,0.1c0,0,0.1,0,0.1-0.1
		S215.4,132.5,215.3,132.5z M215.4,132.9l0.1-0.1l-0.1,0L215.4,132.9z M216.2,124.8c0,0-0.1,0-0.1,0.1c0,0.1-0.1,0.2-0.1,0.2
		c0,0.1-0.1,0.2-0.1,0.2c0,0.1,0,0.1,0,0.1c0,0,0.1,0,0.1-0.1c0-0.1,0.1-0.2,0.1-0.2c0-0.1,0.1-0.2,0.1-0.2
		C216.3,124.8,216.3,124.8,216.2,124.8z M216.2,133.4l0.1-0.1l-0.1,0L216.2,133.4z"/>
</g>
<rect x="21.5" y="175.3" transform="matrix(0.9932 -0.116 0.116 0.9932 -22.6129 6.9969)" fill="none" stroke="#373232" stroke-width="3" stroke-miterlimit="10" width="54.6" height="44.9"/>
<g>
	<path fill="#373232" d="M61.5,199.1c0,0,0-0.1,0-0.2c0-0.1-0.1-0.2-0.1-0.2c0,0-0.1,0-0.2,0c-0.1,0-0.2,0-0.2,0c0,0-0.1,0-0.1,0
		c-0.1,0-0.1,0-0.1-0.1c0,0-0.1-0.1-0.2-0.1c-0.1-0.1-0.2-0.1-0.3-0.2c0,0-0.1,0-0.2,0c-0.1,0-0.2,0-0.3,0c-0.1,0-0.2,0-0.3,0
		c-0.1,0-0.1,0-0.2,0c-0.2-0.1-0.5-0.1-0.6-0.3c-0.2-0.1-0.4-0.2-0.6-0.4l-0.1,0c-0.1,0-0.1,0.1-0.2,0.2c0,0.1,0,0.2,0,0.3
		c-0.2,0-0.3-0.1-0.3-0.2c0-0.1-0.1-0.2-0.2-0.2l0,0.1l0,0.1c0,0,0,0.1,0,0.2c0,0.1,0,0.2,0.1,0.2c0,0-0.1,0-0.1,0
		c-0.1,0-0.1,0-0.1-0.1c0-0.1-0.1-0.2,0-0.3c0-0.1,0-0.1-0.1-0.2c0,0,0,0,0,0c0,0,0,0,0,0c0,0,0,0-0.1,0l0.1,0.7
		c-0.1,0-0.2,0.1-0.3,0.2c-0.1,0.1-0.2,0.2-0.3,0.2l-0.6,0.1c0,0,0,0.1,0,0.1c0,0,0,0.1-0.1,0.1l-0.2,0c-0.1,0-0.3,0-0.4,0
		c-0.2,0-0.3,0-0.3,0c0,0-0.1-0.1-0.1-0.1c-0.1-0.1-0.1-0.1-0.1-0.2c-0.2-0.2-0.3-0.5-0.3-0.8c0-0.3-0.1-0.6-0.1-0.9
		c0-0.2,0-0.5,0-0.7c0-0.3,0-0.6,0.1-0.9c0-0.3,0.1-0.6,0.2-0.9c0.1-0.3,0.1-0.5,0.2-0.7c0.1-0.2,0.2-0.3,0.3-0.4
		c0.2-0.1,0.3-0.2,0.3-0.4c0,0,0.1-0.1,0.1-0.3c0-0.2,0.1-0.3,0.1-0.3c0,0,0,0,0.1-0.1c0,0,0,0,0.1,0c0,0,0.1,0,0,0
		c0,0,0.1-0.1,0.1-0.1c0-0.1,0.1-0.1,0.1-0.1c0,0,0-0.1,0-0.1c0,0,0-0.1,0-0.1c0,0,0-0.1,0.1-0.1c0,0,0.1-0.1,0.1-0.1
		c0,0.1,0,0.1,0.1,0.1c0,0,0.1,0,0.1,0c0.1,0,0.1-0.1,0.2-0.1c0.1-0.1,0.1-0.2,0.1-0.3c0-0.1,0.1-0.2,0.1-0.3c0-0.1,0-0.2,0-0.2
		c0.1,0,0.2,0,0.3,0c0.1,0,0.2-0.1,0.3-0.1c0.1,0,0.2-0.1,0.3-0.2c0.1-0.1,0.1-0.2,0.1-0.3l0.5-0.1c0,0,0-0.1,0-0.1
		c0-0.1,0-0.1,0.1-0.1c0,0,0.1,0,0.2,0c0.1,0,0.2,0,0.2,0c0.2-0.2,0.4-0.4,0.5-0.5c0.1-0.1,0.2-0.2,0.4-0.3c0.1-0.1,0.2-0.2,0.2-0.2
		c0,0,0-0.1,0-0.1c0-0.1,0-0.1,0-0.1c0,0,0-0.1,0.1-0.1c0.1-0.1,0.1-0.1,0.2-0.1c0,0,0-0.1,0-0.1c0-0.1,0-0.1,0-0.1
		c0,0,0-0.1,0.1-0.1c0.1-0.1,0.1-0.1,0.1-0.1c0-0.1,0.1-0.2,0.1-0.4c0.1-0.2,0.1-0.3,0.1-0.3c0,0,0-0.1,0-0.2c0-0.1,0-0.2,0-0.3
		c0-0.1,0-0.2,0-0.3c0-0.1,0-0.2,0-0.2c0,0,0-0.1,0-0.1c0-0.1,0-0.1,0-0.1c0-0.1,0.1-0.1,0.1-0.2c0-0.1,0-0.1,0-0.2c0,0,0,0-0.1,0
		c0,0-0.1,0-0.1,0c-0.1,0-0.2-0.1-0.5-0.1c-0.2,0-0.4-0.1-0.5-0.1l0-0.3c0,0-0.1,0-0.2,0.1c-0.1,0-0.2,0.1-0.2,0.1
		c0,0-0.1-0.1-0.2-0.2c-0.1-0.1-0.1-0.1-0.2-0.2c-0.1,0-0.3-0.1-0.5-0.1c-0.2-0.1-0.4-0.1-0.5-0.1l-0.3,0c-0.4,0-0.8,0.2-1.2,0.3
		c-0.4,0.2-0.7,0.4-0.9,0.8l0,0.1c0,0.2,0.1,0.3,0.1,0.3l0.5,0.2c0.3,0.1,0.5,0.3,0.7,0.4c0.2,0.2,0.4,0.4,0.6,0.5c0,0,0,0,0,0.1
		c0,0,0,0.1,0,0.1c0,0.1,0,0.2-0.1,0.3c-0.1,0.2-0.1,0.3-0.1,0.3c-0.1,0-0.2,0-0.2-0.1c0-0.1-0.1-0.2-0.1-0.3
		c-0.2,0.1-0.4,0.2-0.6,0.2c0-0.1,0-0.2,0.1-0.2c0.1,0,0.1-0.1,0.1-0.2l0-0.1c-0.1,0.1-0.3,0.2-0.4,0.2c-0.1,0-0.3,0.1-0.4,0.1
		l-0.3,0c0-0.2-0.1-0.2-0.2-0.2c-0.1,0-0.2,0-0.3-0.1c-0.2-0.1-0.3-0.2-0.4-0.4c-0.1-0.2-0.2-0.3-0.4-0.5c0,0-0.1-0.1-0.3-0.1
		c-0.1,0-0.3-0.1-0.4-0.1c-0.1,0-0.3,0-0.4-0.1c-0.1,0-0.2-0.1-0.2-0.1l-0.2-2c-0.1,0-0.1,0-0.1-0.1c0-0.1-0.1-0.1-0.1-0.1
		c0.2,0,0.3-0.1,0.4-0.2c0.1-0.1,0.2-0.3,0.2-0.4c0.1,0,0.1,0,0.2,0c0.1,0,0.2,0,0.3-0.1c0.1,0,0.2-0.1,0.3-0.1
		c0.1,0,0.2-0.1,0.2-0.1c0,0,0.1,0,0.1-0.1c0.1-0.1,0.1-0.1,0.2-0.1c0.2-0.1,0.3-0.2,0.4-0.2s0.2-0.1,0.3-0.2l1-0.1
		c0-0.1,0-0.2,0-0.2c0,0,0-0.1-0.1-0.2l0.1,0l0.1,0c0.3,0.1,0.7,0.2,1,0.3c0.3,0.1,0.5,0.3,0.7,0.7l0.1,0c0.1,0,0.1-0.1,0.1-0.2
		c0-0.1,0.1-0.2,0.2-0.2c0,0,0,0,0.1,0c0,0,0.1,0,0.1,0c0,0,0.1,0,0.2,0c0.1,0,0.2,0,0.2,0c0,0,0.1,0,0.2,0c0.1,0,0.2,0,0.3,0
		c0.1,0,0.2,0,0.3,0c0.1,0,0.1,0.1,0.2,0.2c0,0,0.1,0.1,0.1,0.3c0,0.2,0.1,0.3,0.1,0.3c0.2,0,0.4,0.1,0.6,0.3
		c0.3,0.2,0.4,0.3,0.5,0.5c0,0,0,0.1,0,0.2c0,0.1,0,0.2,0,0.2c0.1,0,0.2,0,0.3-0.1c0.1,0,0.1-0.1,0.2-0.1c0,0,0,0,0.1,0
		c0,0,0,0,0.1,0c0.1,0,0.1,0,0.2,0c0.1,0,0.1,0,0.1,0c0,0,0,0.1,0,0.2c0,0.1,0,0.2,0,0.2c0,0,0.1,0.1,0.2,0.2
		c0.1,0.1,0.2,0.2,0.2,0.2c0.1,0.1,0.1,0.2,0.1,0.4c0,0.2,0.1,0.4,0.1,0.5c0,0.2,0,0.4,0,0.6c0,0.2,0,0.4,0,0.6c0,0.2,0,0.4,0.1,0.6
		c0,0.2,0.1,0.3,0.2,0.5c0,0-0.1,0.1-0.2,0.2s-0.2,0.2-0.2,0.2c0,0-0.1,0-0.2-0.1c-0.2-0.1-0.2-0.1-0.3-0.1c0,0,0,0.1,0,0.1
		c0,0.1,0.1,0.1,0.1,0.2c0,0.1,0.1,0.2,0.1,0.2c0,0.1,0,0.1,0,0.1c0,0,0,0.1,0.1,0.1c0,0,0.1,0.1,0.1,0.1l0,0.2c0,0.1,0,0.3,0,0.3
		c0,0.1-0.1,0.1-0.2,0.2c-0.1,0-0.2,0-0.3-0.1c0-0.1-0.1-0.2-0.2-0.1l0,0c0,0.2,0,0.3-0.1,0.4c-0.1,0.1-0.1,0.2-0.2,0.3
		c-0.1,0.1-0.1,0.2-0.2,0.3c-0.1,0.1-0.1,0.3-0.1,0.4c0,0,0-0.1-0.1-0.2c0-0.1-0.1-0.1-0.1-0.1l-0.1,0c-0.1,0-0.2,0-0.2,0.1
		c0,0-0.1,0.1-0.3,0.1l0.1,0.6c0,0,0,0-0.1,0.1c0,0-0.1,0-0.1,0.1c0,0-0.1,0-0.2,0c-0.1,0-0.2,0-0.2,0l-0.2,0.2c0,0-0.1,0-0.1,0
		c0,0-0.1-0.1-0.1-0.1c0,0,0.1-0.1,0.1-0.1c0,0,0-0.1,0.1-0.1l0-0.1l0-0.1c-0.1,0-0.1,0-0.2-0.1l-0.1,0c0,0,0,0,0,0
		c0,0,0,0.1-0.1,0.1c0,0-0.1,0.1-0.1,0.1l0,0.1l0,0.1c0,0,0,0.1,0.1,0.1c0,0.1,0.1,0.1,0.1,0.1c-0.1,0.1-0.3,0.3-0.4,0.4
		c-0.1,0.1-0.2,0.2-0.3,0.3c-0.1,0.1-0.1,0.1-0.2,0.1l0.1,0.1l-0.2,0.5c0,0-0.1,0.1-0.2,0.3c-0.1,0.2-0.2,0.3-0.2,0.3
		c0,0.1,0.1,0.1,0.3,0c0.1-0.1,0.2-0.1,0.3-0.1l0.1,0c0,0,0.1-0.1,0.1-0.1c0-0.1,0-0.1,0-0.1c0,0,0,0,0.1,0c0.1,0,0.1,0,0.1,0l0-0.2
		l0.1,0c0.1,0,0.1,0,0.1,0c0,0,0,0,0,0c0,0,0,0,0,0c0.1,0.1,0.2,0.2,0.4,0.2c0.2,0,0.3,0,0.4,0c0,0,0.1,0.1,0.1,0.1l0.1,0.1
		c0.2,0.1,0.3,0.2,0.5,0.1c0.2,0,0.4-0.1,0.5-0.1c0,0,0,0.1,0,0.1l0,0.1c0,0,0,0,0,0c0,0-0.1,0.1-0.2,0.1c-0.1,0.1-0.2,0.1-0.2,0.1
		l0.1,1.2c0,0.1,0,0.1,0.1,0.1c0,0,0.1-0.1,0-0.3c0-0.2,0-0.3,0-0.5c0-0.2,0-0.4,0.1-0.5c0-0.2,0.1-0.2,0.2-0.2l0.4,0.4
		c0,0.1,0,0.1,0,0.2c0,0.1,0.1,0.1,0.2,0.1c0.1,0,0.2,0,0.2-0.1c0,0,0.1-0.1,0.2-0.1c0.1,0,0.2,0,0.3,0.1c0,0.1,0.1,0.1,0.1,0.2
		l0.5-0.1c0,0-0.1,0-0.2-0.1c-0.1,0-0.1-0.1-0.2-0.1l0,0l0-0.1c0,0,0,0,0-0.1c0,0,0-0.1,0-0.1c0.1,0,0.2,0.1,0.4,0.1
		c0.2,0,0.3,0.1,0.3,0.1c0,0,0.2,0,0.3,0c0.2,0,0.3,0,0.3-0.1c0,0,0.1,0,0.1,0c0.1,0,0.1,0,0.1,0c0,0,0,0.1,0.1,0.2
		c0,0.1,0.1,0.1,0.1,0.2c0,0,0.1,0,0.2,0c0.1-0.1,0.1-0.1,0.1-0.1c0,0,0,0,0,0c0,0,0,0,0,0c0,0,0-0.1-0.1-0.1c0-0.1-0.1-0.1-0.1-0.1
		l0,0l0-0.1l0.1,0c0.1,0,0.1,0,0.2,0c0.1,0,0.1,0,0.1,0l0,0c0,0.2,0,0.4-0.1,0.5c-0.1,0.1-0.2,0.2-0.3,0.3l0,0.1
		c0,0.1-0.1,0.2-0.1,0.3c-0.1,0.1-0.1,0.1-0.2,0.1c-0.1,0-0.2,0-0.2,0c-0.1,0-0.1,0-0.2,0l0.3,0.3c0,0,0,0,0,0.1c0,0-0.1,0-0.1,0
		c-0.1,0-0.2,0-0.2-0.1c0-0.1-0.1-0.1-0.1-0.2c0-0.1,0-0.1-0.1-0.2c0-0.1-0.1-0.1-0.2-0.1c-0.1,0-0.1,0.1,0,0.2c0,0.1,0,0.2,0,0.3
		c0,0.1-0.1,0.2-0.2,0.2c-0.1,0-0.3,0-0.6-0.1l-0.1-0.7c0,0,0,0-0.1,0l-0.1,0c0,0,0,0.1,0,0.1c0,0.1,0,0.1,0,0.1
		c0,0.1,0,0.2,0.1,0.5c0.1,0.2,0.1,0.4,0.1,0.5l0.1,0c0,0,0-0.1,0-0.1c0-0.1,0-0.1,0-0.1c0.1,0.1,0.2,0.1,0.3,0.2
		c0.1,0.1,0.1,0.2,0.1,0.3c0,0.1,0,0.1,0,0.2c0,0,0,0.1,0,0.2c0,0.1,0,0.1,0,0c0,0,0-0.1,0-0.2c0-0.1,0-0.2,0.1-0.2
		c0-0.1,0.1-0.1,0.1-0.1l0.3-0.2c0.1-0.1,0.1-0.1,0.2-0.2c0.1-0.1,0.2-0.1,0.2-0.1l-0.1,1.3c-0.4,0-0.6,0.1-0.8,0.3
		c-0.2,0.2-0.4,0.3-0.8,0.3c-0.2,0-0.3,0-0.4,0C61.8,199.2,61.6,199.1,61.5,199.1z M54.4,194.5L54.4,194.5c0,0,0-0.1,0.1-0.2
		c0-0.1,0-0.2,0.1-0.2l-0.1,0l-0.1,0l-0.1,0l0,0L54.4,194.5z M54.8,193.5c-0.1,0-0.1,0.1-0.1,0.1c0,0.1,0,0.1,0.1,0.1
		c0.1,0,0.1,0,0.1-0.1C54.8,193.6,54.8,193.5,54.8,193.5z M55.1,193.9c-0.1,0-0.1,0.1-0.1,0.1c0,0.1,0,0.1,0.1,0.1
		c0.1,0,0.1-0.1,0.1-0.1C55.2,194,55.2,193.9,55.1,193.9z M55.2,193.4l0.1,0l-0.1-0.1L55.2,193.4z M55.2,192.8c0.1,0,0.2,0,0.3,0.1
		c0.1,0,0.2,0,0.3,0c0-0.1-0.1-0.2-0.1-0.2c-0.1,0-0.2,0-0.3,0c0,0-0.1,0-0.2,0C55.3,192.7,55.2,192.7,55.2,192.8z M55.9,197.4
		c-0.1,0-0.1,0-0.1,0.1c0,0.1,0,0.1,0.1,0.1s0.1,0,0.1-0.1S55.9,197.4,55.9,197.4z M54.7,185.9C54.7,185.9,54.7,185.9,54.7,185.9
		c-0.1,0.2,0,0.2,0,0.2c0.1,0,0.1,0,0.1-0.1C54.8,185.9,54.8,185.9,54.7,185.9z M56.4,194.7c0,0.1,0.1,0.3,0.1,0.4
		c0.1,0.1,0.2,0.2,0.3,0.2l0.1,0c0,0,0,0,0,0c0,0,0,0,0.1-0.1c0,0,0.1-0.1,0.1-0.3l0-0.1c0,0,0,0,0,0c-0.1,0-0.2,0-0.4,0
		C56.7,194.7,56.6,194.7,56.4,194.7z M56.4,191.9C56.4,191.9,56.4,191.9,56.4,191.9L56.4,191.9c0.1,0.1,0.1,0.2,0.1,0.3
		c0,0.1,0,0.2,0.1,0.3c0,0.1,0,0.2,0.1,0.3c0,0.1,0,0.2,0,0.2c0.1,0,0.1,0,0.1-0.1c0,0,0.1-0.1,0.1-0.2c0-0.1,0-0.1,0-0.2l0.1-0.1
		l0.1-0.1l0-0.2c0,0,0-0.1,0-0.3c0-0.1,0-0.2,0-0.2c0-0.1,0-0.1-0.1-0.1c-0.1,0-0.1,0-0.2,0c-0.1,0-0.1,0-0.2,0
		c-0.1,0-0.1-0.1-0.1-0.2c0,0-0.1,0.1-0.1,0.2C56.3,191.7,56.3,191.8,56.4,191.9L56.4,191.9z M57.2,197.3
		C57.2,197.3,57.2,197.3,57.2,197.3c-0.1,0-0.1,0-0.1,0C57.1,197.4,57.2,197.4,57.2,197.3C57.2,197.4,57.2,197.4,57.2,197.3z
		 M56.7,190.9c-0.1,0-0.1,0-0.1,0.1l0,0.1l0,0.1l0.1-0.1L56.7,190.9L56.7,190.9z M55.7,182.8c0,0.1,0.1,0.2,0.1,0.2
		c0.1,0,0.2,0,0.2,0l0-0.4c0,0-0.1,0-0.2,0.1C55.8,182.7,55.8,182.8,55.7,182.8L55.7,182.8z M57.4,197.2c0,0,0.1,0.1,0.1,0.2
		c0.1,0.1,0.1,0.1,0.1,0.1c0,0,0-0.1,0.1-0.1c0-0.1,0-0.1,0-0.1l0-0.1l0-0.1c0,0,0-0.1-0.1-0.1c0,0-0.1-0.1-0.1-0.1l0,0
		c0,0,0,0-0.1,0l0,0c-0.1,0-0.1,0-0.1,0.1L57.4,197.2L57.4,197.2z M57.3,194.9c0.1-0.1,0.1-0.2,0.1-0.2c0-0.1,0-0.1,0-0.2
		c0,0,0-0.1,0-0.2c0-0.1-0.1-0.1-0.1-0.1l-0.1,0.2L57.3,194.9z M57.2,192.9c-0.1,0-0.1,0.1-0.1,0.1c0,0.1,0,0.1,0.1,0.1
		c0.1,0,0.1,0,0.1-0.1C57.3,192.9,57.2,192.9,57.2,192.9z M57.3,193.9c0.1,0,0.1-0.1,0.1-0.2l-0.1,0L57.3,193.9z M58.7,194.6
		c-0.1,0-0.2,0.1-0.2,0.2c0,0.1,0,0.2,0,0.2c0.1,0,0.2-0.1,0.2-0.1C58.7,194.8,58.7,194.7,58.7,194.6z M59.2,197.8
		c0,0.2,0.1,0.2,0.3,0.2c0.2,0,0.3,0,0.4,0c0-0.1-0.1-0.2-0.3-0.2C59.5,197.7,59.4,197.7,59.2,197.8z M59.1,194.4c0,0.2,0,0.3,0,0.4
		c0,0.1,0,0.2,0,0.3c0,0.1,0,0.2,0,0.2l0,0.1l0,0.1c0,0,0.1,0,0.1,0.1c0.1,0.1,0.1,0.1,0.2,0.2s0.1,0,0.1,0c0-0.1,0-0.2,0-0.5
		c0,0,0,0,0-0.1l0-0.1c0,0,0-0.1,0-0.1c0-0.1,0-0.2-0.1-0.2c0-0.1,0-0.2-0.1-0.2c0-0.1,0-0.1,0-0.1L59.1,194.4z M59,190.5
		c0,0.1,0.1,0.1,0.2,0.2l0-0.2L59,190.5z M60,196.7l0.1-0.1l-0.1-0.1L60,196.7z M60.8,196.4c0,0.1,0,0.1,0.1,0.1c0,0,0.1,0,0.2,0
		c0.1,0,0.1,0,0.2,0.1c0.1,0.1,0.1,0.2,0.2,0.3c0,0,0-0.1,0-0.2c0-0.1,0.1-0.1,0.1-0.2c0,0,0,0,0.1,0c0,0,0.1,0,0.1,0
		c0,0.1,0,0.2,0,0.2c0,0.1,0.1,0.1,0.2,0.1c0-0.1,0-0.3-0.1-0.5c0-0.2-0.1-0.3-0.3-0.4c0,0-0.1,0-0.1,0c0,0-0.1,0-0.1,0l0-0.4
		L60.8,196.4L60.8,196.4z M60.6,190.4l0.1,0.3l0.1,0l0.1-0.1c0,0,0,0,0-0.1c0-0.1,0-0.1,0-0.1l0-0.4c0-0.1-0.1,0-0.2,0.1
		c-0.1,0.1-0.2,0.2-0.3,0.2L60.6,190.4z M61.7,195.6C61.6,195.7,61.6,195.7,61.7,195.6c0,0.1,0,0.2,0,0.2
		C61.7,195.7,61.7,195.6,61.7,195.6z M61.8,195.8c-0.1,0-0.1,0-0.1,0.1c0,0.1,0,0.1,0.1,0.1C61.9,196,61.9,195.9,61.8,195.8
		C61.9,195.8,61.9,195.8,61.8,195.8z M61.9,195.9c-0.1,0-0.1,0-0.1,0.1s0,0.1,0.1,0.1c0,0,0,0,0-0.1C62,195.9,62,195.9,61.9,195.9z
		 M62,196.2l0.1-0.1l-0.1,0L62,196.2z M61.4,188.1c0,0-0.1,0-0.1,0.1c0,0.1-0.1,0.2-0.1,0.3c0,0.1,0,0.2,0,0.3c0,0.1,0,0.1,0.1,0.1
		s0.1,0,0.1-0.1c0-0.1,0.1-0.2,0.1-0.3c0-0.1,0-0.2,0-0.3C61.5,188.1,61.4,188.1,61.4,188.1z M62.9,196.5l0.1-0.1l-0.1,0L62.9,196.5
		z"/>
</g>
<rect x="99.3" y="175.3" transform="matrix(0.9908 0.1357 -0.1357 0.9908 28.0003 -15.3424)" fill="none" stroke="#373232" stroke-width="3" stroke-miterlimit="10" width="54.6" height="44.9"/>
<g>
	<path fill="#373232" d="M142.9,204.4c0-0.2-0.2-0.3-0.3-0.3c-0.2,0-0.3-0.1-0.4-0.2c0,0-0.1-0.1-0.1-0.3c-0.1-0.2-0.1-0.3-0.2-0.4
		l-0.3-0.8c0-0.1,0-0.2,0.1-0.4c0-0.2,0.1-0.4,0.1-0.6s0.1-0.4,0.1-0.6s0-0.3,0-0.4c0,0,0-0.1,0-0.1c0-0.1,0-0.1,0-0.2
		c0-0.1,0-0.1,0-0.2c0-0.1,0-0.1,0-0.1c0,0,0-0.1,0-0.2c0-0.1,0-0.2,0-0.4c0-0.1,0-0.2,0-0.4s0-0.2,0-0.2c0-0.1,0-0.2,0-0.5
		c0-0.2,0-0.4,0-0.5c-0.1,0-0.2-0.1-0.5-0.1c-0.2-0.1-0.4-0.1-0.4-0.1c-0.2-0.1-0.4-0.2-0.5-0.2c-0.1-0.1-0.1-0.1-0.1-0.2
		c0-0.1,0-0.2-0.1-0.3c0-0.1-0.1-0.2-0.2-0.3c-0.1,0-0.1,0.1-0.2,0.2c-0.1,0.1-0.1,0.2-0.1,0.3c0,0.1-0.1,0.3-0.1,0.4
		c0,0.1,0,0.2,0,0.3c-0.2,0-0.4-0.1-0.6-0.2c-0.2-0.1-0.4-0.3-0.6-0.4c0,0,0,0-0.1-0.1c0,0-0.1-0.1-0.1-0.1l0,0c0,0,0,0,0,0
		c0,0-0.1,0-0.2,0.1c-0.1,0.1-0.2,0.1-0.3,0.1c-0.1,0-0.2,0.1-0.3,0.1c-0.1,0-0.2,0.1-0.2,0.2l-2.6-0.4c0,0,0-0.1-0.1-0.1
		c-0.1,0-0.1-0.1-0.1-0.1l-0.9-0.1c0,0-0.1-0.1-0.3-0.2c-0.2-0.1-0.3-0.2-0.3-0.2c0,0-0.1,0-0.3,0c-0.1,0-0.2,0-0.3,0l-0.2-0.3
		c0,0,0,0,0,0c0,0-0.1,0-0.1,0c-0.1-0.1-0.2-0.3-0.2-0.5c0-0.2,0-0.3-0.1-0.5c-0.1-0.1-0.1-0.3-0.1-0.3s0-0.2,0.1-0.4
		c0,0,0-0.1,0-0.2c0-0.1,0-0.2,0-0.3c0.1-0.1,0.3-0.1,0.4-0.1c0.3,0,0.4,0.1,0.5,0.3c0.1,0.2,0.1,0.2,0.2,0.2c0.2,0,0.3,0,0.4-0.1
		c0.1-0.1,0.3-0.2,0.3-0.4c0.1-0.1,0.2-0.3,0.3-0.4c0.1-0.2,0.2-0.3,0.2-0.4c0,0,0.1,0,0.2-0.1c0.1,0,0.1-0.1,0.1-0.1
		c0,0,0.1-0.1,0-0.3s0-0.2,0.2-0.2c0,0,0.1,0,0.2,0.1c0.1,0,0.1,0,0.2,0c0-0.1,0-0.2,0-0.3c0-0.1-0.1-0.1-0.3-0.2
		c0,0,0.1-0.1,0.3-0.1c0.1,0,0.2-0.1,0.3-0.1c0,0,0.1,0,0.3,0c0.1,0,0.2,0,0.3-0.1c0,0,0-0.1,0-0.3c0-0.1,0-0.2,0-0.3
		c0,0,0.1-0.1,0.2-0.1c0.1,0,0.2-0.1,0.3-0.1c0.1,0,0.2-0.1,0.2-0.2c0.1-0.1,0.1-0.1,0-0.2c0.1,0,0.1,0,0.3-0.1c0.1,0,0.2,0,0.2,0
		c0,0,0.1,0,0.2,0.1s0.2,0.1,0.2,0.1l0.1,0c0.2,0,0.2,0,0.2-0.2c0-0.2,0-0.3,0.1-0.3c0,0,0.1-0.1,0.2-0.1c0.1,0,0.2,0,0.4-0.1
		c0.1,0,0.3,0,0.4-0.1c0.1,0,0.2-0.1,0.3-0.1c0,0,0.1-0.1,0.1-0.1c0-0.1,0.1-0.1,0.1-0.1c0,0,0,0,0.1,0c0.1,0,0.1,0,0.1,0
		c0,0,0,0,0-0.1c0,0,0-0.1,0-0.1l-0.2,0l0.1-0.4c0,0,0.1,0,0.2,0c0.1,0,0.2,0.1,0.3,0.1l0.1,0.1c0,0,0,0,0.1,0c0,0,0.1,0,0.1,0
		c0.1,0,0.2,0,0.2,0c0.1,0,0.1-0.1,0.2-0.1c0.1-0.1,0.1-0.1,0.2-0.2c0.1-0.1,0.1-0.1,0.2-0.1c0.1,0,0.2,0,0.3,0.1
		c0.2,0,0.3,0.1,0.3,0.1l0.1-0.4c-0.1,0-0.2,0-0.2,0c0,0-0.1,0-0.1,0c0,0,0,0,0,0c0,0,0,0-0.1,0c-0.1,0-0.2-0.1-0.2-0.3
		c0-0.1,0-0.3,0-0.3l0-0.1l0-0.1c0,0,0-0.1,0.1-0.1c0-0.1,0.1-0.1,0.1-0.1c0-0.1,0.1-0.1,0.2-0.2c0.1-0.1,0.1-0.1,0.1-0.2
		c0,0,0.1,0,0.3,0c0.2,0,0.3,0,0.3,0c0,0,0.1-0.1,0.2-0.3c0.1-0.2,0.1-0.3,0.2-0.3c0,0,0.1,0,0.1,0c0.1,0,0.1,0,0.1,0
		c0,0,0.1-0.1,0.2-0.2c0.1-0.1,0.1-0.2,0.2-0.3l0.1,0c0.2,0,0.3,0.1,0.4,0.2c0.1,0.1,0.2,0.2,0.4,0.3c0.1,0.1,0.2,0.2,0.4,0.3
		c0.1,0.1,0.3,0.2,0.4,0.2c0,0.1-0.1,0.3-0.2,0.4c-0.1,0.2-0.2,0.3-0.3,0.5c-0.1,0.2-0.3,0.3-0.4,0.5c-0.1,0.1-0.2,0.3-0.3,0.4
		c-0.1,0.1-0.2,0.1-0.3,0.1c-0.1,0-0.2,0.1-0.3,0.2l0,0.3c-0.2,0.3-0.5,0.6-0.9,1c-0.4,0.3-0.7,0.6-1,0.9c0,0-0.1,0.1-0.2,0.2
		c-0.1,0.1-0.2,0.2-0.3,0.2c-0.1,0.1-0.2,0.2-0.3,0.2c-0.1,0.1-0.2,0.1-0.2,0.1c0,0-0.1,0-0.1,0c-0.1,0-0.1,0-0.1,0c0,0,0,0-0.1,0.1
		c0,0-0.1,0-0.1,0.1c0,0,0,0.1-0.1,0.1c-0.1,0.1-0.1,0.1-0.1,0.2c0,0.1-0.1,0.2-0.1,0.2c-0.1,0.1-0.1,0.1-0.1,0.1c0,0-0.2,0-0.3,0
		c-0.2,0-0.3,0-0.3,0c0,0-0.1,0.1-0.1,0.2c-0.1,0.1-0.1,0.2-0.2,0.2c0,0-0.1,0-0.1,0l-0.1,0c-0.1,0-0.3-0.1-0.4-0.1
		c-0.1,0-0.2-0.1-0.3-0.1c0,0.1,0,0.2,0,0.2c0,0.1,0.1,0.2,0.1,0.3c0,0-0.1,0-0.2,0c-0.1,0-0.2,0-0.2,0.1c0,0,0,0.1,0,0.2
		c0,0.1,0,0.2,0,0.2c0,0,0,0-0.1,0.1l-0.1,0l0,0.1c-0.1,0.1-0.1,0.1-0.2,0.1c-0.1,0-0.2,0-0.2,0c-0.1,0-0.2,0-0.2,0
		c-0.1,0-0.1,0-0.1,0.1c0,0,0.1,0.1,0.2,0.2c0.1,0.1,0.2,0.1,0.3,0.2c0,0,0.1,0,0.1,0c0.1,0,0.1,0,0.1,0l0-0.3
		c0.2,0,0.2,0.1,0.2,0.2c0,0.1,0,0.3,0.1,0.3c0,0,0,0,0.1,0c0,0,0.1,0,0.1,0l0-0.2c0.2,0,0.3,0.1,0.4,0.2c0.1,0.1,0.2,0.3,0.1,0.5
		c0.1,0,0.1,0,0.2-0.1c0-0.1,0-0.1,0-0.2c0-0.1,0-0.1,0-0.2c0-0.1,0.1-0.1,0.1-0.1c0,0,0.1,0,0.2,0c0.1,0,0.2,0,0.3,0
		c0.1,0,0.2,0,0.3,0c0.1,0,0.2,0,0.2,0c0.1,0,0.3,0,0.7,0.1c0.3,0,0.6,0.1,1,0.1c0.3,0,0.7,0.1,1,0.1c0.3,0,0.5,0,0.6,0.1l0.1-0.1
		c0,0,0-0.1,0.1-0.2c0-0.1,0.1-0.2,0.1-0.3c0-0.1,0.1-0.3,0.1-0.4c0-0.1,0.1-0.2,0.1-0.3c0,0,0-0.1,0-0.2s0-0.2,0-0.3
		c0-0.1,0-0.2,0-0.3c0-0.1,0-0.1,0-0.2c0,0,0-0.1,0.1-0.2c0-0.1,0.1-0.2,0.1-0.2c0.1-0.3,0.2-0.5,0.3-0.7c0.1-0.2,0.1-0.4,0.2-0.6
		c0.1-0.2,0.1-0.4,0.1-0.6c0-0.2,0.1-0.4,0.2-0.7c0-0.1,0.1-0.1,0.2-0.1c0.1,0,0.1,0,0.2,0c0,0,0.1,0,0.2,0c0.1,0,0.1,0.1,0.1,0.2
		c0,0.1,0,0,0,0c0-0.1,0-0.1,0,0c0.1,0.2,0.3,0.4,0.5,0.5c0.2,0.1,0.4,0.2,0.7,0.2c0,0,0,0.1-0.1,0.2c-0.1,0.1-0.1,0.1-0.1,0.2
		c0,0,0-0.1,0-0.1c0-0.1,0-0.1-0.1-0.1c0,0-0.1,0-0.2,0c-0.1,0-0.2,0-0.2,0c0,0,0,0,0,0c0,0,0,0,0,0c0,0,0.1,0.1,0.2,0.2
		s0.1,0.2,0.2,0.2c0,0,0.1,0.1,0.1,0.3c0.1,0.2,0.1,0.3,0.2,0.3c0,0,0,0,0,0c0,0,0,0,0,0c0-0.1-0.1-0.2-0.1-0.2c0-0.1,0-0.1,0-0.3
		c0,0,0.1,0,0.2,0.1c0.1,0,0.2,0.1,0.2,0.1c0.1,0,0.2,0.1,0.2,0.3c0,0.1,0.1,0.2,0.2,0.3c0,0,0.1,0,0.2,0.1c0.1,0,0.2,0.1,0.2,0.1
		l0,0c0,0,0,0,0,0.1l0,0c0,0-0.1,0-0.2,0.1c-0.1,0-0.2,0-0.2,0c0,0.1,0,0.1,0.1,0.1c0.1,0,0.2,0,0.3,0.1c0.2,0,0.3,0.1,0.4,0.1
		c0,0,0,0.1-0.1,0.2c0,0.1-0.1,0.2-0.1,0.2c0,0.1-0.1,0.1-0.2,0.1c-0.1,0-0.2,0-0.2,0.1c-0.1,0.1-0.1,0.2-0.1,0.2
		c0,0-0.1,0.1-0.3,0.1l0.7,0.1c0,0.2-0.1,0.4-0.3,0.6c-0.2,0.2-0.3,0.4-0.3,0.6c0,0.1,0,0.2,0,0.4c0,0.2,0.1,0.3,0.2,0.3
		c0,0,0.1,0,0.1,0c0.1,0,0.1,0,0.1,0c0.3,0,0.5-0.1,0.6,0c0.1,0,0.4,0.1,0.7,0.1l0.8,0.1c0,0,0.1,0,0.2,0.1c0.1,0,0.2,0.1,0.2,0.1
		c0,0,0.1,0.1,0.3,0.1c0.1,0.1,0.2,0.1,0.2,0.1l0.1,0l0.1,0c0,0,0.1,0,0.2,0c0.1,0,0.2,0,0.2,0c0.1,0,0.2,0,0.3,0.1
		c0.2,0.1,0.3,0.1,0.3,0.1c0,0,0.1,0.1,0.1,0.2c0.1,0.1,0.1,0.1,0.1,0.1c0,0-0.1,0.1-0.1,0.2c-0.1,0.1-0.1,0.1-0.2,0.2l0,0.1
		c0,0.1,0,0.2,0.1,0.2c0.1,0.1,0.2,0.1,0.2,0.1c-0.2,0.1-0.3,0.3-0.4,0.5l0,0.1c0,0,0,0,0,0.1c0,0,0,0.1,0.1,0.3
		c0.1,0.1,0.1,0.2,0.1,0.3l0,0.1l0,0.1c-0.1-0.2-0.3-0.4-0.5-0.4c-0.2-0.1-0.4-0.1-0.6-0.1c0,0-0.1,0-0.2,0c-0.1,0-0.2,0-0.2,0
		c-0.1,0-0.2,0.1-0.2,0.3c-0.1,0.1-0.1,0.2-0.2,0.2l-0.1-0.1c0,0-0.1,0-0.1-0.1c0,0,0,0-0.1,0l-0.1-0.1l-0.1,0c0,0,0,0-0.1,0
		c0,0.2-0.1,0.3-0.1,0.4c-0.1,0-0.1,0.1-0.2,0c-0.1,0-0.1,0-0.2,0c-0.1,0-0.1,0.1-0.1,0.3c0,0,0,0,0,0c0,0,0,0,0,0
		c-0.1,0-0.2-0.1-0.4-0.3c-0.2-0.1-0.3-0.2-0.3-0.2c0,0-0.1-0.1-0.1-0.1c0-0.1,0-0.1,0-0.1l-1.2-0.2c0-0.2,0-0.3-0.2-0.4
		s-0.3-0.1-0.4-0.1l-0.1,0c0,0-0.1,0-0.1,0.1c0,0.1-0.1,0.1-0.1,0.1l-0.8-0.1c0,0-0.1,0-0.1,0.1c0,0.1,0,0.1-0.1,0.2
		c0,0.1,0,0.2-0.1,0.3l0,0.3c0,0,0,0.1,0.1,0.2c0.1,0.1,0.1,0.2,0.1,0.2c0,0,0,0.1,0.1,0.3c0,0.2,0.1,0.3,0.1,0.3c0,0,0.1,0,0.3,0
		c0.1,0,0.2,0,0.3,0c0,0,0,0,0.1,0.1c0,0,0,0,0,0.1c-0.1,0.1-0.2,0.1-0.3,0.2c-0.1,0-0.2,0-0.3,0c-0.1,0-0.2,0-0.3,0.1
		c-0.1,0-0.1,0.1-0.1,0.2c0,0.1,0,0.2,0,0.3c0,0.1,0,0.2,0,0.4c0,0.1,0,0.2,0,0.4s0.1,0.2,0.1,0.2l-0.2,0.1c-0.1,0-0.2,0.1-0.2,0.1
		c0,0,0,0.1,0,0.1c0,0.1,0.1,0.1,0.1,0.1l0,0.1l0,0.1c-0.1,0.1-0.2,0.2-0.4,0.1c-0.2,0-0.3,0-0.4,0c0,0.1,0.1,0.2,0.3,0.2
		c0.1,0,0.3,0.1,0.4,0.2c0.2,0.1,0.3,0.1,0.4,0.2c0.1,0.1,0.2,0.2,0.1,0.4l-0.5-0.1c0,0,0,0,0,0l0,0.1c0,0,0,0,0.1,0.1
		c0.1,0,0.1,0.1,0.1,0.1c0,0,0,0.1,0,0.2c0,0.1,0,0.2,0,0.2l0.1,0l0.1,0c0,0,0.1,0.1,0.1,0.3c0,0.1,0.1,0.2,0.1,0.3
		c0,0.1-0.1,0.1-0.1,0.1c0,0-0.1,0-0.2,0c-0.2,0-0.3-0.1-0.3-0.3c-0.1,0-0.1,0-0.2,0.1c0,0,0,0.1,0,0.1L142.9,204.4z M133.8,196.2
		c-0.1,0-0.1,0-0.2,0.1c-0.1,0-0.1,0.1-0.1,0.2l0.3,0L133.8,196.2z M134.2,193.2c-0.1,0-0.1,0-0.1,0.1c0,0.1,0,0.1,0.1,0.1
		c0.1,0,0.1,0,0.1-0.1C134.3,193.3,134.3,193.2,134.2,193.2z M135.1,193.1c-0.1,0-0.1,0-0.1,0.1c0,0.1,0,0.1,0.1,0.2
		c0.1,0,0.1,0,0.1-0.1C135.2,193.1,135.2,193.1,135.1,193.1z M135.3,192.6c0,0.1,0,0.2,0.1,0.3c0.1,0.1,0.2,0.1,0.2,0.1l0.1,0
		c0,0,0,0,0.1,0C135.7,192.8,135.5,192.7,135.3,192.6L135.3,192.6z M136.8,193.3c-0.2,0-0.3,0-0.3,0.2c-0.1,0.1-0.1,0.3-0.1,0.4
		c0.2,0,0.3,0,0.3-0.2C136.7,193.5,136.7,193.4,136.8,193.3z M136.8,191.1c0.2,0,0.3,0,0.4-0.2c0.1-0.1,0.1-0.3,0.1-0.4l-0.4-0.1
		L136.8,191.1z M137.1,191.4C137.1,191.3,137.1,191.3,137.1,191.4c-0.1-0.1-0.1-0.1-0.1,0C137,191.4,137,191.4,137.1,191.4
		C137,191.4,137.1,191.4,137.1,191.4z M137.6,191.1c0,0,0-0.1-0.1-0.1c-0.1,0-0.2,0-0.1,0c0,0,0.1,0.1,0.1,0.1
		C137.6,191.1,137.6,191.1,137.6,191.1z M137.4,191.7c0,0.1,0,0.3,0,0.5c0,0.2,0.1,0.3,0.3,0.3c0-0.1,0-0.3,0-0.5
		C137.7,191.8,137.6,191.7,137.4,191.7z M137.9,191.4l0.1,0l0-0.1L137.9,191.4z M138.1,190.3l0.4,0.1l0-0.1l-0.4-0.1L138.1,190.3z
		 M137.5,195l0.1,0l0-0.1l-0.1,0L137.5,195z M141.4,188C141.4,188,141.4,187.9,141.4,188c-0.1-0.1-0.1-0.1-0.1,0
		C141.2,188,141.3,188.1,141.4,188C141.3,188.1,141.3,188,141.4,188z M141.6,187.2l0.3,0l-0.2-0.1L141.6,187.2z M142.9,186.5l0.3,0
		l-0.2-0.2L142.9,186.5z M144.1,192.2l0.1,0l0-0.1L144.1,192.2z M144.2,192.6c-0.1,0-0.1,0-0.1,0.1c0,0.1,0,0.1,0.1,0.1
		c0.1,0,0.1,0,0.1-0.1C144.2,192.7,144.2,192.6,144.2,192.6z M143.7,198.9l0.1,0l0-0.2l-0.1,0L143.7,198.9z M144.5,194.9
		c0,0.1,0,0.2,0,0.3c0,0.1,0.1,0.1,0.3,0.2c0-0.1,0-0.2,0-0.3C144.7,194.9,144.6,194.9,144.5,194.9z M144.6,198.3
		c0-0.2,0.1-0.3,0.3-0.5c0.2-0.1,0.3-0.2,0.4-0.3l0.1,0l0,0l0,0c0,0,0,0.1,0.1,0.2c0,0.1,0,0.2,0,0.2c0,0,0,0.1,0,0.1c0,0,0,0,0,0.1
		l0,0.1l-0.7-0.1l0,0.1c0,0,0,0.1,0,0.1c0,0,0,0.1-0.1,0.1c0,0.1-0.1,0.1-0.1,0.1c0,0,0,0-0.1-0.1
		C144.6,198.4,144.6,198.3,144.6,198.3L144.6,198.3z M145.2,196C145.2,196,145.2,196,145.2,196c-0.1,0.1-0.2,0.1-0.1,0.1
		c0,0,0.1,0,0.1,0C145.3,196.1,145.3,196.1,145.2,196z M146,197.1c0,0.2,0.1,0.3,0.2,0.3c0,0,0.1,0,0.1,0c0,0,0-0.1,0.1-0.1
		c0-0.1-0.1-0.1-0.1-0.2c-0.1-0.1-0.1-0.1-0.2-0.1C146.1,197,146.1,197,146,197.1C146,197,146,197.1,146,197.1z M146.6,193.9
		c-0.1,0-0.1,0-0.1,0.1c0,0.1,0,0.1,0.1,0.1c0.1,0,0.1,0,0.1-0.1C146.7,193.9,146.7,193.9,146.6,193.9z M147.3,196.8
		c-0.2,0-0.3,0-0.4,0.2c-0.1,0.1-0.2,0.3-0.2,0.4c0.2,0,0.4,0,0.5-0.1C147.2,197.2,147.3,197,147.3,196.8z M147.5,197.9l0.1-0.1
		l-0.1-0.1l-0.2,0.1L147.5,197.9z M147.8,197.4c-0.1,0-0.1,0-0.1,0.1s0,0.1,0.1,0.2c0.1,0,0.1,0,0.1-0.1
		C147.9,197.5,147.9,197.5,147.8,197.4z M147.8,198C147.8,198,147.8,198.1,147.8,198c0.1,0.1,0.1,0.1,0.1,0.1c0,0,0.1,0,0.2,0
		c0.1,0,0.2,0,0.2-0.1c0,0-0.1-0.1-0.1-0.1c-0.1,0-0.1-0.1-0.1-0.1l-0.1,0l-0.1,0C147.9,197.9,147.9,197.9,147.8,198
		C147.8,197.9,147.8,198,147.8,198z"/>
</g>
<rect x="174.8" y="177.6" fill="none" stroke="#373232" stroke-width="3" stroke-miterlimit="10" width="54.6" height="44.9"/>
<g>
	<path fill="#373232" d="M211.3,201.6c-0.2,0-0.4,0.1-0.6,0.2c-0.2,0.1-0.4,0.2-0.6,0.1c-0.1,0-0.1-0.1-0.1-0.2c0-0.1,0-0.2,0-0.4
		c0-0.1,0-0.2-0.1-0.4c0-0.1-0.2-0.2-0.3-0.2h-0.1c-0.1,0.1-0.2,0.2-0.2,0.4c0,0.2,0,0.3,0,0.4c-0.1-0.1-0.2-0.1-0.2-0.1
		c-0.1,0-0.1,0-0.1,0.1c0,0-0.1,0.1-0.1,0.1s-0.1,0-0.2,0c-0.2,0-0.3-0.1-0.4-0.3c-0.1-0.2-0.2-0.4-0.3-0.6
		c-0.1-0.2-0.1-0.4-0.1-0.7c0-0.2,0-0.4,0-0.5c0-0.1,0.1-0.3,0.1-0.4c0.1-0.1,0.1-0.3,0.1-0.4l1,0.1c0.1,0.1,0.2,0.2,0.3,0.3
		c0.1,0.1,0.3,0.2,0.4,0.2c0.2,0,0.4-0.1,0.6-0.2c0.2-0.1,0.4-0.2,0.6-0.1c0.1,0,0.2,0,0.2,0.1c0,0.1,0.1,0.1,0.2,0.1
		c0.1,0,0.2,0,0.3-0.1c0.1,0,0.1-0.1,0.2-0.3c-0.1,0-0.2,0-0.2-0.1c0,0,0-0.1,0.1-0.2c0.1-0.1,0.2-0.2,0.2-0.2c0-0.2,0-0.5,0-0.8
		c0-0.3-0.1-0.7-0.1-1c0-0.4,0-0.7,0-1s0-0.6,0.1-0.8c0,0,0-0.1,0-0.2c0-0.1,0.1-0.2,0.1-0.4c0-0.1,0.1-0.3,0.1-0.4
		c0-0.1,0-0.2,0.1-0.3c0-0.2,0-0.4,0-0.5c0-0.1-0.1-0.3-0.1-0.4c0,0,0-0.1,0-0.3c0-0.2,0-0.3,0.1-0.4c0.1-0.3,0.1-0.7,0.2-1
		c0.1-0.4,0.1-0.7,0-1c0,0,0-0.1-0.1-0.2c-0.1-0.1-0.1-0.1-0.2-0.1c0-0.1,0.1-0.2,0.1-0.3c0-0.1,0-0.2,0.1-0.3h-0.1h-0.1h0
		c0,0,0,0.1-0.1,0.1c0,0-0.1,0.1-0.1,0.1c-0.1,0-0.2,0.1-0.3,0.2c-0.1,0.1-0.2,0.1-0.2,0.2c0,0-0.1,0-0.1,0c-0.1,0-0.2,0.1-0.2,0.1
		c-0.1,0-0.2,0.1-0.2,0.1c-0.1,0-0.1,0-0.1,0.1c-0.2,0.1-0.4,0.2-0.6,0.3c-0.2,0.1-0.4,0.3-0.6,0.4c-0.2,0.1-0.4,0.2-0.6,0.3
		c-0.2,0.1-0.4,0.1-0.6,0c0.1-0.2,0.1-0.4,0.1-0.5c0-0.2,0-0.3-0.1-0.4c-0.1-0.1-0.1-0.3-0.2-0.4s-0.2-0.3-0.3-0.5c0,0,0-0.1,0-0.1
		c0-0.1,0-0.1,0-0.1c0-0.1,0-0.1,0.1-0.2c0-0.1,0.1-0.1,0.2,0c0,0,0,0.1,0.1,0.1c0,0.1,0.1,0.1,0.1,0.2h0c0.1,0,0.1,0,0.2-0.1
		c0.1-0.1,0.2-0.1,0.3-0.2c0.1-0.1,0.2-0.2,0.3-0.3c0.1-0.1,0.1-0.2,0.1-0.2c0.1-0.1,0.1-0.2,0-0.3c0-0.1,0-0.2,0-0.3l0.3,0.1
		c0.1-0.3,0.2-0.5,0.3-0.6c0.1-0.1,0.1-0.1,0.2-0.1c0.1,0,0.1,0,0.2,0.1c0.1,0,0.2,0,0.4-0.1c0.1-0.1,0.1-0.1,0.1-0.1
		c0,0,0-0.1,0-0.1c0,0,0,0,0.1,0c0,0,0.1,0,0.2,0.1c0.1,0,0.2,0,0.2,0.1c0,0-0.1,0-0.2,0.1c-0.1,0.1-0.2,0.1-0.2,0.2
		c0,0-0.1,0.1-0.1,0.2c0,0.1,0,0.2,0,0.2c0.1,0,0.2,0,0.2-0.1c0.1-0.1,0.1-0.2,0.2-0.3c0.1-0.1,0.2-0.2,0.3-0.2
		c0.1-0.1,0.3-0.1,0.4,0l0.2-0.8c0,0,0.1-0.1,0.1-0.1c0.1,0,0.1,0,0.2,0c0.2,0.1,0.5,0.3,0.8,0.6c0.3,0.3,0.5,0.5,0.6,0.6
		c0,0,0.1,0.1,0.1,0.2c0.1,0.1,0.1,0.1,0.2,0.2c0.2,0.2,0.2,0.5,0.2,0.8s0,0.7-0.1,1c0,0.4-0.1,0.7-0.1,1c0,0.3,0,0.5,0.2,0.6
		c0,0.1,0,0.2,0,0.3c0,0.1,0,0.3-0.1,0.5c0,0.2-0.1,0.3-0.1,0.5c0,0.1-0.1,0.3-0.1,0.3l-0.1,0.2c0,0.1,0,0.2,0,0.2
		c0,0,0.1,0.1,0.2,0.1c0.1,0.1,0.2,0.1,0.2,0.1c0,0.1,0,0.3,0,0.6c0,0.3-0.1,0.6-0.2,0.9c-0.1,0.3-0.1,0.6-0.2,0.9
		c-0.1,0.3-0.1,0.5-0.1,0.7c0,0,0,0.1,0.1,0.2c0,0.1,0.1,0.2,0.1,0.2c0,0.2,0,0.4-0.1,0.5c0,0.1,0,0.2,0,0.3s0,0.2,0,0.3
		c0,0.1,0.1,0.3,0.1,0.5v0.1c0,0,0,0,0,0c0,0,0,0,0,0v0.1c0,0,0,0-0.1,0c0,0-0.1,0-0.1,0l0,0.1v0.1l0.2-0.1
		c-0.1,0.1-0.1,0.2-0.2,0.4c-0.1,0.2-0.1,0.3,0,0.4c0,0.1,0.1,0.2,0.2,0.2c0.1,0,0.2,0.1,0.4,0.1c0.2,0,0.3,0,0.5,0.1
		c0.2,0,0.3,0,0.4,0c0.1,0,0.2,0,0.2,0c0,0,0.1-0.1,0.2-0.2l0,0.4c0,0,0.1,0,0.2-0.1c0.1,0,0.2,0,0.2,0c0,0,0,0,0,0h0.1
		c0.1,0,0.1,0,0.1,0.1c0,0,0.1,0.1,0.2,0.1c0,0,0.1,0,0.2-0.1c0.1,0,0.1-0.1,0.1-0.1v-0.1c0,0-0.1-0.1-0.2-0.1
		c-0.1-0.1-0.1-0.1-0.2-0.1c0,0,0,0,0.1-0.1c0-0.1,0-0.1,0.1-0.1v0l0.1,0h0.1c0.3,0.1,0.6,0.2,0.8,0.2c0.2,0,0.3,0.1,0.4,0.1
		c0.1,0.1,0.1,0.2,0.2,0.4c0,0.2,0,0.5,0,1c0,0.1,0,0.3,0,0.5c0,0.3-0.1,0.4-0.2,0.6l-0.1-0.2l0.1-0.9c0,0-0.1,0-0.1,0
		c0,0-0.1,0-0.1,0c0,0-0.1,0-0.1-0.1c0,0,0-0.1,0-0.2c-0.1,0.1-0.2,0.2-0.2,0.3c-0.1,0.1-0.1,0.3-0.2,0.4c-0.1,0.1-0.1,0.3-0.2,0.4
		c-0.1,0.1-0.1,0.2-0.2,0.2c0,0,0,0-0.1-0.1c0,0-0.1,0-0.1-0.1h-0.1l-0.1-0.1c0,0-0.1,0.1-0.2,0.1c-0.1,0-0.1,0.1-0.1,0.1v-0.3
		c-0.1,0.1-0.2,0.1-0.3,0.2c-0.1,0.1-0.2,0.2-0.2,0.3c0,0-0.1-0.1-0.1-0.2c0-0.1-0.1-0.1-0.1-0.2c0,0.1,0,0.1,0,0.2
		c-0.1,0-0.1,0-0.2,0c-0.1,0-0.1,0-0.1-0.1c0,0,0-0.1,0-0.1c0-0.1,0-0.1,0-0.1c0,0-0.1-0.1-0.1-0.1h-0.1c0,0,0,0-0.1,0
		c0,0.2,0,0.4-0.2,0.5c-0.1,0.1-0.3,0.2-0.4,0.3v-0.3c-0.1,0-0.2,0-0.2,0.1c0,0-0.1,0.1-0.1,0.2c-0.1,0.1-0.1,0.1-0.2,0.2
		c-0.1,0.1-0.1,0.1-0.2,0.1h0l-0.1-0.1c-0.1,0-0.2,0-0.2,0.1c-0.1-0.2-0.1-0.3-0.2-0.3c-0.1,0-0.2-0.1-0.3-0.1
		c-0.2-0.1-0.4,0.1-0.5,0.3c0,0-0.1-0.1-0.1-0.1c-0.1-0.1-0.1-0.1-0.1-0.1h-0.1c-0.1,0-0.1,0-0.1,0c-0.1-0.1-0.1-0.1-0.1-0.2
		c0-0.1,0-0.1,0-0.1c0,0,0-0.1-0.1-0.1C211.5,201.6,211.4,201.6,211.3,201.6z M210.6,187C210.6,187,210.6,187,210.6,187
		c-0.1,0.2-0.1,0.2-0.1,0.3c0.1,0,0.1,0,0.1-0.1S210.7,187,210.6,187z M210.7,187.3c0,0,0,0.1,0,0.3c0,0.1,0,0.2,0.1,0.3
		c0.1,0,0.2,0,0.2-0.1c0,0,0.1-0.1,0.1-0.2c0-0.1,0-0.2-0.1-0.2c-0.1,0-0.2-0.1-0.2-0.1C210.8,187.3,210.8,187.3,210.7,187.3
		C210.7,187.3,210.7,187.3,210.7,187.3z M213.2,200.8C213.2,200.8,213.2,200.8,213.2,200.8l0.1,0.1l0-0.1L213.2,200.8
		c0.1-0.1,0.1-0.1,0-0.1V200.8L213.2,200.8z M213.7,200.3c-0.1,0-0.1,0.1-0.1,0.1c0,0.1,0,0.1,0.1,0.1c0.1,0,0.1,0,0.1-0.1
		C213.8,200.4,213.8,200.4,213.7,200.3z M213.8,201.6c-0.1,0-0.1,0.1-0.1,0.1c0,0.1,0,0.1,0,0.2l0.1,0.1V201.6z M213.9,200.9h0.1
		l0-0.1L213.9,200.9z M214,201.3c-0.1,0-0.1,0-0.1,0.1c0,0.1,0,0.1,0.1,0.1c0.1,0,0.1,0,0.1-0.1S214,201.3,214,201.3z M214.3,201.4
		C214.3,201.4,214.3,201.4,214.3,201.4c-0.1,0.1,0,0.1,0,0.1C214.4,201.6,214.4,201.5,214.3,201.4z M214.5,200.2
		c-0.1,0.1-0.1,0.2-0.1,0.3v0.1c0.1,0,0.1-0.1,0.1-0.1c0-0.1,0-0.1,0-0.1C214.5,200.3,214.5,200.2,214.5,200.2z M214.9,200.6
		c-0.1,0.1-0.1,0.1-0.2,0.3c0,0.1,0,0.2,0,0.2l0.2,0L214.9,200.6z"/>
</g>
</svg>
