<?xml version="1.0" encoding="utf-8"?>
<!-- Generator: Adobe Illustrator 17.1.0, SVG Export Plug-In . SVG Version: 6.00 Build 0)  -->
<!DOCTYPE svg PUBLIC "-//W3C//DTD SVG 1.1//EN" "http://www.w3.org/Graphics/SVG/1.1/DTD/svg11.dtd">
<svg version="1.1" id="Layer_1" xmlns="http://www.w3.org/2000/svg" xmlns:xlink="http://www.w3.org/1999/xlink" x="0px" y="0px"
	 viewBox="0 0 250 250" enable-background="new 0 0 250 250" xml:space="preserve">
<rect x="66" y="101.7" fill="none" stroke="#373232" stroke-miterlimit="10" width="30.2" height="30.2"/>
<rect x="109.4" y="101.7" fill="none" stroke="#373232" stroke-miterlimit="10" width="30.2" height="30.2"/>
<rect x="66" y="146.4" fill="none" stroke="#373232" stroke-miterlimit="10" width="30.2" height="30.2"/>
<rect x="109.4" y="146.4" fill="none" stroke="#373232" stroke-miterlimit="10" width="30.2" height="30.2"/>
<rect x="152.8" y="101.7" fill="none" stroke="#373232" stroke-miterlimit="10" width="30.2" height="30.2"/>
<line fill="none" stroke="#373232" stroke-width="3" stroke-miterlimit="10" x1="43.7" y1="78.1" x2="205.4" y2="78.1"/>
<line fill="none" stroke="#373232" stroke-miterlimit="10" x1="60.9" y1="64.9" x2="51.7" y2="64.9"/>
<circle fill="none" stroke="#373232" stroke-width="3" stroke-miterlimit="10" cx="167.9" cy="177.3" r="8.5"/>
<polyline fill="none" stroke="#373232" stroke-miterlimit="10" points="159.6,176.7 152.8,176.7 152.8,146.4 183,146.4 183,176.7 
	176.4,176.7 "/>
<polygon fill="none" stroke="#373232" stroke-width="3" stroke-miterlimit="10" points="205.4,161.3 205.4,199 185.5,199 135.1,199 
	43.7,199 43.7,51.8 205.4,51.8 205.4,89.5 "/>
<circle fill="none" stroke="#373232" stroke-miterlimit="10" cx="192" cy="64.6" r="5.3"/>
<line fill="none" stroke="#373232" stroke-miterlimit="10" x1="221.1" y1="91.3" x2="238.8" y2="84.8"/>
<line fill="none" stroke="#373232" stroke-miterlimit="10" x1="221.1" y1="166.7" x2="238.8" y2="173.1"/>
<line fill="none" stroke="#373232" stroke-miterlimit="10" x1="226.7" y1="129.4" x2="246.9" y2="129.4"/>
<line fill="none" stroke="#373232" stroke-miterlimit="10" x1="28.6" y1="91.3" x2="10.9" y2="84.8"/>
<line fill="none" stroke="#373232" stroke-miterlimit="10" x1="28.6" y1="166.7" x2="10.9" y2="173.1"/>
<line fill="none" stroke="#373232" stroke-miterlimit="10" x1="23" y1="129.4" x2="2.9" y2="129.4"/>
</svg>
