<?xml version="1.0" encoding="utf-8"?>
<!-- Generator: Adobe Illustrator 17.1.0, SVG Export Plug-In . SVG Version: 6.00 Build 0)  -->
<!DOCTYPE svg PUBLIC "-//W3C//DTD SVG 1.1//EN" "http://www.w3.org/Graphics/SVG/1.1/DTD/svg11.dtd">
<svg version="1.1" id="Layer_1" xmlns="http://www.w3.org/2000/svg" xmlns:xlink="http://www.w3.org/1999/xlink" x="0px" y="0px"
	 viewBox="0 0 250 250" enable-background="new 0 0 250 250" xml:space="preserve">
<g>
	<line fill="none" stroke="#FFFFFF" stroke-width="3" stroke-miterlimit="10" x1="95.6" y1="195.3" x2="144.1" y2="190.2"/>
	<line fill="none" stroke="#FFFFFF" stroke-width="3" stroke-miterlimit="10" x1="95.6" y1="207.7" x2="144.1" y2="202.5"/>
	<line fill="none" stroke="#FFFFFF" stroke-width="3" stroke-miterlimit="10" x1="95.6" y1="220" x2="144.1" y2="214.9"/>
	<line fill="none" stroke="#FFFFFF" stroke-width="3" stroke-miterlimit="10" x1="114.6" y1="230.4" x2="127.6" y2="229"/>
	<polyline fill="none" stroke="#FFFFFF" stroke-width="3" stroke-miterlimit="10" points="158,68.6 189.2,35.2 195.5,53.6 
		235.8,19.6 196.8,76.9 190.5,57.3 173.8,76.1 	"/>
	<polyline fill="none" stroke="#FFFFFF" stroke-width="3" stroke-miterlimit="10" points="92.2,159.4 60.8,192.8 54.5,174.5 
		14.2,208.4 53.2,151.1 59.5,170.7 74.2,154.2 	"/>
	<path fill="none" stroke="#FFFFFF" stroke-width="3" stroke-miterlimit="10" d="M96.4,114.2c0-4.3,3.5-7.7,7.7-7.7s7.7,3.5,7.7,7.7
		"/>
	<path fill="none" stroke="#FFFFFF" stroke-width="3" stroke-miterlimit="10" d="M111.9,114.2c0-4.3,3.5-7.7,7.7-7.7
		s7.7,3.5,7.7,7.7"/>
	<path fill="none" stroke="#FFFFFF" stroke-width="3" stroke-miterlimit="10" d="M127.3,114.2c0-4.3,3.5-7.7,7.7-7.7
		c4.3,0,7.7,3.5,7.7,7.7"/>
	<line fill="none" stroke="#FFFFFF" stroke-width="3" stroke-miterlimit="10" x1="96.7" y1="121.1" x2="108" y2="193.8"/>
	<line fill="none" stroke="#FFFFFF" stroke-width="3" stroke-miterlimit="10" x1="142" y1="121.1" x2="131" y2="191.6"/>
	<path fill="none" stroke="#FFFFFF" stroke-width="3" stroke-miterlimit="10" d="M169.2,69.1c8.7,10.9,14,24.6,14,39.6
		c0,19-8.8,36.4-22.1,48.1c-9.3,9.2-18.6,16.6-18.6,33.1v1.1"/>
	<path fill="none" stroke="#FFFFFF" stroke-width="3" stroke-miterlimit="10" d="M80.8,159.7c-0.5-0.5-1.1-1.1-1.6-1.6
		C64.9,146.4,56,128.4,56,108.6c0-35.2,28.5-63.7,63.7-63.7c16.9,0,32.2,6.6,43.6,17.3"/>
	<path fill="none" stroke="#FFFFFF" stroke-width="3" stroke-miterlimit="10" d="M96.5,196v-6.4c0-10.9-3.6-17.5-8.9-23.7"/>
</g>
</svg>
