<?xml version="1.0" encoding="utf-8"?>
<!-- Generator: Adobe Illustrator 17.1.0, SVG Export Plug-In . SVG Version: 6.00 Build 0)  -->
<!DOCTYPE svg PUBLIC "-//W3C//DTD SVG 1.1//EN" "http://www.w3.org/Graphics/SVG/1.1/DTD/svg11.dtd">
<svg version="1.1" id="Layer_1" xmlns="http://www.w3.org/2000/svg" xmlns:xlink="http://www.w3.org/1999/xlink" x="0px" y="0px"
	 viewBox="0 0 250 250" enable-background="new 0 0 250 250" xml:space="preserve">
<g>
	<path fill="none" stroke="#FFFFFF" stroke-width="3" stroke-miterlimit="10" d="M147.5,192h94.9l0,1.4c0,4.5-3.7,8.2-8.2,8.2H149"
		/>
	<circle fill="none" stroke="#FFFFFF" stroke-width="3" stroke-miterlimit="10" cx="61.4" cy="75" r="34.9"/>
	<path fill="none" stroke="#FFFFFF" stroke-width="3" stroke-miterlimit="10" d="M7.5,209v-54.2c0-25.7,20.9-30.3,46.5-30.3h15.5
		c25.7,0,47,4.7,47,30.3V188"/>
	<line fill="none" stroke="#FFFFFF" stroke-width="3" stroke-miterlimit="10" x1="31.5" y1="209" x2="31.5" y2="158"/>
	<path fill="none" stroke="#FFFFFF" stroke-width="3" stroke-miterlimit="10" d="M115.1,186.5h22.3c6.4,0,11.6,5.2,11.6,11.6l0,0
		c0,6.4-5.2,11.6-8.9,11.6H95.1v-0.4v-50.7"/>
	<path fill="none" stroke="#FFFFFF" stroke-width="3" stroke-miterlimit="10" d="M94.7,64.6h117.5c4.5,0,8.2,3.7,8.2,8.2v118"/>
	<line fill="none" stroke="#FFFFFF" stroke-width="3" stroke-miterlimit="10" x1="60.1" y1="123.8" x2="60.1" y2="110"/>
	<polyline fill="none" stroke="#FFFFFF" stroke-miterlimit="10" points="95.9,81 205.3,81 205.3,166 116.6,166 	"/>
	<line fill="none" stroke="#FFFFFF" stroke-width="2" stroke-miterlimit="10" x1="75.1" y1="123.8" x2="75.1" y2="107.3"/>
</g>
</svg>
