<?xml version="1.0" encoding="utf-8"?>
<!-- Generator: Adobe Illustrator 17.1.0, SVG Export Plug-In . SVG Version: 6.00 Build 0)  -->
<!DOCTYPE svg PUBLIC "-//W3C//DTD SVG 1.1//EN" "http://www.w3.org/Graphics/SVG/1.1/DTD/svg11.dtd">
<svg version="1.1" id="Layer_1" xmlns="http://www.w3.org/2000/svg" xmlns:xlink="http://www.w3.org/1999/xlink" x="0px" y="0px"
	 viewBox="0 0 250 250" enable-background="new 0 0 250 250" xml:space="preserve">
<g>
	<line fill="none" stroke="#373232" stroke-width="3" stroke-miterlimit="10" x1="139.3" y1="146.2" x2="163.3" y2="143.7"/>
	<line fill="none" stroke="#373232" stroke-width="3" stroke-miterlimit="10" x1="139.3" y1="156.9" x2="163.3" y2="154.3"/>
	<line fill="none" stroke="#373232" stroke-width="3" stroke-miterlimit="10" x1="139.3" y1="167.5" x2="163.3" y2="164.9"/>
	<path fill="none" stroke="#373232" stroke-miterlimit="10" d="M142.1,112.1c0-1.7,1.3-3,3-3c1.7,0,3,1.3,3,3"/>
	<path fill="none" stroke="#373232" stroke-miterlimit="10" d="M148.1,112.1c0-1.7,1.3-3,3-3s3,1.3,3,3"/>
	<path fill="none" stroke="#373232" stroke-miterlimit="10" d="M154.1,112.1c0-1.7,1.3-3,3-3s3,1.3,3,3"/>
	<line fill="none" stroke="#373232" stroke-miterlimit="10" x1="142.2" y1="117" x2="146.6" y2="145.2"/>
	<line fill="none" stroke="#373232" stroke-miterlimit="10" x1="159.8" y1="117" x2="155.6" y2="144.3"/>
	<path fill="none" stroke="#373232" stroke-width="3" stroke-miterlimit="10" d="M140.5,149v-5.6c0-5.4-2.4-8.5-5.1-11.6l-3.2-3.3
		c-0.3-0.3-0.7-0.5-1-0.8c-7-5.8-11.5-14.7-11.5-24.5c0-17.4,14.1-31.5,31.5-31.5c8.4,0,15.9,3.3,21.6,8.6L176,84
		c4.3,5.4,6.6,12.2,6.6,19.6c0,9.4-5.3,17.9-11.9,23.7c-4.6,4.6-10.2,8.1-10.2,16.3v3.4"/>
	<polyline fill="none" stroke="#373232" stroke-width="3" stroke-miterlimit="10" points="124.5,192 109.2,215.4 153.6,197.6 	"/>
	<circle fill="none" stroke="#373232" stroke-width="3" stroke-miterlimit="10" cx="54.4" cy="128.8" r="27.3"/>
	<path fill="none" stroke="#373232" stroke-width="3" stroke-miterlimit="10" d="M11.5,220v-28.8c0-20.1,17-23.7,37.1-23.7h12.1
		c20.1,0,34.8,3.6,34.8,23.7V220"/>
	<line fill="none" stroke="#373232" stroke-width="3" stroke-miterlimit="10" x1="77.5" y1="194" x2="77.5" y2="220"/>
	<line fill="none" stroke="#373232" stroke-width="3" stroke-miterlimit="10" x1="28.5" y1="220" x2="28.5" y2="194"/>
	<path fill="none" stroke="#373232" stroke-width="3" stroke-miterlimit="10" d="M63.6,103c7.2-41.2,43.1-72.4,86.3-72.4
		c48.4,0,87.6,39.2,87.6,87.6s-39.2,87.6-87.6,87.6c-4.6,0-9.1-0.4-13.4-1"/>
	<path fill="none" stroke="#373232" stroke-width="3" stroke-miterlimit="10" d="M78.1,168.3c-3.7-5.2-6.8-10.8-9.2-16.8"/>
	<path fill="none" stroke="#373232" stroke-width="3" stroke-miterlimit="10" d="M118.9,200.1c-7.5-2.9-14.5-6.7-20.9-11.4"/>
</g>
</svg>
