<?xml version="1.0" encoding="utf-8"?>
<!-- Generator: Adobe Illustrator 17.1.0, SVG Export Plug-In . SVG Version: 6.00 Build 0)  -->
<!DOCTYPE svg PUBLIC "-//W3C//DTD SVG 1.1//EN" "http://www.w3.org/Graphics/SVG/1.1/DTD/svg11.dtd">
<svg version="1.1" id="Layer_1" xmlns="http://www.w3.org/2000/svg" xmlns:xlink="http://www.w3.org/1999/xlink" x="0px" y="0px"
	 viewBox="0 0 250 250" enable-background="new 0 0 250 250" xml:space="preserve">
<rect x="31.4" y="38.1" transform="matrix(0.9873 -0.159 0.159 0.9873 -10.6592 12.6591)" fill="none" stroke="#373232" stroke-width="3" stroke-miterlimit="10" width="84.8" height="69.7"/>
<g>
	<path fill="#373232" d="M95.7,73.3c0,0.1-0.1,0.1-0.3,0.3c-0.1,0.1-0.2,0.2-0.3,0.3c-0.1,0-0.1-0.1-0.1-0.1c0,0-0.1-0.1-0.1-0.1
		c0,0-0.1-0.1-0.2-0.2c-0.1-0.1-0.2-0.2-0.2-0.3c0,0-0.1,0-0.1-0.1l-0.1-0.1c0,0-0.1,0-0.2,0.1c-0.1,0.1-0.2,0.1-0.2,0.1
		c0-0.1,0-0.1-0.1-0.2c-0.1-0.1-0.1-0.1-0.2-0.1l-0.1,0c-0.2,0-0.5,0.1-0.8,0.3c-0.3,0.2-0.5,0.3-0.8,0.3l-0.2,0
		c-0.3,0-0.5,0-0.8,0.1c-0.2,0-0.5,0-0.7,0c-0.2,0-0.4-0.1-0.5-0.2c-0.1-0.1-0.3-0.4-0.3-0.7l0,0c0,0-0.1,0-0.1,0c0,0,0,0,0,0
		c0,0,0,0,0,0l0,0c0,0,0,0.1,0,0.1c0,0.1-0.1,0.1-0.1,0.1l-0.1,0l-0.2,0c0-0.3,0-0.5-0.2-0.6c-0.1-0.1-0.3-0.2-0.5-0.2
		c-0.2-0.1-0.3-0.1-0.4-0.2c-0.1-0.1-0.1-0.3,0-0.6c-0.2,0.2-0.3,0.3-0.2,0.5c0,0.1-0.1,0.2-0.4,0.3c-0.1,0-0.1,0-0.2,0
		c-0.1,0-0.2,0-0.2,0c0,0,0-0.1,0-0.4c0-0.2,0-0.4-0.1-0.4c-0.2-0.1-0.4-0.2-0.5-0.2c-0.2,0-0.3-0.1-0.4-0.1
		c-0.1-0.1-0.2-0.1-0.3-0.3c-0.1-0.1-0.1-0.4-0.2-0.8c0,0.1,0,0.1,0,0.2c0,0.1-0.1,0.2-0.1,0.2l-0.1,0c-0.2,0-0.4,0-0.5-0.1
		c-0.1-0.1-0.2-0.2-0.3-0.3c-0.1-0.1-0.1-0.3-0.1-0.4c0-0.1,0-0.3-0.1-0.4c-0.1,0-0.2,0.1-0.4,0.2s-0.4,0.1-0.4,0.1
		c-0.1,0-0.1,0-0.2-0.1c-0.1-0.1-0.2-0.2-0.2-0.1c-0.1,0-0.2,0-0.5,0c-0.3,0-0.4,0.1-0.5,0.2L81,67.7l-0.3-0.2c0,0,0.1,0,0.2,0
		c0.2-0.1,0.3-0.1,0.5-0.2c0.2-0.1,0.4-0.2,0.5-0.2c0.1-0.1,0.2-0.1,0.2-0.1c-0.2,0.1-0.3,0.1-0.5,0c-0.2-0.1-0.4-0.1-0.5-0.2
		c-0.2-0.1-0.3-0.2-0.4-0.3c-0.1-0.1-0.2-0.2-0.2-0.3c0-0.1,0-0.2,0-0.3c0-0.1,0-0.3,0.1-0.4c0-0.1,0.1-0.3,0.1-0.4
		c0-0.1,0.1-0.2,0.2-0.2l-0.2-1.4c0,0,0.1-0.1,0.2-0.2c0.1-0.1,0.2-0.2,0.3-0.3c-0.2,0.1-0.4,0.3-0.6,0.4c-0.3,0.2-0.5,0.4-0.6,0.4
		l0,0c0,0,0.1,0,0.1,0.1c0.1,0.1,0.1,0.1,0.1,0.1c0,0,0,0,0,0l0.1,0l0,0c0,0,0.1,0,0.3-0.1c0.2-0.1,0.4-0.1,0.6-0.2
		c0.2-0.1,0.4-0.1,0.6-0.2c0.2-0.1,0.3-0.1,0.4-0.2c-0.2-0.1-0.3-0.2-0.4-0.3c-0.1-0.1-0.3-0.2-0.4-0.3l-0.2-0.1
		c0,0.1-0.1,0.2-0.2,0.3c-0.1,0.1-0.2,0.2-0.3,0.2l-0.1-0.6c0-0.3-0.1-0.6,0-0.9c0-0.3,0.1-0.6,0.2-0.9c0.1-0.3,0.2-0.5,0.4-0.8
		s0.4-0.4,0.7-0.4c0,0-0.1-0.1-0.1-0.2s-0.1-0.2-0.1-0.2c0-0.1,0.1-0.3,0.2-0.7c0.1-0.3,0.2-0.5,0.2-0.6c0.1,0,0.2,0.1,0.3,0.2
		c0,0.1,0.1,0.2,0.1,0.3c0,0.1,0.1,0.2,0.1,0.3s0.2,0.1,0.4,0.1c0.2,0,0.3-0.1,0.4-0.2c0.1-0.1,0.1-0.2,0.1-0.4
		c0-0.1,0.1-0.2,0.1-0.4c0-0.1,0.2-0.2,0.4-0.2c-0.2,0-0.3-0.1-0.4-0.3c0-0.1-0.1-0.3-0.1-0.4c0-0.1,0-0.3,0-0.4
		c0-0.1-0.1-0.2-0.3-0.2c0,0.1-0.1,0.2-0.3,0.4c-0.1,0.2-0.2,0.3-0.2,0.4l0,0.1l0,0.1c0,0,0.1,0,0.2,0.1c0.1,0,0.2,0.1,0.2,0.1
		l0,0.1l0,0.1c0,0.1,0,0.2,0,0.3c0,0.2-0.1,0.3-0.1,0.3c-0.3-0.1-0.4-0.2-0.5-0.4c-0.1-0.2-0.3-0.3-0.6-0.4
		c-0.1-0.3-0.2-0.5-0.3-0.7c-0.1-0.2-0.1-0.5-0.2-0.8l0-0.2c0-0.1,0.1-0.2,0.3-0.5c0.2-0.2,0.3-0.4,0.4-0.4l0.2,0.1
		c0,0.1,0,0.4-0.1,0.8c0,0.4-0.1,0.7-0.1,0.8c0,0,0,0.1,0,0.1c0,0,0,0.1,0,0.1c0.1,0,0.2-0.1,0.3-0.2c0.1-0.1,0.2-0.3,0.3-0.4
		c0.1-0.1,0.1-0.3,0.2-0.5c0-0.2,0-0.3,0-0.4c0-0.1-0.1-0.2-0.3-0.4c-0.1-0.2-0.2-0.4-0.3-0.4c0,0,0.1-0.1,0.2-0.2
		c0.2-0.1,0.3-0.1,0.3-0.1l0.1,0l0.1,0l-0.1,0.1c-0.1,0.1-0.1,0.1-0.1,0.1l0.1,0l0.1,0c0.1-0.2,0.3-0.3,0.5-0.5
		c0.2-0.1,0.2-0.3,0.2-0.5c0-0.1-0.1-0.2-0.2-0.3c-0.1,0-0.1-0.1-0.2-0.3c0-0.1,0-0.3,0-0.5c0-0.2,0-0.4,0.1-0.7
		c0-0.2,0.1-0.4,0.2-0.6c0.1-0.2,0.2-0.2,0.3-0.2c0.2-0.3,0.4-0.6,0.6-0.9c0.2-0.2,0.4-0.4,0.6-0.6c0.2-0.2,0.4-0.3,0.7-0.4
		c0.3-0.1,0.6-0.2,1-0.2c0.2,0,0.4-0.1,0.8-0.1c0.4-0.1,0.8-0.1,1.2-0.1c0.4,0,0.8,0,1.1,0.1c0.3,0.1,0.5,0.3,0.6,0.6l0,0.2
		c-0.5,0.7-0.8,1.4-1,2c-0.2,0.6-0.4,1.3-0.7,2.1c0,0-0.1,0.1-0.2,0.2c-0.1,0.1-0.1,0.2-0.2,0.2c-0.1,0-0.2,0.1-0.4,0.2
		C88.1,53.9,88,54,88,54c-0.1,0.8-0.2,1.4-0.3,1.8c-0.1,0.5-0.1,0.9-0.2,1.3c-0.1,0.4-0.1,0.7-0.1,0.7c0,0.1,0,0.2,0.1,0.5
		c0.1,0.2,0.1,0.4,0.1,0.4c0.3-0.1,0.6,0,0.8,0.1c0.2,0.1,0.4,0.3,0.5,0.4c0.2,0.2,0.3,0.3,0.5,0.4c0.2,0.1,0.4,0.2,0.8,0.1l0.1,0
		c0,0,0,0,0,0c0,0,0.1-0.1,0.2-0.2c0.1-0.1,0.1-0.2,0.2-0.3l0.1,0l0.1,0c0,0,0.1,0.1,0.2,0.1c0.1,0,0.1,0,0.2,0.1
		c0.1,0,0.1-0.1,0.2-0.2c0.1-0.1,0.1-0.2,0.1-0.3c0,0,0-0.1-0.1-0.2c-0.1-0.1-0.1-0.2-0.2-0.2l0-0.2c0.4-0.1,0.8,0,1.2,0.3
		c0.4,0.3,0.6,0.6,0.7,1.1c0.1-0.1,0.1-0.2,0.1-0.4c0-0.1,0-0.2,0-0.4c0-0.1,0-0.2,0-0.4c0-0.1,0-0.2,0.1-0.4l0.2,0.2l0.2,1.5
		c0,0.1,0.1,0.1,0.2,0.2c0.1,0.1,0.2,0.1,0.4,0.2c0.1,0.1,0.3,0.2,0.6,0.3c0.1,0,0.2-0.2,0.2-0.4c0-0.2,0-0.4,0-0.6
		c0-0.2-0.1-0.5-0.1-0.7c0-0.2,0-0.4,0-0.5c0.2,0.1,0.5,0.3,0.7,0.5c0.2,0.2,0.5,0.3,0.8,0.3l0.1,0c0,0,0.1-0.1,0.2-0.2
		c0.1-0.1,0.1-0.1,0.2-0.2l0,0.1l0,0.2c0,0,0,0.2,0,0.4c0,0.2,0,0.4,0,0.4s0.1,0.2,0.1,0.4c0.1,0.2,0.2,0.4,0.2,0.5
		c0,0,0,0.1,0.1,0.1c0.1,0,0.1,0.1,0.1,0.1c0.2-0.1,0.3-0.2,0.2-0.3s0-0.2,0-0.3s0-0.2,0.1-0.3c0.1-0.1,0.3-0.3,0.7-0.5
		c0,0,0.1-0.1,0.2-0.2c0.1-0.1,0.1-0.1,0.1-0.1c0.2,0,0.4,0.1,0.5,0.2s0.1,0.2,0.2,0.2c0.1,0.1,0.1,0.1,0.2,0.2
		c0.1,0.1,0.2,0.1,0.5,0.2c0.2,0,0.4,0.1,0.6,0.1c0.2,0,0.3,0.1,0.3,0.4c0,0,0,0.1,0,0.1s0,0.1,0,0.1L100,62c0,0,0,0.1,0.1,0.1
		c0,0,0.1,0.1,0.1,0.1l0.1,0c0.1,0,0.2-0.1,0.2-0.2c0-0.1,0.1-0.2,0.1-0.3c0-0.1,0.1-0.2,0.1-0.3c0-0.1,0.1-0.2,0.3-0.2l0.1,0
		c0.1,0,0.2,0.2,0.3,0.4s0.2,0.3,0.2,0.4l0.1,0.1c0,0.1-0.1,0.2-0.3,0.4c-0.2,0.2-0.4,0.3-0.4,0.4c0,0,0,0.1,0.1,0.1
		c0,0,0.1,0.1,0.1,0.1l0.4-0.1c0,0.2,0,0.5-0.1,0.7c-0.1,0.2-0.2,0.4-0.1,0.7l0,0.1c0.1,0,0.2,0.1,0.3,0.2c0.2,0.1,0.3,0.2,0.3,0.2
		l-0.1,0.1c0,0,0,0.1,0,0.1c0,0,0,0,0,0c0,0.1-0.1,0.3-0.2,0.6c-0.1,0.3-0.2,0.5-0.2,0.6l0,0.1c0.1,0.3,0.2,0.6,0.5,0.9
		c0.3,0.3,0.4,0.6,0.5,0.9c0,0.3,0,0.5,0,0.6c-0.1,0.1-0.3,0.2-0.6,0.3c-0.1,0-0.1,0-0.2,0c-0.1,0-0.2-0.1-0.2-0.1
		c0,0.4-0.1,0.8-0.3,1.3c-0.2,0.5-0.4,0.8-0.7,1.1c-0.1-0.1-0.2-0.2-0.3-0.3c-0.1-0.2-0.2-0.2-0.3-0.2c-0.2,0-0.3,0.2-0.2,0.4l0,0.2
		c0,0.1,0,0.2,0.1,0.4c0.1,0.2,0.1,0.3,0.2,0.4l-1,0.2c0,0.2,0,0.3,0,0.4s-0.2,0.1-0.4,0.2c0-0.2-0.1-0.3-0.2-0.4
		c-0.1-0.1-0.2-0.1-0.4-0.1l-0.2,0c-0.1,0.4-0.2,0.7-0.3,0.9c-0.2,0.2-0.4,0.4-0.8,0.4l-0.1,0c-0.1-0.1-0.1-0.2-0.2-0.3
		C96,73.3,95.9,73.2,95.7,73.3L95.7,73.3z M80.9,66.5c0.1,0,0.1,0.1,0.2,0.1c0.1,0,0.2,0,0.2,0L81.3,66L80.9,66.5z M81.6,68
		c-0.1,0,0,0,0,0.1c0.1,0.1,0.2,0.1,0.3,0.2c0.1,0.1,0.2,0.1,0.3,0.2c0.1,0.1,0.2,0.1,0.3,0.1c0.1,0,0,0,0-0.1
		c-0.1-0.1-0.2-0.1-0.3-0.2c-0.1-0.1-0.2-0.1-0.3-0.2C81.7,68,81.6,68,81.6,68z M80.9,61.7c0,0.2,0.1,0.3,0.3,0.3l-0.1-0.4
		L80.9,61.7z M82.4,68.2C82.4,68.2,82.4,68.3,82.4,68.2c-0.1,0.2,0,0.2,0,0.2C82.5,68.4,82.5,68.4,82.4,68.2
		C82.5,68.3,82.5,68.2,82.4,68.2z M82.3,65.5c0,0.1,0,0.2,0.1,0.3c0.1,0.2,0.1,0.3,0.2,0.5c0.1,0.2,0.1,0.3,0.2,0.5
		c0.1,0.1,0.1,0.2,0.2,0.2l0.4-0.7l0.2-0.6L82.3,65.5z M83.8,59.1c-0.1,0.1-0.3,0.2-0.3,0.4c-0.1,0.2-0.1,0.3-0.1,0.5
		c0,0.1,0.1,0.2,0.2,0.3c0.1,0.1,0.3,0,0.5-0.1c0.1,0,0.1-0.1,0.1-0.2c0-0.1,0-0.2-0.1-0.4c0-0.1-0.1-0.2-0.1-0.3
		C83.9,59.1,83.8,59.1,83.8,59.1z M84.8,67.9c-0.1,0-0.1,0.1-0.1,0.2s0.1,0.2,0.2,0.2c0,0,0.1-0.1,0-0.2
		C84.9,68,84.8,67.9,84.8,67.9z M84.8,66.9c0,0,0,0.1,0,0.2c0,0.1,0,0.1,0,0.2c0.1,0.1,0.2,0.3,0.4,0.4s0.3,0.3,0.3,0.3l0.3,0
		c0-0.3-0.2-0.5-0.4-0.7C85.3,67,85,66.9,84.8,66.9z M84.5,59c-0.1,0-0.1,0.1,0,0.2c0,0.1,0.1,0.3,0.1,0.4c0.1,0.2,0.1,0.3,0.2,0.4
		c0.1,0.1,0.1,0.2,0.2,0.2S85,60,85,59.9c0-0.1-0.1-0.3-0.1-0.4c-0.1-0.2-0.1-0.3-0.2-0.4C84.6,59,84.6,59,84.5,59z M84.5,51.9
		c0,0-0.1,0-0.2,0c-0.1,0-0.1,0-0.2,0.1c0,0-0.1,0.1-0.2,0.1c-0.1,0.1-0.1,0.1-0.1,0.1l0.2,1l0.2,0c0.1,0,0.1-0.1,0.1-0.2
		c0-0.1,0.1-0.2,0.1-0.4c0-0.1,0.1-0.3,0.1-0.4C84.5,52.1,84.5,52,84.5,51.9z M86.7,62.6c-0.3,0.2-0.5,0.4-0.5,0.6
		c-0.1,0.2-0.1,0.5,0,0.9l0.1,0.4c0.2-0.2,0.3-0.5,0.4-0.9c0.1-0.4,0.1-0.7,0.1-0.9L86.7,62.6z M87.8,68c0.1,0,0.1,0.1,0.2,0.1
		c0.1,0.1,0.2,0.1,0.2,0.2c0,0,0.1,0,0.2,0c0.1,0,0.2,0,0.2,0.1c0.3,0.3,0.5,0.5,0.7,0.9c0.2,0.3,0.5,0.6,0.7,0.9
		c0.3,0.3,0.6,0.6,0.9,0.8c0.3,0.2,0.7,0.4,1.1,0.4c0.1,0,0.2,0,0.3-0.1c0.1-0.1,0.2-0.1,0.3-0.1c0.5-0.2,1-0.3,1.5-0.5
		c0.5-0.2,0.9-0.4,1.3-0.6c0.4-0.2,0.7-0.5,1-0.9c0.3-0.4,0.6-0.8,0.8-1.4c0.2-0.4,0.3-0.7,0.4-0.9c0.1-0.2,0.2-0.5,0.3-1
		c0.2,0,0.4,0.1,0.6,0.3c0.2,0.2,0.3,0.2,0.6,0.2c0-0.2-0.1-0.4-0.2-0.4c-0.1-0.1-0.2-0.1-0.3-0.2c-0.1,0-0.2-0.1-0.3-0.2
		s-0.2-0.2-0.2-0.4c0-0.2,0-0.4,0.2-0.4c0.1,0,0.2-0.2,0.2-0.4c0-0.2-0.1-0.4-0.2-0.5c-0.1-0.2-0.2-0.3-0.3-0.5
		c-0.1-0.2-0.2-0.3-0.3-0.5c-0.1-0.2-0.1-0.4-0.1-0.6c0,0-0.1,0.1-0.2,0.1c-0.1,0.1-0.2,0.1-0.2,0.1c-0.1,0-0.3,0-0.4-0.1
		c-0.1-0.1-0.2-0.2-0.4-0.2c-0.1-0.1-0.2-0.2-0.4-0.2c-0.1-0.1-0.2-0.1-0.4-0.1c-0.1,0-0.1,0-0.3-0.1c-0.1,0-0.2-0.1-0.4-0.1
		c-0.1,0-0.3-0.1-0.4-0.1c-0.1,0-0.2,0-0.2,0c-0.1,0-0.2,0.1-0.4,0.2c-0.2,0.1-0.3,0.2-0.4,0.2l-1,0.2l-1.1,0.2
		c-0.2,0-0.3,0-0.4-0.1C91,62,91,61.9,90.9,61.8c0-0.1-0.1-0.2-0.2-0.3c-0.1-0.1-0.2-0.1-0.3-0.1c0.1,0.5,0,0.8-0.2,1
		c-0.2,0.2-0.6,0.3-1,0.4l-0.2,0c0-0.1,0-0.2-0.1-0.4c0-0.2-0.1-0.3-0.1-0.5c-0.1-0.2-0.1-0.3-0.2-0.4c-0.1-0.1-0.2-0.1-0.4-0.1
		l-0.2,0c-0.1,0.1-0.2,0.3-0.3,0.6c-0.1,0.3-0.3,0.5-0.4,0.8c-0.1,0.3-0.3,0.6-0.4,0.9c-0.1,0.3-0.1,0.5-0.1,0.6
		c0.1,0.6,0.3,1.1,0.5,1.7C87.6,66.7,87.7,67.3,87.8,68z M88.3,70.3c-0.1,0-0.1,0.1-0.1,0.2s0.1,0.2,0.2,0.2c0.1,0,0.2-0.1,0.2-0.2
		C88.5,70.3,88.5,70.3,88.3,70.3z M88.6,70.4c-0.1,0-0.2,0.1-0.2,0.2s0.1,0.2,0.2,0.2c0.1,0,0.1-0.1,0.1-0.2
		C88.7,70.5,88.7,70.4,88.6,70.4z M89,60.5c0.1,0.5,0.2,0.7,0.4,0.8c0.2,0.1,0.5,0.1,0.9,0.1c0-0.3-0.2-0.5-0.4-0.7
		C89.6,60.6,89.3,60.5,89,60.5z M88.2,53.2C88.2,53.1,88.1,53.2,88.2,53.2c-0.1,0.2,0,0.2,0,0.2C88.3,53.3,88.3,53.3,88.2,53.2
		C88.3,53.2,88.3,53.1,88.2,53.2z M91,60.7c0-0.1-0.1-0.1-0.1-0.1c-0.1,0-0.1,0-0.1,0.1C90.9,60.8,90.9,60.8,91,60.7
		C91,60.8,91,60.7,91,60.7z M93.3,60.1C93.2,60.1,93.2,60.1,93.3,60.1c-0.1,0.2,0,0.2,0,0.2C93.4,60.3,93.4,60.2,93.3,60.1
		C93.4,60.2,93.3,60.1,93.3,60.1z M96.1,72.6l0.2-0.2l-0.2-0.2L96.1,72.6z M97.7,71.4c0,0.2,0.2,0.4,0.4,0.4c0.2,0,0.4,0.1,0.6,0
		c0-0.2-0.2-0.4-0.4-0.5c-0.2-0.1-0.4-0.2-0.6-0.1C97.7,71.2,97.7,71.3,97.7,71.4L97.7,71.4z M98.7,69.8c-0.3,0.3-0.4,0.8-0.3,1.3
		c0.1,0,0.2-0.1,0.4-0.1c0.2-0.1,0.2-0.2,0.2-0.4l0,0c0-0.1-0.1-0.2-0.2-0.4C98.7,70,98.7,69.9,98.7,69.8z M99.1,68.8
		c0.5-0.1,0.9-0.3,1.2-0.6c0.3-0.3,0.4-0.7,0.3-1.3c-0.3,0-0.5,0-0.7,0c-0.2,0-0.4-0.1-0.7,0L98.8,67L99.1,68.8z M99.7,70.1l0.2,0
		l-0.2-0.2L99.7,70.1z M98.8,63.4c-0.1,0-0.1,0,0,0.2c0,0.2,0.1,0.2,0.1,0.2c0-0.1,0.1-0.1,0-0.2S98.9,63.5,98.8,63.4z M99,64.4
		C98.9,64.4,98.9,64.4,99,64.4c-0.1,0.2,0,0.2,0,0.2C99.1,64.6,99.1,64.5,99,64.4C99.1,64.4,99,64.4,99,64.4z M100.2,64.4
		c0,0.1,0,0.3-0.1,0.5c-0.1,0.3-0.1,0.4-0.1,0.5l0,0.3c0.3-0.1,0.5-0.3,0.7-0.7c0.1-0.4,0.2-0.7,0.1-0.9c-0.1,0-0.2,0.1-0.3,0.2
		C100.4,64.4,100.3,64.4,100.2,64.4z M101,68.3l0.2,0l0-0.2l-0.2,0L101,68.3z M101,63.3c-0.1,0-0.1,0.1-0.1,0.2
		c0,0.1,0.1,0.2,0.2,0.2c0.1,0,0.1-0.1,0.1-0.2C101.2,63.3,101.1,63.3,101,63.3z"/>
</g>
<rect x="130.2" y="140.4" transform="matrix(0.9699 0.2434 -0.2434 0.9699 47.8385 -36.7508)" fill="none" stroke="#373232" stroke-width="3" stroke-miterlimit="10" width="84.8" height="69.7"/>
<g>
	<path fill="#373232" d="M188.8,183.4c0,0-0.1,0-0.3,0c-0.2,0-0.3,0-0.4,0c0,0-0.1-0.2-0.2-0.4c-0.1-0.2-0.1-0.4-0.2-0.4
		c-0.1-0.1-0.2-0.2-0.4-0.3c-0.2-0.1-0.3-0.2-0.4-0.2c0,0-0.1,0-0.2,0c-0.1,0-0.2,0-0.2,0c-0.4-0.1-0.7-0.3-0.8-0.4
		c-0.2-0.1-0.3-0.3-0.4-0.4c-0.1-0.1-0.2-0.3-0.2-0.5c-0.1-0.2-0.2-0.4-0.4-0.6c-0.2,0-0.3,0-0.3,0.2c0,0.2-0.1,0.3-0.1,0.5
		c0,0.2-0.1,0.3-0.1,0.5c-0.1,0.1-0.2,0.2-0.4,0.1c0,0,0-0.1,0-0.1c0-0.1,0-0.1,0-0.1l-0.1-0.2c0-0.1-0.1-0.1-0.1-0.2l0-0.1
		c0.1-0.2,0.2-0.4,0.3-0.6c0.2-0.2,0.3-0.3,0.6-0.4l-0.1,0c-0.4-0.1-0.7-0.1-0.8,0.1c-0.1,0.1-0.2,0.3-0.3,0.6
		c-0.1,0.2-0.1,0.4-0.1,0.6c0,0.2-0.1,0.3-0.3,0.3c-0.2-0.2-0.3-0.4-0.3-0.5c0-0.2,0-0.4,0.1-0.6l0.1-0.3c0-0.1,0-0.1,0.1-0.2
		c0-0.1,0.1-0.1,0.1-0.2c0.1-0.1,0.1-0.2,0.1-0.2c0,0-0.1-0.1-0.2-0.3c-0.1-0.2-0.2-0.3-0.2-0.4c0-0.1,0.1-0.1,0.3-0.3
		c0.2-0.1,0.3-0.2,0.3-0.2c0.2-0.2,0.3-0.5,0.4-0.8c0.1-0.3,0.2-0.6,0.4-0.9c0.3,0.2,0.5,0.2,0.6,0c0.1-0.2,0.2-0.4,0.3-0.7l0.5,0.1
		l0.8-1.4l0.7,0.2c0-0.1,0-0.2,0-0.3c0-0.2,0-0.3,0-0.3c0.1-0.1,0.2-0.2,0.5-0.4c0.2-0.1,0.4-0.2,0.5-0.2l0,0l0,0.1
		c0,0-0.1,0.1-0.2,0.1c-0.1,0.1-0.1,0.1-0.2,0.2l0,0.1l0,0.2c0.2-0.1,0.4-0.2,0.7-0.4c0.3-0.2,0.5-0.5,0.7-0.7
		c0.2-0.3,0.4-0.6,0.6-0.9c0.2-0.3,0.3-0.5,0.4-0.7l0.5,0.1c0-0.1,0.1-0.2,0.1-0.4c0.1-0.2,0.1-0.3,0.2-0.5c0.1-0.2,0.1-0.4,0.1-0.6
		c0-0.2,0-0.3-0.1-0.4c-0.1,0-0.2,0.1-0.4,0.1c-0.2,0.1-0.3,0.1-0.3,0.1l-0.1,0c-0.1,0-0.3-0.3-0.6-0.7c-0.3-0.4-0.6-0.9-0.9-1.4
		c-0.3-0.5-0.6-1-0.9-1.4c-0.3-0.5-0.4-0.7-0.5-0.9l-0.5-0.5l-0.1,0c-0.1,0-0.1,0-0.3,0.1c-0.1,0-0.2,0-0.3,0.1
		c-0.4-0.5-0.7-1.1-0.9-1.6c-0.2-0.5-0.3-1-0.3-1.4c0-0.4,0-0.8,0.1-1.1c0.1-0.3,0.2-0.6,0.4-0.7c-0.1,0-0.1,0-0.3,0
		c-0.1,0-0.2,0-0.2,0c0,0-0.1,0-0.1,0l-0.1,0l0.2-0.8c0.4,0.1,0.6,0.1,0.8,0.1c0.1,0,0.2,0,0.2-0.1c0,0,0.1-0.1,0.1-0.2
		c0-0.1,0.1-0.2,0.3-0.3c0.1-0.1,0.3-0.1,0.5-0.2c0.2-0.1,0.3-0.1,0.4,0l0.2,0.2l1.8-1l-0.6,2.2l0.2,0.1c0.1-0.1,0.2-0.2,0.4-0.5
		c0.2-0.2,0.4-0.5,0.6-0.8c0.2-0.3,0.4-0.5,0.6-0.7c0.2-0.2,0.3-0.3,0.4-0.3c0,0.1,0,0.1,0,0.2c0,0.1,0,0.1,0,0.2c0,0.1,0,0.1,0,0.2
		l0,0.5c0,0.1,0,0.2,0,0.3c0,0.2,0,0.3,0,0.3l0.1,0.1c0.1,0,0.2,0,0.3-0.1c0.1-0.1,0.2-0.2,0.3-0.3s0.2-0.2,0.3-0.4
		c0.1-0.1,0.1-0.2,0.1-0.3c0,0-0.1-0.1-0.3-0.3c-0.2-0.2-0.3-0.3-0.3-0.4l0.4-0.1l0.1,0l0.1,0c0,0,0.1-0.1,0.2-0.2
		c0.1-0.1,0.2-0.1,0.2-0.1c0.1,0.2,0.1,0.4,0.2,0.6c0,0.3,0.1,0.5,0.1,0.8c0,0.3,0.1,0.5,0.1,0.7c0,0.2,0.1,0.3,0.2,0.4l0.1,0
		l0.1-0.1c0,0,0.1,0,0.1,0c0-0.1,0-0.2,0-0.4c0-0.2,0-0.4,0-0.4c0,0,0-0.1,0-0.1s0-0.1,0-0.1c0.2,0,0.3,0.1,0.3,0.2s0.1,0.2,0.3,0.2
		l0.2,0c0,0,0-0.1,0-0.3c0-0.2,0-0.4,0-0.6c0-0.2,0-0.4,0-0.6c0-0.2,0-0.3,0-0.3c0,0,0.1,0,0.2,0.2c0.1,0.1,0.2,0.3,0.3,0.5
		c0.1,0.2,0.2,0.4,0.4,0.8c0-0.1,0.1-0.1,0.1-0.3c0.1-0.1,0.1-0.2,0.1-0.3c0,0-0.1-0.2-0.3-0.4c-0.2-0.2-0.3-0.4-0.3-0.4
		c0.1-0.1,0.2-0.1,0.5-0.2c0.2,0,0.4,0,0.4,0l-0.1,0.3c0.1,0,0.2,0.1,0.2,0.1c0.1,0.1,0.1,0.1,0.2,0.1c0,0,0.1,0,0.2,0
		c0.1,0,0.2-0.1,0.3-0.3c0,0.2,0.1,0.4,0.2,0.7c0.1,0.3,0.3,0.5,0.4,0.5c0,0,0.2,0,0.4,0c0.2,0,0.5-0.1,0.8-0.1
		c0.3-0.1,0.6-0.1,0.8-0.2c0.2,0,0.4-0.1,0.5,0c-0.1,0.4-0.1,0.7-0.1,1c0,0.2,0.3,0.4,0.7,0.5l0.1,0c0,0,0.1,0,0.1,0l0.1-0.1
		c0,0,0-0.1,0-0.2c0-0.1-0.1-0.2,0-0.2c0.2-0.3,0.4-0.5,0.7-0.6c0.3-0.1,0.6,0,0.9,0c-0.1,0.3-0.1,0.4-0.1,0.5c0,0.1,0,0.2,0.1,0.2
		c0.1,0.1,0.1,0.1,0.2,0.2c0.1,0.1,0.2,0.2,0.4,0.3c0.1,0.1,0.1,0.3,0.1,0.5c0,0.2,0.1,0.4,0.4,0.5c0.2,0.1,0.4,0.1,0.5,0.1
		s0.3,0,0.6,0l0,0.1c-0.1,0.3-0.3,0.6-0.6,0.9c-0.3,0.3-0.6,0.5-0.9,0.7l-0.1,0l-0.1,0c0,0-0.1-0.1-0.2-0.3
		c-0.1-0.1-0.2-0.2-0.2-0.3l-0.1,0c-0.1,0-0.1,0-0.1,0s0,0-0.1,0c-0.1,0-0.2,0-0.3,0c-0.1,0-0.2,0.1-0.2,0.2l0,0.1
		c0,0,0,0.1,0.1,0.2c0.1,0.1,0.1,0.2,0.2,0.2c0,0-0.1,0-0.1,0l-0.1,0c-0.2,0-0.3-0.1-0.4-0.2c-0.1-0.1-0.1-0.2-0.2-0.3
		c0-0.1-0.1-0.2-0.1-0.3c-0.1-0.1-0.1-0.2-0.3-0.3c-0.1,0-0.1,0-0.3,0c-0.1,0-0.2,0-0.4-0.1c-0.1,0-0.3,0-0.4,0c-0.1,0-0.2,0-0.2,0
		l-0.2-0.1c-0.2,0-0.3-0.1-0.5-0.2c-0.1-0.1-0.3-0.2-0.4-0.2c-0.3-0.1-0.7-0.1-1-0.1c-0.4,0-0.7,0-1.1,0c0,0,0-0.1-0.1-0.1
		c0-0.1,0-0.1-0.1-0.1l-0.1,0l-0.1,0c-0.1,0-0.1,0.1-0.2,0.2c-0.1,0.1-0.1,0.2-0.2,0.2c-0.1,0.1-0.2,0.2-0.3,0.1l-0.1-0.1
		c0,0-0.1,0-0.1-0.1c0,0,0-0.1-0.1-0.1c-0.2-0.1-0.5-0.1-0.7,0c-0.3,0-0.5,0.1-0.8,0.2c-0.3,0.1-0.5,0.1-0.8,0.2
		c-0.2,0.1-0.5,0.1-0.7,0l-0.1,0c0,0,0-0.1-0.1-0.3c-0.1-0.1-0.1-0.2-0.2-0.3l-0.1,0c-0.1,0-0.2,0-0.5,0.1c-0.2,0.1-0.5,0.2-0.7,0.4
		c-0.2,0.1-0.5,0.3-0.7,0.5c-0.2,0.2-0.3,0.3-0.3,0.4c0,0.2-0.1,0.4-0.1,0.6s0,0.4,0.3,0.5l0.2,0c0,0,0-0.1,0.1-0.2
		c0-0.1,0.1-0.3,0.1-0.4c0.1-0.1,0.1-0.3,0.2-0.4c0.1-0.1,0.2-0.2,0.3-0.3l0.1,0l0.1,0c-0.1,0.2-0.2,0.4-0.3,0.6
		c-0.1,0.1-0.1,0.3-0.2,0.6c0,0.1,0,0.2-0.1,0.4c0,0.2,0.1,0.3,0.2,0.3l0.1,0c0,0,0,0,0.1-0.1c0.1,0,0.1-0.1,0.2-0.1
		c0.1,0,0.1-0.1,0.2-0.1l0,0c0,0,0,0,0,0c0,0,0,0,0,0c0,0,0.1,0,0.1,0c0,0.2-0.1,0.3-0.2,0.4c-0.1,0.1-0.2,0.2-0.4,0.3
		c0.5,0,0.8,0.1,1,0.5c0.1,0.4,0.2,0.7,0.1,1c0,0,0.1,0.1,0.1,0.1l0.1,0c0,0,0.1-0.1,0.3-0.2c0.1-0.1,0.2-0.2,0.3-0.1
		c0.3,0.1,0.5,0.3,0.6,0.5c0.1,0.3,0.2,0.6,0.3,0.9c0.1,0.3,0.2,0.6,0.3,0.9c0.1,0.3,0.4,0.5,0.9,0.6c0.2,0.1,0.4,0,0.5,0
		c0.1-0.1,0.2-0.2,0.4-0.4c0.1,0.2,0.3,0.3,0.5,0.4c0.2,0,0.3,0,0.3-0.1c0.1-0.1,0.1-0.2,0.2-0.3c0.1-0.1,0.1-0.2,0.2-0.3
		c0.1-0.1,0.1-0.2,0.2-0.2c0.1,0,0.2,0,0.4,0c0.2,0,0.3,0.1,0.4,0.2c0.1-0.5,0.4-1,0.8-1.3c0.4-0.3,0.9-0.5,1.4-0.7
		c0,0,0.1,0,0.2,0.1c0.1,0.1,0.2,0.1,0.2,0.2l0.1,0l0.1,0c0.1,0,0.1,0,0.2-0.1c0.1,0,0.2,0,0.2,0c0,0-0.1,0.2-0.2,0.5
		c-0.1,0.3-0.1,0.4-0.1,0.5c0,0.1,0,0.1,0,0.2c0,0.1,0.1,0.1,0.1,0.1c0.2,0,0.4-0.2,0.5-0.4c0.1-0.3,0.2-0.5,0.2-0.6
		c0.2,0,0.3,0,0.6-0.1c0.2-0.1,0.4-0.3,0.4-0.6c0,0.2,0,0.4,0.1,0.4c0.1,0.1,0.2,0.1,0.3,0.1c0.1,0,0.2,0,0.4,0c0.1,0,0.3,0,0.4,0
		c-0.1-0.5-0.1-0.9-0.1-1.1c0-0.2,0.1-0.2,0.2-0.2c0.1,0.1,0.3,0.2,0.5,0.3c0.2,0.2,0.4,0.3,0.7,0.4c0-0.1,0-0.2,0.1-0.4
		c0-0.2,0.1-0.3,0.1-0.4c0-0.1,0.1-0.3,0.2-0.5c0.1-0.3,0.2-0.5,0.3-0.6c0.2,0.2,0.3,0.4,0.2,0.7c0,0.2-0.1,0.3-0.2,0.3
		c-0.1,0-0.2,0.1-0.2,0.2c-0.1,0.2,0,0.3,0.1,0.4c0.1,0.1,0.3,0.1,0.5,0.2c0.1,0,0.2,0,0.3-0.2c0.1-0.2,0.1-0.3,0.2-0.6
		c0.1-0.2,0.1-0.4,0.1-0.6c0-0.2,0.1-0.2,0.2-0.2c0.1,0,0.2,0.1,0.3,0.3c0.1,0.2,0.2,0.4,0.3,0.6c0.1,0.2,0.2,0.4,0.3,0.6
		c0.1,0.2,0.2,0.3,0.3,0.3c0.2,0,0.2-0.1,0.2-0.4c0-0.3,0-0.6,0-0.9c0.1-0.3,0.3-0.6,0.6-0.8c0.3-0.2,1-0.2,1.9-0.1l0.2,0.3
		c-0.1,0-0.2,0-0.3,0.1s-0.1,0.2-0.1,0.3c0,0.2-0.1,0.4-0.1,0.6s0.1,0.4,0.3,0.4l0.1,0c0.1-0.1,0.2-0.2,0.3-0.3
		c0.1-0.2,0.1-0.3,0.2-0.5c0.1-0.2,0.1-0.3,0.1-0.4c0-0.1,0.1-0.2,0.1-0.3c0.3,0.1,0.5,0.2,0.5,0.4c0,0.2-0.1,0.4-0.1,0.7
		c0,0.1,0,0.2-0.1,0.3c0,0.1-0.1,0.2-0.1,0.2l-2,1.2c0,0,0,0,0,0c0,0-0.1,0-0.1,0c0,0,0,0,0,0l0,0c-0.1,0-0.1-0.1-0.3-0.3
		c-0.1-0.2-0.2-0.2-0.3-0.3c-0.2-0.1-0.3-0.1-0.4,0c-0.1,0.1-0.1,0.2-0.2,0.4c0,0.2-0.1,0.3-0.1,0.5c0,0.1,0,0.3,0.1,0.5
		c-0.2-0.1-0.5-0.1-0.7,0c-0.2,0.1-0.5,0.2-0.7,0.4c-0.2,0.2-0.4,0.4-0.6,0.6c-0.2,0.2-0.4,0.4-0.5,0.5c-0.2,0.3-0.5,0.5-0.8,0.6
		c-0.3,0.2-0.7,0.3-0.9,0.5l-0.1,0c-0.2,0-0.3-0.1-0.5-0.3c-0.1-0.1-0.3-0.2-0.5-0.3c-0.3-0.1-0.6,0-0.8,0.2
		c-0.2,0.2-0.4,0.4-0.6,0.7c-0.2,0.3-0.3,0.6-0.5,0.9s-0.3,0.5-0.5,0.6c-0.1,0-0.2,0.1-0.3,0.2c-0.1,0.1-0.3,0.2-0.5,0.3
		c-0.2,0.1-0.3,0.2-0.5,0.3c-0.1,0.1-0.2,0.1-0.3,0.2c0-0.2-0.1-0.3-0.4-0.3c-0.2,0-0.4,0-0.5,0c-0.1,0.2-0.1,0.4-0.2,0.4
		c0,0.1-0.1,0.1-0.2,0.2c-0.1,0-0.1,0.1-0.1,0.1c0,0-0.1,0.1-0.1,0.2c0,0.2,0.1,0.3,0.3,0.4c0.3,0.1,0.5,0.3,0.8,0.5
		c0.3,0.2,0.5,0.5,0.7,0.9c0.2,0.4,0.2,0.9,0,1.5l-0.1,0.5c0,0.1-0.1,0.1-0.2,0.2s-0.1,0.1-0.1,0.2c0,0.2,0,0.3,0.1,0.3
		c0.1,0,0.2,0,0.3,0l0.1-0.4c0.2,0,0.4,0,0.6,0s0.5,0,0.7-0.1L200,178c-0.1,0.4-0.2,0.8-0.3,1.1c-0.1,0.3-0.3,0.7-0.5,1.1
		c-0.1,0.1-0.2,0.2-0.3,0.2c-0.1,0-0.2,0-0.3,0l0.2-0.9c-0.4-0.1-0.7-0.1-0.8-0.1c-0.2,0-0.3,0.1-0.4,0.2c-0.1,0.1-0.2,0.1-0.3,0.1
		c-0.1,0-0.3,0-0.6-0.1l0,0.1c-0.1,0.2-0.1,0.4,0,0.7c0,0.2,0.2,0.4,0.4,0.4c0.2,0.1,0.4,0,0.5-0.1s0.2-0.3,0.3-0.6
		c-0.1,0.3,0,0.6,0.1,0.8c0.1,0.2,0.4,0.4,0.6,0.5l0,0c-0.1,0-0.2,0.1-0.4,0.2c-0.2,0.1-0.3,0.2-0.3,0.2c0,0.2-0.1,0.4-0.1,0.5
		s-0.1,0.2-0.1,0.3c-0.1,0.1-0.2,0.1-0.3,0.1c0,0-0.1-0.1-0.2-0.2c-0.1-0.1-0.1-0.2-0.2-0.3l-0.1,0c-0.2,0-0.3,0-0.5,0.1
		c-0.2,0.1-0.3,0.2-0.5,0.4c-0.2,0.2-0.3,0.3-0.5,0.4c-0.2,0.1-0.3,0.2-0.5,0.3l-0.1,0l-0.1-0.1c0-0.1-0.1-0.2-0.1-0.4
		s-0.1-0.3-0.1-0.4c0-0.1-0.1-0.1-0.3-0.1c-0.1,0-0.2,0-0.3,0c0,0.1-0.1,0.2-0.1,0.4c0,0.2-0.1,0.4-0.1,0.5
		c-0.1,0.2-0.1,0.3-0.3,0.4c-0.1,0.1-0.3,0.1-0.5,0.1c-0.1,0-0.1-0.1-0.2-0.4c0-0.2-0.2-0.4-0.4-0.5l-0.1,0l-0.1,0
		c-0.1,0-0.2,0-0.4,0.1c-0.2,0.1-0.4,0.1-0.5,0.1c0-0.2,0-0.4,0-0.5c0-0.1,0.1-0.3,0.1-0.5c0.1-0.6,0.3-1,0.4-1.1
		c0.1-0.2,0.3-0.3,0.4-0.3c0.2,0,0.3,0,0.5,0.1c0.2,0.1,0.5,0.1,0.9,0.1c0,0,0.1,0,0.3-0.1c0.1,0,0.3-0.1,0.5-0.2s0.3-0.1,0.5-0.2
		c0.1,0,0.2-0.1,0.2-0.1l0.4-1.6c0,0,0.1,0,0.2,0c0.1,0,0.2,0,0.3,0l0-0.1c0.1-0.3,0-0.4-0.3-0.4c-0.2,0-0.4,0-0.5-0.1
		c0-0.1,0-0.2-0.1-0.5c0-0.2-0.1-0.4-0.1-0.5c0,0-0.1-0.1-0.2-0.2c-0.1-0.1-0.1-0.1-0.2-0.1c0,0-0.1,0-0.1-0.1c0-0.1-0.1-0.1,0-0.2
		c0.1,0,0.2-0.1,0.3-0.3c0.1-0.2,0.2-0.3,0.2-0.4c0,0,0.1-0.1,0.1-0.3c0-0.1,0-0.2,0-0.2c0,0,0,0,0-0.1c0,0,0-0.1-0.1,0
		c-0.1,0-0.3,0.1-0.5,0.3c-0.2,0.2-0.4,0.3-0.5,0.3c0-0.2,0.1-0.4,0.2-0.6c0.1-0.2,0.1-0.5,0.1-0.8s0-0.5-0.1-0.7
		c-0.1-0.2-0.3-0.3-0.5-0.4c-0.1,0-0.3,0.1-0.5,0.4c-0.3,0.3-0.6,0.6-1,0.9c-0.3,0.3-0.7,0.7-1,1c-0.3,0.3-0.6,0.5-0.8,0.5
		c-0.2,0-0.4,0.1-0.8,0.3c-0.4,0.1-0.7,0.3-1.1,0.5c-0.4,0.2-0.7,0.4-1.1,0.6c-0.3,0.2-0.5,0.4-0.5,0.6c0,0.2,0.1,0.4,0.5,0.6
		c0.3,0.3,0.8,0.5,1.2,0.7c0.5,0.2,1,0.4,1.4,0.6c0.5,0.2,0.8,0.3,1,0.4c0,0.1,0,0.2-0.1,0.3c0,0.1-0.1,0.3-0.1,0.5
		c0,0.2,0,0.3-0.1,0.5c0,0.2,0,0.3,0,0.3c0,0,0,0.1,0,0.2c0,0.1,0,0.2,0,0.2l-0.2,0c-0.1,0-0.2-0.1-0.3-0.2
		c-0.1-0.1-0.2-0.1-0.3-0.2c0,0-0.1,0-0.1,0.1l0,0.1c0,0.1,0,0.2,0,0.4s0.1,0.2,0,0.4l0,0.1c-0.2,0.2-0.3,0.3-0.4,0.4
		c-0.1,0.1-0.2,0.1-0.4,0.1l-0.2-0.1c0,0-0.1-0.1-0.1-0.3C188.9,183.4,188.8,183.4,188.8,183.4z M185.5,162.3
		c-0.1,0.3,0,0.5,0.1,0.8l0.2-0.8L185.5,162.3z M186.7,159c0,0-0.1,0-0.1,0.1c0,0.1,0,0.1,0.1,0.1
		C186.7,159.2,186.7,159.2,186.7,159C186.7,159.1,186.7,159,186.7,159z M186,163.3c0,0-0.1,0-0.1,0c-0.1,0-0.1,0.1-0.1,0.1l0,0.1
		l0,0.1L186,163.3z M183.4,178.7c-0.1,0-0.1,0-0.1,0c0,0.1,0,0.1,0.1,0.1c0.1,0,0.1,0,0.1,0C183.5,178.7,183.5,178.7,183.4,178.7z
		 M190.4,168.6c-0.1,0-0.2,0-0.2,0.1c0,0.1,0,0.2,0.1,0.2c0.1,0,0.2,0,0.2-0.2C190.5,168.7,190.5,168.6,190.4,168.6z M189.2,173.1
		c0,0.1,0,0.1,0,0.2c0,0.1,0,0.2,0.1,0.3l0.1,0c0.2,0,0.3,0,0.4-0.3c0.1-0.2,0.1-0.4,0.2-0.5l0-0.2c-0.1,0-0.2,0.1-0.4,0.2
		C189.4,173,189.3,173.1,189.2,173.1z M190.5,168.8c-0.1,0-0.2,0-0.2,0.2c0,0.1,0,0.2,0.1,0.2c0.1,0,0.2,0,0.2-0.1
		C190.7,169,190.6,168.9,190.5,168.8z M196.4,160.6C196.3,160.6,196.3,160.6,196.4,160.6c-0.1,0.1-0.1,0.2,0,0.2
		C196.5,160.8,196.5,160.7,196.4,160.6z M197,159.7c-0.1,0-0.2,0-0.2,0.2c0,0.1,0,0.2,0.1,0.2c0.1,0,0.2,0,0.2-0.2
		C197.1,159.8,197.1,159.7,197,159.7z M197.1,160.8l0.3,0.1l0.1-0.4l-0.3-0.1L197.1,160.8z M198.4,159.4c0-0.1,0-0.1-0.1-0.1
		c-0.1,0-0.1,0-0.1,0c0,0.1,0,0.1,0.1,0.1C198.3,159.5,198.3,159.5,198.4,159.4z M196.5,172.6c0,0,0,0.1,0.1,0.2
		c0,0.1,0.1,0.1,0,0.2l0.2-0.7l-0.2,0.1L196.5,172.6L196.5,172.6z M197.1,170.9c0,0,0,0.1,0.1,0.1c0,0.1,0.1,0.1,0.1,0.1l0.1,0
		l0.1,0c0,0,0.1,0,0.1-0.1c0,0,0.1-0.1,0.1-0.1l0-0.1l0-0.1c0-0.1,0-0.2-0.1-0.2l0,0c0,0,0,0-0.1-0.1c0,0,0,0,0,0s0,0,0,0l0,0
		c0,0-0.1,0.1-0.2,0.2C197.2,170.8,197.1,170.9,197.1,170.9z M196.8,174.8c-0.1,0.2-0.3,0.4-0.5,0.5c-0.2,0.1-0.4,0.3-0.4,0.6
		l-0.1,0.2c0.3-0.1,0.5-0.2,0.6-0.3c0.1-0.1,0.2-0.3,0.2-0.5c0-0.1,0-0.1,0-0.2C196.8,174.9,196.8,174.9,196.8,174.8z M198.3,169.9
		c-0.1,0-0.1,0.1,0,0.2c0,0.1,0.1,0.1,0.1,0.1c0.1,0,0.1,0,0.2,0.1c0.1,0,0.1,0.1,0.2,0.1c0.1-0.2,0.2-0.4,0.3-0.6
		c0.1-0.2,0.2-0.3,0.3-0.6l-0.4-0.1L198.3,169.9z M196.3,177.7c0.3,0.1,0.4-0.1,0.5-0.4l-0.4-0.1L196.3,177.7z M197.4,175.5
		c0,0.1,0,0.1,0,0.2c0,0.1,0.1,0.3,0.2,0.6c0.1,0.3,0.1,0.6,0.2,0.7c0.2-0.1,0.3-0.4,0.4-0.7c0.1-0.3,0.1-0.5,0.2-0.7L197.4,175.5
		L197.4,175.5z M196.7,178.4c-0.1,0.2,0,0.4,0,0.6c0.1,0.2,0.2,0.3,0.4,0.4c0,0,0-0.1,0-0.1c0,0,0-0.1,0-0.1c0-0.2,0-0.3-0.1-0.5
		C197,178.5,196.9,178.4,196.7,178.4z M195.8,182.2l0.3-0.2l-0.2,0L195.8,182.2z M201.2,161.2c-0.1,0.2,0,0.4,0.2,0.5
		c0.2,0.1,0.4,0.2,0.6,0.2c0-0.1,0-0.2,0-0.3c-0.1-0.1-0.1-0.1-0.2-0.2c-0.1,0-0.2-0.1-0.3-0.2c-0.1-0.1-0.1-0.2-0.1-0.3
		C201.3,161,201.3,161.1,201.2,161.2C201.3,161.1,201.2,161.2,201.2,161.2z M199.6,169.8c0,0,0,0.1,0,0.1c0,0.1,0,0.1,0.1,0.1
		c0.1,0,0.1-0.1,0.2-0.1c0.1-0.1,0.1-0.1,0.1-0.2c0,0,0-0.1,0-0.1c0-0.1-0.1-0.1-0.1-0.1c0,0-0.1,0.1-0.1,0.1c0,0-0.1,0.1-0.1,0.1
		l-0.1,0.1L199.6,169.8z M199.2,171.2l0.2,0l-0.1-0.2L199.2,171.2z M201.7,168c0,0-0.1,0.2-0.3,0.3c-0.2,0.2-0.2,0.3-0.3,0.4
		c-0.1,0-0.1,0-0.1,0.2l0.6,0.2C201.7,168.7,201.7,168.4,201.7,168z M204.5,167.9c-0.1-0.1-0.1-0.1-0.1,0c0,0.1,0,0.2,0.1,0.1
		C204.5,168.1,204.5,168.1,204.5,167.9C204.5,168,204.5,167.9,204.5,167.9z M204.5,168.4c-0.2,0.1-0.3,0.2-0.3,0.4
		c0.2,0,0.3,0,0.5-0.2L204.5,168.4z"/>
</g>
<path fill="none" stroke="#373232" stroke-miterlimit="10" d="M137.5,63.9c34.1,0,61.7,27.6,61.7,61.7"/>
<polyline fill="none" stroke="#373232" stroke-miterlimit="10" points="150.5,52.7 137.1,64.1 148.5,77.5 "/>
</svg>
