<svg id="Layer_1" xmlns="http://www.w3.org/2000/svg" viewBox="-308 219 175 175"><style>.st0{fill:none;stroke:#fff;stroke-width:2}</style><title>iconstep_icon</title><g id="Welcome"><g id="Desktop-HD" transform="translate(-369 -1111)"><g id="section-_x5B_service_x5D_" transform="translate(0 890)"><g id="graphic" transform="translate(195 83)"><g id="_x30_1" transform="translate(179 143)"><g id="icon"><path id="Stroke-1" class="st0" d="M-242.5 349.8l34.4-3.6"/><path id="Stroke-2" class="st0" d="M-242.5 358.5l34.4-3.6"/><path id="Stroke-3" class="st0" d="M-242.5 367.3l34.4-3.6"/><path id="Stroke-4" class="st0" d="M-229 374.6l9.2-1"/><path id="Stroke-6" class="st0" d="M-198.3 260l22.2-23.6 4.5 13 28.6-24-27.7 40.6-4.5-13.9-11.8 13.3"/><path id="Stroke-7" class="st0" d="M-245 324.3l-22.3 23.7-4.5-13-28.6 24 27.7-40.6 4.5 13.9 10.4-11.6"/><path id="Stroke-8" class="st0" d="M-242 292.3c0-3 2.5-5.5 5.5-5.5s5.5 2.5 5.5 5.5"/><path id="Stroke-10" class="st0" d="M-231 292.3c0-3 2.5-5.5 5.5-5.5s5.5 2.5 5.5 5.5"/><path id="Stroke-12" class="st0" d="M-220 292.3c0-3 2.5-5.5 5.5-5.5s5.5 2.5 5.5 5.5"/><path id="Stroke-14" class="st0" d="M-241.8 297.2l8 51.4"/><path id="Stroke-16" class="st0" d="M-209.6 297.2l-7.8 49.9"/><path id="Stroke-18" class="st0" d="M-190.1 260.3c6.1 7.7 9.8 17.5 9.8 28.1 0 13.5-6.1 25.8-15.5 34.1-6.6 6.5-13.1 11.8-13.1 23.5v.5"/><path id="Stroke-20" class="st0" d="M-253.1 324.5c-.4-.4-.8-.7-1.2-1.1-10.1-8.3-16.4-21-16.4-35 0-24.9 20.2-45.1 45.2-45.1 12 0 22.9 4.7 30.9 12.2"/><path id="Stroke-22" class="st0" d="M-242.5 350.1v-4.4c0-7.7-2.5-12.5-6.3-16.8"/></g></g></g></g></g></g></svg>