<svg width="26" height="26" viewBox="0 0 26 26" xmlns="http://www.w3.org/2000/svg"><title>linkedin</title><path d="M21.268 16.03c0-2.24-1.741-4.02-3.68-4.02-1.482 0-2.792 0-3.662 1.874-.16.346-.347 1.354-.347 1.853v9.68H8.872V7.057h4.888l.241 2.392h.106c.706-1.136 2.31-2.392 5.203-2.392 3.528 0 6.69 2.792 6.69 7.91v10.452h-4.732V16.03zM2.534 4.873C.994 4.874 0 3.784 0 2.438 0 1.058 1.026 0 2.597 0s2.534 1.058 2.566 2.438c0 1.346-.994 2.436-2.63 2.436zM.567 25.418V7.056H4.7v18.362H.567z" fill="#FFF" fill-rule="evenodd"/></svg>