<svg width="26" height="26" viewBox="0 0 26 26" xmlns="http://www.w3.org/2000/svg"><title>github</title><path d="M17.454 25.215c-.126.045-.254.1-.384.123-.499.09-.818-.168-.821-.679-.007-.947-.007-1.893.008-2.84.017-1.09-.008-2.165-.838-3.064.493-.089.932-.15 1.361-.25 2.843-.652 4.32-2.445 4.508-5.422.097-1.515-.173-2.905-1.18-4.098-.073-.084-.077-.274-.042-.397.268-.986.19-1.95-.123-2.914-.077-.24-.205-.315-.443-.3-.835.047-1.6.34-2.274.79-.65.437-1.255.532-2.027.355-1.7-.384-3.412-.272-5.11.121-.191.046-.45-.015-.626-.118-.796-.467-1.593-.92-2.511-1.101-.71-.139-.773-.103-.961.583-.237.866-.26 1.733-.018 2.603.034.127-.002.33-.087.424-1.882 2.1-1.2 6.069.068 7.589.987 1.18 2.297 1.712 3.752 1.988.254.047.506.083.76.128-.218.566-.414 1.102-.635 1.628-.044.102-.181.187-.294.23-1.427.553-2.653.146-3.47-1.149-.436-.69-.996-1.206-1.831-1.356-.027-.005-.054-.019-.078-.015-.225.059-.447.12-.67.18.125.176.214.412.383.517.707.448 1.167 1.086 1.471 1.839.478 1.18 1.406 1.707 2.61 1.81.589.048 1.183.007 1.827.007 0 .734.027 1.57-.01 2.404-.02.449-.471.629-1.012.445-1.433-.49-2.762-1.194-3.91-2.182C.705 19.524-.892 15.012.485 9.73 1.857 4.465 5.435 1.236 10.786.222c7.403-1.4 14.417 3.991 15.151 11.507.58 5.924-2.907 11.468-8.483 13.486zm-6.98-6.507l-.01.028.04.006c.01 0 .019.02-.03-.034zm-3.349 2.341c.116.072.226.162.352.201.045.015.13-.089.28-.2-.208-.078-.33-.147-.46-.165-.05-.006-.114.107-.172.164zm1.055.181c.017.078.171.174.262.173.087-.002.173-.118.26-.184l-.403-.364c-.053.153-.14.277-.119.375zm1.294-.311c-.108.026-.2.127-.3.196.058.073.116.142.21.258.129-.118.216-.2.305-.28-.074-.064-.16-.187-.215-.174zm-3.208-.437c.06.115.154.213.28.374.085-.138.177-.244.161-.265a1.422 1.422 0 0 0-.296-.27c-.008-.006-.157.136-.145.161z" fill="#FFF" fill-rule="evenodd"/></svg>