<svg width="26" height="26" viewBox="0 0 26 26" xmlns="http://www.w3.org/2000/svg"><title>instagram</title><path d="M3.337 0h19.326C24.498 0 26 1.359 26 3.337v19.326C26 24.641 24.498 26 22.663 26H3.337C1.501 26 0 24.641 0 22.663V3.337C0 1.359 1.501 0 3.337 0zM18.94 2.889c-.644 0-1.17.526-1.17 1.17v2.802c0 .644.526 1.17 1.17 1.17h2.939c.644 0 1.17-.526 1.17-1.17V4.06c0-.644-.526-1.17-1.17-1.17H18.94zm4.122 8.106h-2.289a7.59 7.59 0 0 1 .334 2.23c0 4.326-3.619 7.831-8.082 7.831-4.463 0-8.081-3.505-8.081-7.83 0-.775.116-1.524.333-2.23H2.89v10.982c0 .569.465 1.034 1.034 1.034h18.105c.57 0 1.034-.465 1.034-1.034V10.995zM13.025 7.884c-2.884 0-5.222 2.265-5.222 5.06 0 2.794 2.338 5.06 5.222 5.06 2.883 0 5.222-2.266 5.222-5.06 0-2.795-2.338-5.06-5.222-5.06z" fill="#FFF" fill-rule="evenodd"/></svg>