<svg width="26" height="22" viewBox="0 0 26 22" xmlns="http://www.w3.org/2000/svg"><title>twitter</title><path d="M23.078 3.328S25.163 3.16 26 2.527c0 0-.2.73-2.71 3.038 0 0 .845 12.458-12.03 15.509 0 0-6.529 1.415-11.26-2.196 0 0 4.953.895 7.74-2.233 0 0-3.595.037-4.732-3.685 0 0 1.357.297 2.164-.075 0 0-4.072-.857-3.998-5.36 0 0 1.1.819 2.09.67 0 0-3.667-3.165-1.393-7.11 0 0 4.914 5.897 11.004 5.547a5.41 5.41 0 0 1-.164-1.322c0-2.932 2.344-5.31 5.234-5.31 1.46 0 2.781.608 3.731 1.587A5.932 5.932 0 0 0 25.234.433c0 .001.082 1.137-2.156 2.895z" fill="#FFF" fill-rule="evenodd"/></svg>