<?xml version="1.0" standalone="no"?>
<!DOCTYPE svg PUBLIC "-//W3C//DTD SVG 20010904//EN"
 "http://www.w3.org/TR/2001/REC-SVG-20010904/DTD/svg10.dtd">
<svg version="1.0" xmlns="http://www.w3.org/2000/svg"
 width="260.000000pt" height="260.000000pt" viewBox="0 0 260.000000 260.000000"
 preserveAspectRatio="xMidYMid meet">
<metadata>
Created by potrace 1.11, written by Peter Selinger 2001-2013
</metadata>
<g transform="translate(0.000000,260.000000) scale(0.100000,-0.100000)"
fill="#000000" stroke="none">
<path d="M972 2511 l-323 -87 -240 -240 -240 -240 -84 -322 -85 -323 86 -322
87 -322 238 -240 239 -240 327 -88 328 -87 324 89 323 88 235 235 234 235 89
326 88 326 -85 318 -85 318 -244 245 -244 245 -313 84 c-171 46 -316 85 -322
87 -5 1 -155 -37 -333 -85z m328 -495 l0 -95 42 -23 c25 -14 52 -39 65 -63 21
-36 23 -53 23 -187 l0 -147 -42 -12 c-56 -15 -191 -15 -246 0 l-44 12 4 152
c3 139 5 155 27 190 12 21 41 47 62 58 l39 19 0 95 0 95 35 0 35 0 0 -94z
m-108 -646 c94 -13 210 -2 275 25 20 8 37 14 39 12 2 -1 55 -118 118 -260 150
-334 129 -301 167 -266 60 56 148 43 196 -30 53 -78 1 -182 -99 -197 -42 -7
-43 -15 -12 -76 16 -31 6 -38 -56 -38 l-39 0 -252 375 c-139 205 -255 372
-259 370 -3 -2 -118 -170 -255 -374 l-250 -370 -40 0 c-83 -1 -107 -70 284
801 l30 67 34 -14 c18 -7 72 -19 119 -25z"/>
<path d="M1246 1699 c-31 -25 -34 -61 -6 -89 28 -28 64 -25 89 6 27 34 26 50
-4 79 -29 30 -45 31 -79 4z"/>
</g>
</svg>
