<?xml version="1.0" encoding="UTF-8" standalone="no"?>
<svg width="26px" height="22px" viewBox="0 0 26 22" version="1.1" xmlns="http://www.w3.org/2000/svg" xmlns:xlink="http://www.w3.org/1999/xlink" xmlns:sketch="http://www.bohemiancoding.com/sketch/ns">
    <!-- Generator: Sketch 3.4.4 (17249) - http://www.bohemiancoding.com/sketch -->
    <title>twitter</title>
    <desc>Created with Sketch.</desc>
    <defs></defs>
    <g id="Welcome" stroke="none" stroke-width="1" fill="none" fill-rule="evenodd" sketch:type="MSPage">
        <g id="Desktop-HD" sketch:type="MSArtboardGroup" transform="translate(-481.000000, -4504.000000)" fill="#FFFFFF">
            <g id="footer" sketch:type="MSLayerGroup" transform="translate(0.000000, 4340.000000)">
                <g id="social-nav" transform="translate(245.000000, 162.000000)" sketch:type="MSShapeGroup">
                    <path d="M259.077646,5.32781233 C259.077646,5.32781233 261.163102,5.16057614 262,4.52670712 C262,4.52670712 261.799416,5.25640812 259.289957,7.56514445 C259.289957,7.56514445 260.134878,20.0226749 247.260474,23.0736394 C247.260474,23.0736394 240.731312,24.4891967 236,20.8782729 C236,20.8782729 240.952881,21.7727047 243.739455,18.6446988 C243.739455,18.6446988 240.14499,18.6816536 239.008142,14.9598654 C239.008142,14.9598654 240.365324,15.257383 241.17198,14.8853295 C241.17198,14.8853295 237.100434,14.0284788 237.173879,9.52437596 C237.173879,9.52437596 238.274313,10.3436454 239.264272,10.1945735 C239.264272,10.1945735 235.596981,7.02961282 237.870677,3.08484302 C237.870677,3.08484302 242.784675,8.98195448 248.875021,8.63182325 C248.768866,8.20966147 248.711468,7.7674564 248.711468,7.31021891 C248.711468,4.37826151 251.054905,2 253.945166,2 C255.405417,2 256.726185,2.6075622 257.676027,3.5865516 C258.372208,3.5984523 259.804069,3.47255539 261.234078,2.43343612 C261.234078,2.43406248 261.316163,3.56964007 259.077646,5.32781233 L259.077646,5.32781233 L259.077646,5.32781233 Z" id="twitter"></path>
                </g>
            </g>
        </g>
    </g>
</svg>